<?xml version="1.0" encoding="utf-8"?>
<!-- Generator: Adobe Illustrator 21.1.0, SVG Export Plug-In . SVG Version: 6.00 Build 0)  -->
<svg version="1.1" id="Layer_1" xmlns="http://www.w3.org/2000/svg" xmlns:xlink="http://www.w3.org/1999/xlink" x="0px" y="0px"
	 viewBox="0 0 343 191" style="enable-background:new 0 0 343 191;" xml:space="preserve">
<style type="text/css">
	.st0{fill:#080420;}
	.st1{fill:#FFC200;}
	.st2{fill:#FF8A00;}
	.st3{fill:#FE4A10;}
	.st4{opacity:0.75;clip-path:url(#SVGID_2_);}
	.st5{fill:#FFFFFF;}
	.st6{clip-path:url(#SVGID_2_);}
	.st7{fill:#85AAD0;}
	.st8{fill:#4683BB;}
	.st9{fill:#B3B3B3;}
</style>
<ellipse class="st0" cx="100.2" cy="188.1" rx="71.9" ry="2.6"/>
<path class="st0" d="M118.5,168.6c-26.1,27.4-69.6,28.5-97,2.4C-5.9,145-7,101.4,19,74c26.1-27.4,69.6-28.5,97-2.4
	C143.5,97.6,144.6,141.2,118.5,168.6z"/>
<ellipse transform="matrix(0.6891 -0.7247 0.7247 0.6891 -66.236 86.789)" class="st1" cx="68" cy="120.6" rx="65.5" ry="65.5"/>
<ellipse transform="matrix(0.6891 -0.7247 0.7247 0.6891 -66.236 86.789)" class="st2" cx="68" cy="120.6" rx="65.5" ry="65.5"/>
<path class="st3" d="M84.4,57.2c6.2,2.9,12.1,6.9,17.4,11.9c26.2,24.9,27.3,66.4,2.3,92.6c-17,17.8-41.6,24-63.8,18.3
	c24.8,11.6,55.3,6.8,75.3-14.2c24.9-26.2,23.9-67.7-2.3-92.6C104.8,65.1,94.8,59.8,84.4,57.2z"/>
<g>
	<defs>
		
			<ellipse id="SVGID_1_" transform="matrix(0.6891 -0.7247 0.7247 0.6891 -66.2296 86.7902)" cx="68" cy="120.6" rx="65.5" ry="65.5"/>
	</defs>
	<clipPath id="SVGID_2_">
		<use xlink:href="#SVGID_1_"  style="overflow:visible;"/>
	</clipPath>
	<g class="st4">
		<path class="st5" d="M46,169.8c-18.9,4.8-39.2-10.5-45.2-34.1c-6-23.6,4.5-46.7,23.4-51.5c18.9-4.8,39.2,10.5,45.2,34.1
			C75.4,141.9,64.9,165,46,169.8z"/>
	</g>
	<g class="st6">
		<g>
			<path class="st2" d="M10.6,156.1c-3-5.7,2.9-16.5,2.9-19.3c0,0-0.1-0.2-0.2-0.2c-3.5-1.4-8.6-2.4-9.6-7c-2-8.7,1.7-21.1,12-27.8
				c12.9-8.4,21.6-3.8,23.1,4.2c1,5.3-7.1,15-8.5,20.5c0,0,0,0.3,0.1,0.3c2.8,1.9,15.9,2.5,17.4,9.5c2,9.6-5.5,19.7-16.1,24
				C21.3,164.5,14,162.6,10.6,156.1z M39,141.3c-1.9-6.9-11.6-9.2-17.6-5.9c-5.3,2.9-7.1,11.8-5.3,16.4c2,4.8,7.1,6.9,13.8,4.1
				C36.8,153.1,40.6,147,39,141.3z M8.7,124.4c1.1,5.6,8.5,6.8,13.4,3.9c4.5-2.7,8.6-11.3,7.4-16.9c-1.1-5-5.6-8.7-13.3-3.5
				C9.7,112.4,7.7,119.4,8.7,124.4z"/>
		</g>
	</g>
</g>
<g>
	<path class="st0" d="M158.8,24.2c-0.1-1.4-0.8-2.7-2-3.5c0.2-0.7,0.2-1.5,0-2.3c-0.4-1.8-1.6-3.3-3.4-4.1c-0.9-0.4-1.8-0.6-2.7-0.6
		c-2.2,0-4.2,1.1-5.3,2.7c-0.3-0.1-0.6-0.3-1-0.3c-0.6-0.2-1.2-0.2-1.8-0.2c-2.6,0-4.8,1.4-5.6,3.5c-0.8,1.8-2.2,3.2-3.9,4.6
		c-0.3-0.3-0.7-0.5-1.1-0.6c-1.2-0.5-2.5-0.7-3.5-0.7c-0.7,0-1.4,0.1-2.1,0.2c-1.2,0.2-2.4,0.6-3.5,1.3c-2.6,1.5-3.7,3.5-3,5.4
		c0.4,1.1,1.2,1.9,2.3,2.4c0.2,0.5,0.6,1.2,0.8,1.9c0.1,0.4,0.3,0.9,0.3,1.1c0.3,1.3,1,2.3,1.8,3.1c-0.9,4.8-0.6,9.1-0.3,13.7
		c0,0.6-0.1,0.8-0.3,1c-0.5,0.5-1.8,1.1-3.8,1.1c-1.2,0-2.3-0.2-3.3-0.6c-1.5-0.6-4.7-1.4-8.4-2.2c0.2-0.6,0.2-1.2,0.1-1.8
		c1.9-1,3.9-3,5-6.8c0.5-1.6,0.7-4.7-0.2-7.1c0.1-0.1,0.3-0.3,0.4-0.4c0.1-0.1,0.2-0.2,0.2-0.3c0.8-0.9,1.4-1.9,2-2.9
		c0.6-1.1,1.1-2.4,1.4-3.7c0.2-0.7,0.3-1.3,0.4-2c0.6-4.6-0.7-9.3-3.6-13.4c-0.4-0.6-0.9-1.2-1.4-1.7c-0.6-0.7-1.2-1.3-1.8-1.9
		l-0.1-0.1c-0.4-0.4-0.8-0.8-1.3-1.1c-0.4-0.3-0.7-0.6-1.1-0.9c-0.6-0.5-1.3-0.9-1.9-1.3c-0.4-0.3-0.9-0.6-1.4-0.8
		c-0.3-0.2-0.5-0.3-0.8-0.4c-0.6-0.3-1.3-0.7-2-1c-0.4-0.2-0.8-0.4-1.2-0.5c-3-1.2-6.2-2.1-9.5-2.5c-0.6-0.1-1.3-0.1-1.9-0.2l-0.5,0
		C89.1,0,88.4,0,87.8,0l-0.5,0c-0.5,0-1,0-1.5,0l-0.3,0c-0.6,0-1.2,0.1-1.9,0.1C71,1.4,61.6,8.9,60.4,18.8
		c-0.5,3.8,0.1,7.2,1.9,10.4c-1.6,1.4-2.6,3.4-2.9,4.6c-0.6,1.9-0.8,7.3,1.8,9.7l-1,3.6l0,0.2c-0.2,1.2,0.1,2.4,0.7,3.5
		c-1.5,0.3-2.9,0.6-4,0.8c-8.4,1.2-24.2,12.4-25.4,21.6c-1.5,10.9,4.3,18.6,7.7,22.6c-5.7,4.6-3.8,9.3-3.1,10.6l0.1,0.1
		c0.1,0.2,0.3,0.5,0.4,0.7l0.1,0.1c0.1,0.2,0.3,0.4,0.5,0.6l0.1,0.1c0.4,0.4,0.8,0.8,1.2,1.2l0.1,0.1c0.2,0.1,0.4,0.3,0.5,0.4
		l0.2,0.1c0.2,0.1,0.4,0.2,0.5,0.4l0.2,0.1c0.5,0.3,1,0.5,1.5,0.7l0.2,0.1c0.2,0.1,0.4,0.2,0.6,0.2l0.2,0.1c0.2,0.1,0.4,0.1,0.6,0.2
		l0.2,0.1c0.2,0.1,0.5,0.1,0.7,0.2l0.4,0.1h0c0,0,0.3,0,0.4,0.1l0.2,0c0.2,0,0.4,0,0.6,0.1l0.2,0c0.1,0,0.3,0,0.5,0c0,0,0.3,0,0.3,0
		c0.3,0,0.5,0,0.8-0.1c1.2-0.2,2.9-0.4,4.7-1c0.1,0,0.2-0.1,0.4-0.1l0.2-0.1c0.1-0.1,0.3-0.1,0.3-0.1c0.1,0,0.2-0.1,0.3-0.1
		c1.4,3.1,2.8,6.2,4.2,9.3l0,0.1c0.2,1.1,0.5,3.6,1.4,6.7c0.1,0.5,0.3,0.9,0.4,1.4c0.7,2.2,1.5,4.2,2.4,6.1c0.3,0.5,0.5,1.1,0.8,1.6
		c0.6,1.1,1.2,2.2,1.9,3.2c0.4,0.5,0.7,1,1.1,1.5c0.8,1.1,1.7,2,2.6,2.9c1.3,1.2,2.6,2.3,4,3.1c0.3,0.2,0.6,0.4,0.9,0.5
		c1.6,0.9,3.3,1.6,5.1,2.1c1.1,0.3,2.3,0.5,3.5,0.7c1.1,0.1,2.3,0.2,3.4,0.2l0.4,0c3,0,6.1-0.5,9.4-1.4c-1,1.2-2.1,2.4-3,3.7
		c-0.2,0.3-0.4,0.6-0.6,0.9c-2.9,4.9-1.1,7.7,0.3,9c0.8,0.8,1.9,1.2,3,1.2c0.9,0,1.9-0.3,2.6-0.9c1.1-0.9,1.7-2.2,1.5-3.7
		c0,0,0-0.6,1.1-1.9c0.1-0.1,0.2-0.2,0.3-0.3c0.5-0.5,1.1-1.1,1.8-1.8c0.3-0.2,0.6-0.5,0.8-0.7c0.3-0.3,0.6-0.5,0.9-0.8
		c0.6-0.5,1.2-1,1.8-1.5l1-0.8c0.5-0.4,1-0.8,1.4-1.2c0.5-0.4,0.9-0.8,1.4-1.2c0.3-0.3,0.6-0.5,0.8-0.8c0.6-0.6,1.1-1.2,1.5-1.7
		c1.4-1.9,1.9-3.8,1.3-5.6c0-0.2-0.1-0.3-0.2-0.5c-0.3-0.6-0.6-1.2-1.1-1.7c-0.2-0.2-0.3-0.3-0.5-0.5c-0.2-0.1-0.4-0.3-0.6-0.4
		c-1-0.7-2.3-1.3-4-1.7c-0.4-0.1-0.8-0.2-1.3-0.3c-1.1-0.3-2.4-0.5-3.9-0.7c-1.4-0.2-2.8-0.3-4.2-0.3c-2,0-3.7,0.2-5.2,0.4l-1.2,0.2
		c-0.4,0-0.7,0.1-1.1,0.1l-0.5,0c-0.3,0-0.5,0-0.8,0l-0.3,0c-0.2,0-0.4,0-0.6-0.1c-0.2,0-0.2-0.1-0.3-0.1l-0.1-0.1
		c0,0-0.1-0.1-0.3-0.3c0-0.1-0.2-0.3-0.2-0.3c-0.1-0.1-0.1-0.3-0.2-0.4l0-0.1c-0.4-1.3-0.9-5.1-1.2-9.8l0-0.6l-0.1-1.7l-3.3,0.1
		l2.9-0.2l0.1,0c0,0,0,0,0-0.1l0.3,0l0-0.5c1.7-3.2,4.9-5,9.3-7.4c5.7-3.2,12.8-7.1,20.2-16l5.1-4.6c0.5-0.1,1.1-0.1,1.8-0.2
		c0.6-0.1,1.2-0.2,1.9-0.3c3.1-0.5,6.1-1.2,8.8-2.1c1-0.3,1.9-0.7,2.8-1c1-0.4,2-0.8,2.9-1.3c5.7-2.8,9.8-6.7,12.1-11.5
		c1.1-2.3,1.9-4.8,2.2-7.5c0.2-1.6,0.1-4.7-3.1-14.3c-1.3-3.9-2.7-7.6-3.6-9.9c-0.9-2.2-1.2-3.5-1.3-4.3c1.2-0.7,2.7-1.5,4.4-2.4
		c2-1,4.5-2.3,7.3-4c1.8-1,2.8-2.7,2.8-4.5c0-0.9-0.3-1.6-0.8-2.3C158.5,26.6,158.9,25.4,158.8,24.2z"/>
	<g>
		<path class="st7" d="M141.1,46.3c-2.3-5.7-1.5-7.1-1.2-9.7h-12.4c-1.3,5.1-1,9.5-0.7,14.8c0.4,5.4-7,6.6-11.8,4.8
			c-3.5-1.3-19.1-4.8-30.7-5.3c-11.6-0.4-22.1,2.9-28.2,3.7c-7.3,1.1-21.7,11.4-22.7,18.8c-1.7,12.5,7.4,20,9.1,22.8
			c0.7,1.2,0.3,1.4-0.9,1.3c-0.5,0-1.2,0.1-1.6,0.4c-7.6,6,1.4,11.3,5.6,10.7c2.6-0.4,6-1.1,7.6-3.1c2,4.4,4,8.8,6,13.1
			c0.3,0.6,3.2,35.3,33.9,26.4c19.8-5.8-6.3,9.2-0.6,14.5c0.7,0.6,1.7,0.3,1.6-0.6c-0.8-8.2,28.7-18.2,5.5-21.3
			c-9.9-1.3-14.8,3.3-17.5-2.7c-1.1-2.5-1.7-14.7-1.6-14.9c4.3-9.6,17-8.7,30.4-25c1.4-1.8,5.6-5.4,6.1-5.5
			c2.9-0.4,28.4-1.9,30.7-21.1C148.2,64.8,142.9,50.8,141.1,46.3z"/>
		<path class="st8" d="M50.5,101c-1.6,1.9-5.6,4.1-8.2,4.4c-1.3,0.2-3.1-0.2-4.8-1.1c1.1,3,5.6,4.9,8.2,4.6c2-0.3,5.3-0.7,7.6-3.1
			C52.7,104.3,51.2,102.5,50.5,101z"/>
		<path class="st8" d="M141.1,46.3c-2.3-5.7-1.5-7.1-1.2-9.7h-3.9c0,1.4,0.4,3.2,1.6,6.2c1.8,4.4,7.1,18.5,6.6,22.5
			c-2.3,19.2-29,21.4-31.8,21.9c-0.4,0.1-3.5,2.9-4.9,4.7c-13.4,16.2-26.1,15.3-30.4,25c-0.1,0.2,0.5,12.4,1.6,14.9
			c0.9,1.9,1.9,2.8,3.3,3.1c-1-3.2-1.6-14.3-1.5-14.5c4.3-9.6,17-8.7,30.4-25c1.4-1.8,5.6-5.4,6.1-5.5c2.9-0.4,28.4-1.9,30.7-21.1
			C148.2,64.8,142.9,50.8,141.1,46.3z"/>
		<ellipse transform="matrix(0.2616 -0.9652 0.9652 0.2616 61.0133 159.6713)" class="st8" cx="134.9" cy="40" rx="3.3" ry="4.7"/>
		<path class="st7" d="M123.4,27c-1.1,0.6-1.6,1.3-1.5,1.4c0.1,0.2,0.2,0.5,0.8,0.6c0.6,0.1,1,0.5,1.1,1c0.1,0.2,0.8,1.4,1.2,2.9
			c0.2,0.6,0.3,1.1,0.4,1.3c0.3,1.7,2.7,3.1,5.3,4.8c3.6,2.2,4.6,3.5,8.8,0.2c2.7-2.1,7-3.8,13.5-7.5c1.4-0.8,1.4-1.9,0.3-2.5
			c-1.1-0.5-2.9-0.3-4,0.5c-2.5,1.6-4.6,2.8-6.4,3.7c-0.1,0.1-0.3,0-0.4,0c-0.1-0.1-0.1-0.2,0-0.3c2.8-1.5,6.5-3.7,10.9-6.9
			c1.2-0.9,1.4-2.2,0.3-2.8c-1.1-0.6-2.8-0.2-3.8,0.7c-3.3,3.1-2.1,1.7,1.9-2.8c1.2-1.3,0.9-3.1-0.8-3.9c-1.8-0.8-3.7,0-4.3,1.4
			c-2.3,4.8-4.8,6.1-2.9,3.6c0.8-1.1,0.2-2.6-1.4-3c-1.6-0.4-3.2,0.3-3.6,1.3c-1.4,3.4-4.3,5.4-7.1,7.8c-0.2,0.1-0.3,0.2-0.4,0.3
			c-0.1,0-0.1,0.1-0.2,0.1c-0.3-0.1-0.4-0.2-0.4-0.4c0.2-1.1-0.6-1.8-1.3-2.1c-0.8-0.4-2.2-0.5-3.7-0.2
			C125,26.3,124.1,26.6,123.4,27L123.4,27z M128.3,24.1"/>
		<path class="st0" d="M104.6,49.6l-2.9-3.9l-13.7-1.5C88,44.5,88,44.7,88,45c0,1.8-2.1,3.3-4.7,3.3c-2.6,0-4.7-1.5-4.7-3.3
			c0-0.6,0.2-1.1,0.6-1.6l-15.1-2.1l-1.8,6.5c-0.1,0.5,0,0.9,0.3,1.3c1.6,2.3,7.1,11,5.8,14.1c-1.2,2.9-5.2,2.3-5.2,2.3
			s4,4.2,15.1,2.4c8.5-1.4,15-6.7,16.9-8.3c0.3-0.3,0.8-0.3,1.1-0.1l1.1,0.8c0.3,0.2,0.7,0.1,0.9-0.2l6.2-9.8
			C104.7,50.1,104.7,49.8,104.6,49.6z"/>
		<path class="st7" d="M64.1,41.3c0,0,2.4,14.2,13.8,16.9c13.2,3.1,23.4-12.7,23.4-12.7s0.7,1.7,2.9,1.5c3.7-0.3,5.1-3.6,5.6-5.4
			c0.5-1.5,0.7-5.6-1.4-6.5c-1.6-0.7-2.9,0-2.9,0s-4.9-14.4-23.7-13.9c-12.7,0.3-14.4,8.6-14.4,8.6L67,31.6c0,0-0.8-1.1-2.1-0.8
			c-1.8,0.4-3.1,2.7-3.5,3.9c-0.5,1.5-0.3,5.3,0.9,6.3C63.1,41.9,64.1,41.3,64.1,41.3z"/>
		<path class="st0" d="M83.9,38.9c0,0,0.6-0.6,2.9-0.9s2.8,0.5,4.3,0.5c1.5-0.1,1.2-2.3,1.2-2.3s-2.9-1.4-4.8-0.8
			C85.7,35.9,83.9,38.9,83.9,38.9z"/>
		<path class="st0" d="M78.7,38.5c0,0-0.3-0.5-1.8-0.9c-1.5-0.5-1.9,0-2.9-0.2c-1-0.2-0.5-1.7-0.5-1.7s2.1-0.6,3.2,0
			C77.8,36.4,78.7,38.5,78.7,38.5z"/>
		<path class="st8" d="M108.4,35.1c-1.6-0.7-2.9,0-2.9,0s-1.4-4.2-5.8-8c0.3,1.5,0.5,3.1,0.5,4.8c0,12.2-8.5,22.5-20.5,26.7
			c12.3,1.5,21.6-13,21.6-13s0.7,1.7,2.9,1.5c3.7-0.3,5.1-3.6,5.6-5.4C110.3,40.1,110.5,36,108.4,35.1z"/>
		<path class="st0" d="M71.2,44.4c0,0,2.6,2.3,7.9,2.3c9.7-0.1,11.8-1.1,11.8-1.1s-2.4,6-9.3,5.8c-6.9-0.2-7.6-0.9-7.6-0.9
			s0.2-0.7-0.1-1.6C73.4,47,71.2,44.4,71.2,44.4z"/>
		<path class="st5" d="M90.5,3.6c-14.2-1.8-26.7,5.2-28,15.7c-0.6,4.8,0.9,8.6,4.5,12.4c9-2.5,14-6.8,14-6.8s4,4.4,18.2,11.3
			c2.5,1.2,5.4,1.1,7.7-0.3c4-2.4,6.3-5.5,6.9-10.2C115.1,15.2,104.7,5.3,90.5,3.6z"/>
		<path class="st9" d="M90.5,3.6c-2.6-0.3-5.2-0.4-7.6-0.1c0.4,0,0.7,0.1,1.1,0.1c14.2,1.8,24.6,11.7,23.3,22.1
			c-0.6,4.7-2.9,7.8-6.9,10.2c-0.3,0.2-0.6,0.3-0.9,0.5c2.4,1,5.2,0.9,7.4-0.5c4-2.4,6.3-5.5,6.9-10.2
			C115.1,15.2,104.7,5.3,90.5,3.6z"/>
		<ellipse class="st3" cx="81" cy="24.3" rx="3.1" ry="4.2"/>
		<path class="st8" d="M53.4,105.9c0,0-9.5-19.3-9.1-26.2C45.1,68.4,55,63.3,55,63.3s-11.3,5.1-13.4,13.6
			C38.7,88.4,53.4,105.9,53.4,105.9z"/>
		<path class="st8" d="M117,89.9c0,0-3.8-0.7-6.9-5.3c-1.1-1.6-3.2-7.9-3.2-7.9s-2.5,7.7,0.7,14.2c1.9,3.8,3.4,4.5,3.4,4.5L117,89.9
			z"/>
		<path class="st8" d="M51.7,91.2c4.3-7.5,28.8,4.2,33.2,9.6c-4.9-7.3-23.8-28.1-33.2-14.4c-1.5,2.2-1.6,4.9-1.1,7.7
			C50.8,93,51.2,92.1,51.7,91.2z"/>
		<path class="st5" d="M99.7,137.9c-9.9-1.3-14.8,3.3-17.5-2.7c-1.1-2.5-1.7-14.7-1.6-14.9c0.2-0.5-9.3-6.4-16.4-5.1
			c-3.4,0.6-4.8,3.6-4.8,3.7c0.3,0.6,3.2,35.3,33.9,26.4c19.8-5.8-6.3,9.2-0.6,14.5c0.7,0.6,1.7,0.3,1.6-0.6
			C93.4,151.1,122.9,141,99.7,137.9z"/>
		<path class="st9" d="M82.2,135.2c-1.1-2.5-1.7-14.7-1.6-14.9c0.1-0.2-1.1-1.1-3-2.1v2.7c0.1,2.6,0.7,12,1.6,14.2
			c1.4,3.2,3.4,3.4,6.5,3.1C84.2,138.1,83.1,137.2,82.2,135.2z"/>
		<path class="st9" d="M90.8,5.1c0,0-5.9,0.3-9.8,5.1c-1.1,1.4,1.9-6.8,1.9-6.8l4.2,0.2L90.8,5.1z"/>
	</g>
</g>
<g>
	<g>
		<path class="st0" d="M197.1,101.4c0.1-4.9-0.7-8.5-2.4-10.7c-1.7-2.2-4.1-3.5-7.2-3.8c-1.7,0.1-2.7,0.2-3,0.4
			c-2.9,1.4-4.4,2.6-4.4,3.7v0.2c0.3,0.7,0.6,1,1,1c1.4,1.9,2,3.8,2,5.6c0,5.2-1.7,13.4-4.9,24.5c-3.2,11.1-5.3,17.5-6.2,19.2
			c-1.5,4.8-2.4,7.2-2.8,7.4c-1.7,4.8-3.1,8.2-4.2,10.2c-2.4,5.8-5.3,8.7-8.9,8.7c-2.8,0-4.5-1.3-5-4c-0.3-4.5,1.4-8.3,5.1-11.5
			c-0.8-1.7-2.3-2.5-4.4-2.6c-2.2-0.1-4.2,0.7-6.1,2.1c-2,1.8-3.2,4.6-3.6,8.2c-0.4,3.7,0.6,6.9,2.9,9.7c2.7,3.1,7.5,4.5,14.4,4
			c5.6-0.8,9.8-2.6,12.7-5.3c2.8-2.8,4.8-5.3,6-7.6c1.2-2.3,2-4.2,2.6-5.6c4.4-9.9,8.2-20,11.6-30.3
			C195.2,116.3,196.8,108.5,197.1,101.4z"/>
		<path class="st0" d="M210.5,109h1.2c1.4-0.1,2.6-0.7,3.7-1.7c2-2,3.1-4,3.4-6c0-0.7-0.1-1.4-0.4-2c-1.4-1.6-2.8-2.5-4.3-2.5h-0.5
			c-2.4,0.6-3.6,1.1-3.6,1.4c-2.4,1.4-3.6,3.3-3.7,5.8C206.7,106.6,208.1,108.3,210.5,109z"/>
		<path class="st0" d="M334,109h1.2c1.4-0.1,2.6-0.7,3.7-1.7c2-2,3.1-4,3.4-6c0-0.7-0.1-1.4-0.4-2c-1.4-1.6-2.8-2.5-4.3-2.5h-0.5
			c-2.4,0.6-3.6,1.1-3.6,1.4c-2.4,1.4-3.6,3.3-3.7,5.8C330.1,106.6,331.5,108.3,334,109z"/>
		<path class="st0" d="M338.3,154c-1.9,3.5-4.3,6.9-7.1,10.4c-1.2,1.2-2.5,2-3.6,2.3c-1.4,0.1-2-0.6-1.9-2c0-1.3,1.3-5.1,3.7-11.4
			c5.2-11.3,7.9-19.5,8.1-24.5v-0.3c0.2-7.5-2.5-11.3-8.1-11.4h-0.2c-3-0.1-4.9,0.7-5.6,2.5l0.7,1c0.6,1.2,0.4,4-0.6,8.3
			c-2.6,8-5.4,15.8-8.4,23.5c-0.7,1.7-1.3,3.2-1.7,4.7c-1.3,2.2-2.5,4.1-3.6,5.7c-1.7,2.4-3.1,3.7-4.2,4c-1.4,0.1-2-0.6-1.9-2
			c0-1.3,0.9-4.3,2.7-9c1.8-4.7,3.1-8.2,4-10.5c2.4-6.8,3.5-12,3.4-15.6c-0.1-4.6-1.4-7.9-3.6-9.8c-2.3-1.9-4.6-2.8-6.9-2.8
			c-5.9-0.1-11.3,3.4-16.2,10.4h-0.4l0.1-0.9c0-5.3-2.5-8.3-7.6-9.2c-2,0.1-3.7,0.5-5,1.2c-1.3,0.7-1.9,1.7-2,3
			c1.1,0.2,1.7,1.1,1.8,2.5c0,0.5-0.1,1.1-0.2,1.7c-0.5,4.6-2.5,11.4-6.1,20.4c-1.4,3.6-2.6,6.6-3.4,9.1c-1.6,2.9-3.2,5.3-4.6,7.3
			c-1.7,2.4-3.1,3.7-4.2,4c-1.4,0.1-2-0.6-1.9-2c0-1.3,0.9-4.3,2.7-9c1.8-4.7,3.1-8.2,4-10.5c2.4-6.8,3.5-12,3.4-15.6
			c-0.1-4.6-1.4-7.9-3.6-9.8c-2.3-1.9-4.6-2.8-6.9-2.8c-5.9-0.1-11.3,3.4-16.2,10.4h-0.4l0.1-0.9c0-5.3-2.5-8.3-7.6-9.2
			c-2,0.1-3.7,0.5-5,1.2c-1.3,0.7-1.9,1.7-2,3c1.1,0.2,1.7,1.1,1.8,2.5c0,0.5-0.1,1.1-0.2,1.7c-0.5,4.6-2.5,11.4-6.1,20.4
			c-1.3,3.2-2.3,6-3.2,8.4c-1.9,3.3-4.1,6.5-6.7,9.8c-1.2,1.2-2.5,2-3.6,2.3c-1.4,0.1-2-0.6-1.9-2c0-1.3,1.3-5.1,3.7-11.4
			c5.2-11.3,7.9-19.5,8.1-24.5v-0.3c0.2-7.5-2.5-11.3-8.1-11.4h-0.2c-3-0.1-4.9,0.7-5.6,2.5l0.7,1c0.6,1.2,0.4,4-0.6,8.3
			c-2.6,8-5.4,15.8-8.4,23.5c-2.4,5.8-3.4,10.3-3.2,13.6c0.5,4.8,3.2,7.2,8,7.1c5.3,0.2,9.9-1.9,13.5-6.5c0.7-0.9,1.2-1.7,1.8-2.5
			c-0.1,2.5,0.4,4.4,1.5,5.9c1.2,1.6,3.5,2.6,6.7,2.9c3.3-0.3,5.2-1.4,5.6-3.3c-0.6-0.2-1-0.8-1.3-1.8c-0.4-1.2,1-5.7,4-13.4
			c3-7.7,4.6-11.7,4.9-12c6.1-13.2,11.2-19.6,15.5-19.2c2,0,3,1.2,3.1,3.5c0.2,2-1.4,7.4-4.6,16.4c-1.7,4.1-3.3,8.1-4.8,12.1
			c-1.5,4-2.1,7.6-1.8,10.8c0.5,4.8,3.2,7.2,8,7.1c5,0.2,9.1-1.9,12.5-6.5c0.4-0.6,0.7-1.1,1.1-1.6c0,2.1,0.5,3.8,1.5,5.1
			c1.2,1.6,3.5,2.6,6.7,2.9c3.3-0.3,5.2-1.4,5.6-3.3c-0.6-0.2-1-0.8-1.3-1.8c-0.4-1.2,1-5.7,4-13.4c3-7.7,4.6-11.7,4.9-12
			c6.1-13.2,11.2-19.6,15.5-19.2c2,0,3,1.2,3.1,3.5c0.2,2-1.4,7.4-4.6,16.4c-1.7,4.1-3.3,8.1-4.8,12.1c-1.5,4-2.1,7.6-1.8,10.8
			c0.5,4.8,3.2,7.2,8,7.1c5,0.2,9.1-1.9,12.5-6.5c0.3-0.4,0.6-0.9,0.8-1.3c0,0.2,0,0.5,0,0.7c0.5,4.8,3.2,7.2,8,7.1
			c5.3,0.2,9.9-1.9,13.5-6.5c3.7-5,5.5-8.3,5.4-9.8C339.2,154.5,338.9,153.7,338.3,154z"/>
	</g>
	<g>
		<path class="st8" d="M235.1,94v12.9h4.4v2.2h-6.7V94H235.1z"/>
		<path class="st8" d="M261.4,101.5c0,4.4-3.3,7.8-7.8,7.8c-4.5,0-7.8-3.4-7.8-7.8c0-4.4,3.3-7.8,7.8-7.8
			C258.1,93.7,261.4,97.1,261.4,101.5z M259.1,101.5c0-3.3-2.3-5.7-5.5-5.7c-3.2,0-5.5,2.3-5.5,5.7c0,3.3,2.3,5.7,5.5,5.7
			C256.8,107.2,259.1,104.9,259.1,101.5z"/>
		<path class="st8" d="M273.8,96.2V109h-2.3V96.2h-3.4V94h9.2v2.2H273.8z"/>
		<path class="st8" d="M289.6,96.2V109h-2.3V96.2h-3.4V94h9.2v2.2H289.6z"/>
		<path class="st8" d="M315,101.5c0,4.4-3.3,7.8-7.8,7.8c-4.5,0-7.8-3.4-7.8-7.8c0-4.4,3.3-7.8,7.8-7.8
			C311.6,93.7,315,97.1,315,101.5z M312.7,101.5c0-3.3-2.3-5.7-5.5-5.7c-3.2,0-5.5,2.3-5.5,5.7c0,3.3,2.3,5.7,5.5,5.7
			C310.4,107.2,312.7,104.9,312.7,101.5z"/>
	</g>
</g>
</svg>
