<?xml version="1.0" encoding="UTF-8"?>
<svg width="22px" height="21px" viewBox="0 0 22 21" version="1.1" xmlns="http://www.w3.org/2000/svg" xmlns:xlink="http://www.w3.org/1999/xlink">
    <!-- Generator: Sketch 49.1 (51147) - http://www.bohemiancoding.com/sketch -->
    <title>profile</title>
    <desc>Created with Sketch.</desc>
    <defs></defs>
    <g id="my-account" stroke="none" stroke-width="1" fill="none" fill-rule="evenodd">
        <g id="my-account---account-details" transform="translate(-959.000000, -536.000000)" fill="#AFB6D2">
            <g id="general-info" transform="translate(683.000000, 331.000000)">
                <g id="full-name-copy" transform="translate(64.000000, 190.000000)">
                    <path d="M222.964906,26.7404483 C226.216444,26.7404483 228.853802,24.1074138 228.853802,20.8612069 C228.853802,17.615 226.216444,15 222.964906,15 C219.713369,15 217.076011,17.6330345 217.076011,20.8612069 C217.076011,24.0893793 219.713369,26.7404483 222.964906,26.7404483 L222.964906,26.7404483 Z M222.964906,16.532931 C225.349367,16.532931 227.300289,18.4806552 227.300289,20.8612069 C227.300289,23.2417587 225.349367,25.1894828 222.964906,25.1894828 C220.580446,25.1894828 218.629523,23.2417587 218.629523,20.8612069 C218.629523,18.4806552 220.580446,16.532931 222.964906,16.532931 Z M212.776756,35.9200001 C212.343218,35.9200001 212,35.5773449 212,35.1445173 C212,31.0687242 215.323794,27.7684138 219.388215,27.7684138 L226.613854,27.7684138 C230.696339,27.7684138 234.002069,31.0867587 234.002069,35.1445173 C234.002069,35.5773449 233.658851,35.9200001 233.225313,35.9200001 L212.776756,35.9200001 Z M219.388215,29.3193794 C216.425704,29.3193794 213.987051,31.5376207 213.607705,34.3690346 L232.394364,34.3690346 C232.015018,31.5195863 229.576366,29.3193794 226.613854,29.3193794 L219.388215,29.3193794 Z" id="profile"></path>
                </g>
            </g>
        </g>
    </g>
</svg>