<?xml version="1.0" encoding="UTF-8" standalone="no"?>
<svg width="141px" height="141px" viewBox="0 0 141 141" version="1.1" xmlns="http://www.w3.org/2000/svg" xmlns:xlink="http://www.w3.org/1999/xlink">
    <!-- Generator: Sketch 49.1 (51147) - http://www.bohemiancoding.com/sketch -->
    <title>ic_LPs Ads</title>
    <desc>Created with Sketch.</desc>
    <defs>
        <path d="M7.55100421,0.548625 L0.539004206,7.770125 C-0.178329128,8.5085 -0.178329128,9.7075 0.531004206,10.443125 C0.887004206,10.814375 1.35633754,11 1.82567087,11 C2.29233754,11 2.75767087,10.814375 3.11633754,10.45275 L10.1283375,3.2285 C10.8456709,2.492875 10.8456709,1.29525 10.1363375,0.556875 C9.77900421,0.18425 9.31100421,-1.77635684e-15 8.84300421,-1.77635684e-15 C8.37633754,-1.77635684e-15 7.90833754,0.18425 7.55100421,0.548625 Z" id="path-1"></path>
        <path d="M5.18533333,0.473333333 L0.493333333,5.12933333 C-0.156,5.78 -0.165333333,6.84133333 0.474666667,7.49733333 C0.794666667,7.832 1.22266667,8 1.65333333,8 C2.07066667,8 2.492,7.84133333 2.816,7.52533333 L7.50666667,2.86666667 C8.15733333,2.21866667 8.16533333,1.156 7.52533333,0.5 C7.20533333,0.166666667 6.77733333,0 6.34666667,0 C5.928,0 5.508,0.158666667 5.18533333,0.473333333 Z" id="path-3"></path>
        <path d="M5.15428571,0.545333333 L0.59,4.796 C-0.195714286,5.524 -0.195714286,6.71733333 0.581428571,7.448 C0.971428571,7.816 1.48857143,8 2,8 C2.51428571,8 3.02285714,7.816 3.41571429,7.456 L7.98142857,3.204 C8.76714286,2.47866667 8.76714286,1.284 7.99,0.552 C7.59714286,0.182666667 7.08428571,0 6.57142857,0 C6.05857143,0 5.54571429,0.182666667 5.15428571,0.545333333 Z" id="path-5"></path>
        <path d="M7.55066667,0.548625 L0.538666667,7.770125 C-0.178666667,8.5085 -0.178666667,9.7075 0.530666667,10.443125 C0.886666667,10.814375 1.356,11 1.82533333,11 C2.292,11 2.75733333,10.814375 3.116,10.45275 L10.128,3.2285 C10.8453333,2.492875 10.8453333,1.29525 10.136,0.556875 C9.77866667,0.18425 9.31066667,0 8.84266667,0 C8.376,0 7.908,0.18425 7.55066667,0.548625 Z" id="path-7"></path>
        <path d="M0,4 C0,1.79066667 1.79066667,0 4,0 C6.20933333,0 8,1.79066667 8,4 C8,6.20933333 6.20933333,8 4,8 C1.79066667,8 0,6.20933333 0,4 Z M1.14266667,4 C1.14266667,5.57866667 2.42266667,6.85733333 4,6.85733333 C5.57866667,6.85733333 6.85733333,5.57866667 6.85733333,4 C6.85733333,2.42133333 5.57866667,1.14266667 4,1.14266667 C2.42266667,1.14266667 1.14266667,2.42133333 1.14266667,4 Z" id="path-9"></path>
        <path d="M126.802857,0.98301 L110.548571,17.71749 C109.817143,18.46719 109.817143,19.68729 110.548571,20.43846 C110.914286,20.81184 111.394286,21 111.874286,21 C112.352857,21 112.831429,20.81184 113.197143,20.43846 L129.451429,3.70398 C130.182857,2.95428 130.182857,1.73271 129.451429,0.98301 C129.087143,0.60669 128.607143,0.41853 128.128571,0.41853 C127.648571,0.41853 127.168571,0.60669 126.802857,0.98301 Z" id="path-11"></path>
    </defs>
    <g id="ic_LPs-Ads" stroke="none" stroke-width="1" fill="none" fill-rule="evenodd">
        <g id="doodles">
            <path d="M70.5,141 C109.436075,141 141,109.436075 141,70.5 C141,31.5639251 109.436075,0 70.5,0 C31.5639251,0 0,31.5639251 0,70.5 C0,109.436075 31.5639251,141 70.5,141 Z" id="Oval-6" fill="#FBD292"></path>
            <g id="Group-11" transform="translate(72.000000, 66.500000) rotate(-360.000000) translate(-72.000000, -66.500000) translate(5.000000, 2.000000)">
                <g id="Group-6" transform="translate(123.000000, 12.000000)">
                    <mask id="mask-2" fill="white">
                        <use xlink:href="#path-1"></use>
                    </mask>
                    <use id="Clip-5" fill="#67AEDC" xlink:href="#path-1"></use>
                </g>
                <g id="Group-9" transform="translate(107.000000, 1.000000)">
                    <mask id="mask-4" fill="white">
                        <use xlink:href="#path-3"></use>
                    </mask>
                    <use id="Clip-8" fill="#FBD292" xlink:href="#path-3"></use>
                </g>
                <g id="Group-12" transform="translate(107.000000, 7.000000)"></g>
                <g id="Group-15" transform="translate(4.000000, 111.000000)">
                    <mask id="mask-6" fill="white">
                        <use xlink:href="#path-5"></use>
                    </mask>
                    <g id="Clip-14"></g>
                    <polygon id="Fill-13" fill="#8DB8E2" mask="url(#mask-6)" points="-7.14285714 14.6666667 15.7142857 14.6666667 15.7142857 -6.66666667 -7.14285714 -6.66666667"></polygon>
                </g>
                <g id="Group-18" transform="translate(13.000000, 118.000000)">
                    <mask id="mask-8" fill="white">
                        <use xlink:href="#path-7"></use>
                    </mask>
                    <g id="Clip-17"></g>
                    <polygon id="Fill-16" fill="#3693D1" mask="url(#mask-8)" points="-6.66666667 17.875 17.3333333 17.875 17.3333333 -6.875 -6.66666667 -6.875"></polygon>
                </g>
                <g id="Group-21" transform="translate(0.000000, 86.000000)">
                    <mask id="mask-10" fill="white">
                        <use xlink:href="#path-9"></use>
                    </mask>
                    <g id="Clip-20"></g>
                    <polygon id="Fill-19" fill="#3693D1" mask="url(#mask-10)" points="-6.66666667 20.6666667 14.6666667 20.6666667 14.6666667 -0.666666667 -6.66666667 -0.666666667"></polygon>
                </g>
                <g id="Group-39" transform="translate(9.000000, 12.000000)">
                    <path d="M13.1363983,4.24331551 L13.1449406,4.24331551 L13.1363983,4.24331551 Z M13.1363983,-1.03028697e-13 C13.1164662,-1.03028697e-13 13.0993816,-1.03028697e-13 13.0794495,0.0014144385 L13.0780258,0.0014144385 L13.0766021,0.0014144385 C12.726367,0.011315508 12.3946403,0.103254011 12.1070489,0.263085561 L8.93500127,1.91939305 L5.72593691,0.243283422 C5.41414228,0.0806229947 5.07244953,-1.03028697e-13 4.73360423,-1.03028697e-13 C4.28940366,-1.03028697e-13 3.84947425,0.137200535 3.47788339,0.404529412 C2.82012485,0.879780749 2.48982187,1.68318182 2.62792268,2.48092513 L3.24012219,6.02975134 L0.64610476,8.54320856 C0.0623796533,9.10615508 -0.146907153,9.94916043 0.105091246,10.718615 C0.354242207,11.4866551 1.0233905,12.0467727 1.82921589,12.1627567 L5.415566,12.6804412 L7.02009818,15.9096043 C7.37887556,16.6337968 8.12205728,17.0920749 8.93500127,17.0920749 C9.74794526,17.0920749 10.491127,16.6337968 10.8499044,15.9096043 L12.4544366,12.6804412 L16.0407867,12.1627567 C16.8451883,12.0467727 17.5143366,11.4866551 17.7649113,10.718615 C18.0169097,9.94916043 17.8061992,9.10615508 17.2238978,8.54320856 L14.6298804,6.02975134 L15.2207241,2.60398128 C15.2563171,2.44839305 15.2762491,2.28714706 15.2762491,2.12165775 C15.2762491,0.950502674 14.3237806,-1.03028697e-13 13.1449406,-1.03028697e-13 L13.1420932,-1.03028697e-13 L13.1363983,-1.03028697e-13 Z M13.1363983,2.12165775 L12.3348441,6.76950267 L15.7332632,10.0623155 L11.0349879,10.741246 L8.93500127,14.9704171 L6.83359089,10.741246 L2.13531564,10.0623155 L5.53515846,6.76950267 L4.73360423,2.12165775 L8.93500127,4.31686631 L13.1363983,2.12165775 Z M13.1363983,2.12165775 L13.1449406,2.12165775 L13.1363983,2.12165775 Z" id="Fill-33" fill="#F08B5C"></path>
                    <path d="M115.89278,104.558824 C115.89278,108.537639 112.645275,111.763973 108.640351,111.763973 C104.635428,111.763973 101.387923,108.537639 101.387923,104.558824 C101.387923,100.580008 104.635428,97.3536738 108.640351,97.3536738 C112.645275,97.3536738 115.89278,100.580008 115.89278,104.558824 Z" id="Stroke-35" stroke="#3693D1" stroke-width="1.5"></path>
                </g>
                <mask id="mask-12" fill="white">
                    <use xlink:href="#path-11"></use>
                </mask>
                <use id="Clip-11" fill="#ADE79B" xlink:href="#path-11"></use>
            </g>
        </g>
        <g id="megaphone" transform="translate(25.000000, 32.000000)">
            <g id="Group" transform="translate(3.836066, 0.000000)">
                <path d="M28.138725,25.1704627 C31.9520583,25.1515191 45.2977778,24.7783315 61.8752641,20.8579672 L61.8752641,39.3591694 C45.2968306,35.4388051 31.9501639,35.0656175 28.138725,35.046674 L28.138725,25.1704627 Z" id="Path" fill="#FFFFFF"></path>
                <path d="M68.99898,56.8468925 C68.99898,58.2212459 67.8803643,59.3408087 66.5069581,59.3408087 C65.1326047,59.3408087 64.0139891,58.2212459 64.0139891,56.8468925 L64.0139891,40.6927942 L64.0139891,19.4997158 L64.0139891,3.35130055 C64.0139891,1.97694718 65.1326047,0.860225865 66.5069581,0.860225865 C67.8803643,0.860225865 68.99898,1.97694718 68.99898,3.35130055 L68.99898,56.8468925 Z" id="Path" fill="#FFFFFF"></path>
                <path d="M28.138725,37.1853989 C31.8639709,37.2024481 45.2494718,37.571847 61.8752641,41.560408 L61.8752641,54.967694 C45.1452823,45.061173 32.0022587,44.1973479 28.138725,44.1821931 L28.138725,37.1853989 Z" id="Path" fill="#FFFFFF"></path>
                <path d="M18.9094353,67.1199709 C18.9094353,70.2958543 16.3255373,72.8806995 13.1496539,72.8806995 C12.1333333,72.8806995 11.3083424,72.0557086 11.3083424,71.039388 L11.3083424,46.3228124 L18.9094353,46.3228124 L18.9094353,67.1199709 Z" id="Path" fill="#FFFFFF"></path>
                <path d="M0.86003643,36.944816 L0.86003643,23.253377 C0.86003643,19.2610273 4.10885246,16.0150528 8.10120219,16.0150528 L26.0009472,16.0150528 L26.0009472,24.0973115 L26.0009472,36.1217195 L26.0009472,44.1840874 L19.9787978,44.1840874 L10.23898,44.1840874 L8.10120219,44.1840874 C4.10885246,44.1840874 0.86003643,40.9371658 0.86003643,36.944816 Z" id="Path" fill="#EB6326"></path>
                <path d="M61.8752641,18.6567286 C45.2513661,22.6452896 31.864918,23.0127942 28.138725,23.0317377 L28.138725,16.0368379 C32.0022587,16.0197887 45.1452823,15.1559636 61.8752641,5.24944262 L61.8752641,18.6567286 Z" id="Path" fill="#FFFFFF"></path>
            </g>
            <path d="M70.2776685,59.4042696 C70.2776685,60.778623 69.1590528,61.8981858 67.7856466,61.8981858 C66.4112933,61.8981858 65.2926776,60.778623 65.2926776,59.4042696 L65.2926776,43.2501712 L65.2926776,22.0570929 L65.2926776,5.9086776 C65.2926776,4.53432423 66.4112933,3.41760291 67.7856466,3.41760291 C69.1590528,3.41760291 70.2776685,4.53432423 70.2776685,5.9086776 L70.2776685,59.4042696 Z M29.4174135,39.742776 C33.1426594,39.7598251 46.5281603,40.129224 63.1539526,44.1177851 L63.1539526,57.525071 C46.4239709,47.6185501 33.2809472,46.754725 29.4174135,46.7395701 L29.4174135,39.742776 Z M20.1881239,69.6773479 C20.1881239,72.8532313 17.6042259,75.4380765 14.4283424,75.4380765 C13.4120219,75.4380765 12.587031,74.6130856 12.587031,73.596765 L12.587031,48.8801894 L20.1881239,48.8801894 L20.1881239,69.6773479 Z M2.13872495,39.5021931 L2.13872495,25.8107541 C2.13872495,21.8184044 5.38754098,18.5724299 9.37989071,18.5724299 L27.2796357,18.5724299 L27.2796357,26.6546885 L27.2796357,38.6790965 L27.2796357,46.7414645 L21.2574863,46.7414645 L11.5176685,46.7414645 L9.37989071,46.7414645 C5.38754098,46.7414645 2.13872495,43.4945428 2.13872495,39.5021931 Z M63.1539526,21.2141056 C46.5300546,25.2026667 33.1436066,25.5701712 29.4174135,25.5891148 L29.4174135,18.5942149 C33.2809472,18.5771658 46.4239709,17.7133406 63.1539526,7.80681967 L63.1539526,21.2141056 Z M29.4174135,27.7278397 C33.2307468,27.7088962 46.5764663,27.3357086 63.1539526,23.4153443 L63.1539526,41.9165464 C46.5755191,37.9961821 33.2288525,37.6229945 29.4174135,37.604051 L29.4174135,27.7278397 Z M67.7856466,1.27887796 C65.4508561,1.27887796 63.5356648,3.01789435 63.2193078,5.26554463 C43.6695811,17.2198616 28.5706375,16.445071 28.4153005,16.4355993 C28.4048816,16.4337049 28.3925683,16.4412823 28.3821494,16.439388 C28.3698361,16.439388 28.3603643,16.4337049 28.348051,16.4337049 L9.37989071,16.4337049 C4.20830601,16.4337049 0,20.6401166 0,25.8107541 L0,39.5021931 C0,44.6728306 4.20830601,48.8801894 9.37989071,48.8801894 L10.448306,48.8801894 L10.448306,73.596765 C10.448306,75.7913734 12.2337341,77.5768015 14.4283424,77.5768015 C18.7825137,77.5768015 22.3268488,74.0334135 22.3268488,69.6773479 L22.3268488,48.8801894 L28.2969035,48.8801894 C28.3376321,48.8839781 28.3745719,48.9000801 28.4153005,48.8962914 C28.5668488,48.888714 43.6695811,48.1120291 63.2212022,60.0663461 C63.5460838,62.3054718 65.4584335,64.0350164 67.7856466,64.0350164 C70.339235,64.0350164 72.4163934,61.9588051 72.4163934,59.4042696 L72.4163934,5.9086776 C72.4163934,3.35603643 70.339235,1.27887796 67.7856466,1.27887796 Z" id="Fill-1" stroke="#4C3A2E" stroke-width="0.5" fill="#4C3A2E"></path>
            <path d="M76.8038106,41.9943097 C76.5291293,41.9943097 76.2563424,41.889173 76.0479636,41.679847 C75.6293115,41.2640364 75.6293115,40.5868051 76.0479636,40.168153 C80.1842842,36.0318324 80.1842842,29.3002477 76.0479636,25.16298 C75.6293115,24.745275 75.6293115,24.0699381 76.0479636,23.6522332 C76.4656685,23.2335811 77.1410055,23.2335811 77.5587104,23.6522332 C82.5304408,28.6230164 82.5304408,36.7109581 77.5587104,41.679847 C77.3503315,41.889173 77.0765974,41.9943097 76.8038106,41.9943097" id="Fill-4" fill="#F9A524"></path>
            <path d="M82.0604517,44.7470893 C81.7857705,44.7470893 81.5129836,44.6419526 81.3036576,44.4326266 C80.8859526,44.0149217 80.8859526,43.3395847 81.3036576,42.9209326 C84.0457341,40.1798033 85.5545865,36.5369617 85.5545865,32.6649035 C85.5545865,28.7947395 84.0457341,25.1528452 81.3036576,22.4107687 C80.8859526,21.9949581 80.8859526,21.3177268 81.3036576,20.8990747 C81.7223097,20.4813698 82.3985938,20.4813698 82.8153515,20.8990747 C89.304459,27.387235 89.304459,37.9444663 82.8153515,44.4326266 C82.6069727,44.6419526 82.3341858,44.7470893 82.0604517,44.7470893" id="Fill-6" fill="#F9A524"></path>
            <path d="M87.3157668,47.4997741 C87.0420328,47.4997741 86.7692459,47.3946375 86.560867,47.1853115 C86.1431621,46.7695009 86.1431621,46.0922696 86.560867,45.6736175 C93.7319417,38.5015956 93.7319417,26.8304845 86.560867,19.6575155 C86.1431621,19.2398106 86.1431621,18.5644736 86.560867,18.1467687 C86.9776248,17.7281166 87.6539089,17.7281166 88.072561,18.1467687 C96.0780984,26.1532532 96.0780984,39.178827 88.072561,47.1853115 C87.863235,47.3946375 87.5904481,47.4997741 87.3157668,47.4997741" id="Fill-8" fill="#F9A524"></path>
            <path d="M7.90276867,42.4272641 C7.31173042,42.4272641 6.83435337,41.9479927 6.83435337,41.3579016 L6.83435337,32.2650055 C6.83435337,31.6749144 7.31173042,31.1965902 7.90276867,31.1965902 C8.49380692,31.1965902 8.97213115,31.6749144 8.97213115,32.2650055 L8.97213115,41.3579016 C8.97213115,41.9479927 8.49380692,42.4272641 7.90276867,42.4272641" id="Fill-11" fill="#4C3A2E"></path>
            <path d="M13.2495811,42.4272641 C12.65949,42.4272641 12.1802186,41.9479927 12.1802186,41.3579016 L12.1802186,32.2650055 C12.1802186,31.6749144 12.65949,31.1965902 13.2495811,31.1965902 C13.8396721,31.1965902 14.3189435,31.6749144 14.3189435,32.2650055 L14.3189435,41.3579016 C14.3189435,41.9479927 13.8396721,42.4272641 13.2495811,42.4272641" id="Fill-13" fill="#4C3A2E"></path>
            <path d="M18.5959199,42.4272641 C18.0048816,42.4272641 17.5265574,41.9479927 17.5265574,41.3579016 L17.5265574,32.2650055 C17.5265574,31.6749144 18.0048816,31.1965902 18.5959199,31.1965902 C19.1860109,31.1965902 19.6652823,31.6749144 19.6652823,32.2650055 L19.6652823,41.3579016 C19.6652823,41.9479927 19.1860109,42.4272641 18.5959199,42.4272641" id="Fill-15" fill="#4C3A2E"></path>
            <path d="M22.3268488,51.5993443 L22.3268488,64.9242259 C25.4222222,64.9232787 27.9398179,62.4037887 27.9398179,59.3084153 L27.9398179,57.216102 C27.9398179,54.1197814 25.4222222,51.6002914 22.3268488,51.5993443" id="Fill-17" fill="#4C3A2E"></path>
        </g>
    </g>
</svg>