<?xml version="1.0" encoding="UTF-8" standalone="no"?>
<svg width="190px" height="190px" viewBox="0 0 190 190" version="1.1" xmlns="http://www.w3.org/2000/svg" xmlns:xlink="http://www.w3.org/1999/xlink">
    <!-- Generator: Sketch 49.1 (51147) - http://www.bohemiancoding.com/sketch -->
    <title>ic_call center</title>
    <desc>Created with Sketch.</desc>
    <defs>
        <path d="M95,190 C147.467051,190 190,147.467051 190,95 C190,42.5329488 147.467051,0 95,0 C42.5329488,0 0,42.5329488 0,95 C0,147.467051 42.5329488,190 95,190 Z" id="path-1"></path>
        <path d="M1.1763767,7.9647125 C1.1763767,7.9647125 4.7091399,13.4286085 10.0082847,11.3396479 C15.3074295,9.25068729 16.2713939,8.4470362 16.9135936,8.60736726 C17.5557933,8.76836358 15.0667708,7.08056324 14.4245711,5.95625005 C13.7817066,4.83127158 11.9355486,3.62646023 10.8113667,3.94712233 C9.68718485,4.26844971 5.51222194,6.51840665 4.06694019,7.16106141 C2.62165844,7.80438144 1.1763767,7.9647125 1.1763767,7.9647125 Z" id="path-3"></path>
        <path d="M1.1763767,7.9647125 C1.1763767,7.9647125 4.7091399,13.4286085 10.0082847,11.3396479 C15.3074295,9.25068729 16.2713939,8.4470362 16.9135936,8.60736726 C17.5557933,8.76836358 15.0667708,7.08056324 14.4245711,5.95625005 C13.7817066,4.83127158 11.9355486,3.62646023 10.8113667,3.94712233 C9.68718485,4.26844971 5.51222194,6.51840665 4.06694019,7.16106141 C2.62165844,7.80438144 1.1763767,7.9647125 1.1763767,7.9647125 Z" id="path-5"></path>
    </defs>
    <g id="ic_call-center" stroke="none" stroke-width="1" fill="none" fill-rule="evenodd">
        <g id="ic_404">
            <g id="Group-4">
                <mask id="mask-2" fill="white">
                    <use xlink:href="#path-1"></use>
                </mask>
                <use id="Oval-6" fill="#ADE79B" xlink:href="#path-1"></use>
            </g>
            <g id="doodles" transform="translate(9.000000, 0.000000)">
                <path d="M168.669734,18.847875 L157.833006,30.008375 C156.7244,31.1495 156.7244,33.0025 157.820643,34.139375 C158.370825,34.713125 159.096158,35 159.821491,35 C160.542703,35 161.261855,34.713125 161.816158,34.15425 L172.652885,22.9895 C173.761491,21.852625 173.761491,20.00175 172.665249,18.860625 C172.113006,18.28475 171.389734,18 170.666461,18 C169.945249,18 169.221976,18.28475 168.669734,18.847875 Z" id="Clip-5" fill="#7AE66B"></path>
                <path d="M140.778,2.71 L133.74,9.694 C132.766,10.67 132.752,12.262 133.712,13.246 C134.192,13.748 134.834,14 135.48,14 C136.106,14 136.738,13.762 137.224,13.288 L144.26,6.3 C145.236,5.328 145.248,3.734 144.288,2.75 C143.808,2.25 143.166,2 142.52,2 C141.892,2 141.262,2.238 140.778,2.71 Z" id="Clip-8" fill="#EB6326"></path>
                <path d="M163.204286,1.49792 L138.822857,26.99808 C137.725714,28.14048 137.725714,29.99968 138.822857,31.14432 C139.371429,31.71328 140.091429,32 140.811429,32 C141.529286,32 142.247143,31.71328 142.795714,31.14432 L167.177143,5.64416 C168.274286,4.50176 168.274286,2.64032 167.177143,1.49792 C166.630714,0.92448 165.910714,0.63776 165.192857,0.63776 C164.472857,0.63776 163.752857,0.92448 163.204286,1.49792 Z" id="Clip-11" fill="#F9A524"></path>
                <path d="M9.01777778,151.818 L1.91777778,158.194 C0.695555556,159.286 0.695555556,161.076 1.90444444,162.172 C2.51111111,162.724 3.31555556,163 4.11111111,163 C4.91111111,163 5.70222222,162.724 6.31333333,162.184 L13.4155556,155.806 C14.6377778,154.718 14.6377778,152.926 13.4288889,151.828 C12.8177778,151.274 12.02,151 11.2222222,151 C10.4244444,151 9.62666667,151.274 9.01777778,151.818 Z" id="Clip-14" fill="#EB6326"></path>
                <path d="M26.6692121,161.847875 L15.8324848,173.008375 C14.7238788,174.1495 14.7238788,176.0025 15.8201212,177.139375 C16.370303,177.713125 17.0956364,178 17.8209697,178 C18.5421818,178 19.2613333,177.713125 19.8156364,177.15425 L30.6523636,165.9895 C31.7609697,164.852625 31.7609697,163.00175 30.6647273,161.860625 C30.1124848,161.28475 29.3892121,161 28.6659394,161 C27.9447273,161 27.2214545,161.28475 26.6692121,161.847875 Z" id="Clip-17" fill="#F9A524"></path>
            </g>
        </g>
        <g id="jinni" transform="translate(42.000000, 30.000000)">
            <g id="Group-83">
                <path d="M77.1209891,80.3335296 L57.4796778,82.1071766 C57.6008286,82.5255155 57.6651265,82.9575929 57.6651265,83.4013481 C57.6651265,86.9012441 53.7273887,89.738255 48.8712065,89.738255 C44.0143475,89.738255 40.0772866,86.9012441 40.0772866,83.4013481 C40.0772866,82.2878385 40.4793175,81.2423348 41.1798261,80.3335296 L12.8819893,76.4173555 L9.42276315,88.8438753 C9.29552102,89.7128386 9.49044513,90.5962275 9.97166402,91.3271184 C12.8975561,95.7681052 23.2752345,112.2001 20.8183785,118.257427 C18.5896108,123.752847 11.1554219,122.572706 11.1554219,122.572706 C11.1554219,122.572706 18.7405416,130.534883 39.5656108,127.083759 C55.5189308,124.440462 67.7700464,114.420936 71.2367176,111.327015 C71.8336726,110.793959 72.7054166,110.742439 73.3619318,111.196498 L75.4884997,112.667897 C76.0306324,113.04296 76.7697196,112.888401 77.1209891,112.326494 L88.8035761,93.6427513 C89.0627981,93.2285339 89.0411398,92.6941043 88.7494305,92.3025556 L77.1209891,80.3335296 Z" id="Combined-Shape" fill="#58566C"></path>
                <path d="M77.1209891,78.2023821 L57.4796778,79.9760291 C57.6008286,80.3943679 57.6651265,80.8264454 57.6651265,81.2702006 C57.6651265,84.7700966 53.7273887,87.6071074 48.8712065,87.6071074 C44.0143475,87.6071074 40.0772866,84.7700966 40.0772866,81.2702006 C40.0772866,80.156691 40.4793175,79.1111872 41.1798261,78.2023821 L12.8819893,74.286208 L9.42276315,86.7127277 C9.29552102,87.5816911 9.49044513,88.46508 9.97166402,89.1959709 C12.8975561,93.6369576 23.2752345,110.068952 20.8183785,116.126279 C18.5896108,121.6217 11.1554219,120.441558 11.1554219,120.441558 C11.1554219,120.441558 18.7405416,128.403736 39.5656108,124.952612 C55.5189308,122.309314 67.7700464,112.289789 71.2367176,109.195867 C71.8336726,108.662811 72.7054166,108.611292 73.3619318,109.065351 L75.4884997,110.53675 C76.0306324,110.911812 76.7697196,110.757253 77.1209891,110.195347 L88.8035761,91.5116037 C89.0627981,91.0973864 89.0411398,90.5629568 88.7494305,90.171408 L77.1209891,78.2023821 Z" id="Combined-Shape" fill="#58566C"></path>
                <path d="M14.2070427,53.2781956 C14.6373403,53.7864767 15.0868193,54.2947365 15.5554951,54.8036939 C15.9210515,54.6988909 16.2830796,54.5925951 16.6415606,54.4849206 C16.8222019,54.6713589 16.9148884,54.8030757 16.9148884,54.8030757 L17.0216462,54.3698393 C32.9670909,49.5033607 41.7815864,41.9512791 41.7815864,41.9512791 C41.7815864,41.9512791 49.273305,50.3427863 75.8513427,63.4679114 C80.4787598,65.7533194 85.9413726,65.5245725 90.3623597,62.8503635 C91.3661351,62.243246 92.3135617,61.6125702 93.2044402,60.9542017 C93.6464848,61.0517964 94.1141772,61.2023604 94.6016212,61.4223098 C98.4290373,63.1485587 98.054756,70.9410651 97.2087312,73.7959361 C96.1671055,77.3081967 93.6087266,83.5798454 86.6625247,84.1548038 C82.5630271,84.494833 81.2757158,81.2772642 81.2757158,81.2772642 C81.2757158,81.2772642 62.2388046,111.388047 37.4705832,105.394604 C16.0648027,100.214483 11.5280794,73.2202908 11.5280794,73.2202908 C11.5280794,73.2202908 9.685099,74.3715814 8.12570613,72.9324681 C5.90099937,70.8792416 5.56123582,63.7702282 6.4241811,60.8466645 C7.13078099,58.4540957 9.62147794,54.1147743 12.9460169,53.3646494 C13.4033408,53.2614768 13.8242256,53.2414942 14.2070427,53.2781956 Z" id="Combined-Shape" fill="#7FB1DF"></path>
                <path d="M60.7930378,1.39713619 C34.2393657,-1.99285137 10.7178464,11.3548382 8.25760633,31.2097927 C7.12528677,40.3459294 9.89821758,47.5030277 16.6210689,54.8036939 C33.4914798,49.9670369 42.8471602,41.9512791 42.8471602,41.9512791 C42.8471602,41.9512791 50.3388788,50.3427863 76.9169164,63.4679114 C81.5443336,65.7533194 87.0069464,65.5245725 91.4279334,62.8503635 C98.9521394,58.2994683 103.310182,52.4248638 104.418136,43.4851884 C106.878376,23.6302339 87.3467099,4.78712375 60.7930378,1.39713619" id="Fill-44" fill="#FEFEFE"></path>
                <path d="M60.9917496,4.09121042 C60.9917496,4.09121042 47.2028739,4.8106821 37.8753048,16.225725 C35.2375732,19.4534387 42.4486747,0.106112791 42.4486747,0.106112791 L52.3093933,0.676520279 L60.9917496,4.09121042 Z" id="Fill-60" fill="#BBBDBF"></path>
                <path d="M87.8352526,63.991393 C87.8352526,66.5606823 82.6082767,63.991393 77.1229962,63.991393 C77.1229962,87.1236789 61.9294344,98.112966 39.4028402,105.964548 C62.5460173,108.728058 79.9206589,81.2777451 79.9206589,81.2777451 C79.9206589,81.2777451 81.2079702,84.4946269 85.3081447,84.1552847 C92.2543466,83.5796394 94.8120487,77.3079907 95.8536744,73.79573 C96.700376,70.940859 97.0739805,63.1483527 93.2465644,61.4221037 C90.2635696,62.9798297 87.8352526,63.991393 87.8352526,63.991393 Z" id="Fill-40" fill="#2F94D1"></path>
                <path d="M60.7979833,1.39713619 C55.8890092,0.769971319 51.0856189,0.719138679 46.4981341,1.17182395 C47.1884903,1.23776899 47.8795234,1.30852253 48.5739405,1.39713619 C75.1282894,4.78712375 94.6599559,23.6302339 92.1997158,43.4851884 C91.0917618,52.4248638 86.7337189,58.2994683 79.2088362,62.8503635 C78.6653498,63.1794018 78.1062967,63.4692852 77.5350607,63.7234484 C82.0277907,65.7017998 87.2034319,65.4084818 91.432879,62.8503635 C98.9570849,58.2994683 103.315128,52.4248638 104.423082,43.4851884 C106.883322,23.6302339 87.3516554,4.78712375 60.7979833,1.39713619" id="Fill-46" fill="#BBBDBF"></path>
                <path d="M5.57391162,88.6852178 C5.52731133,89.1390308 5.63749745,89.5933867 5.88669486,89.9718736 C8.51839735,93.9663074 11.2428979,98.5402516 13.429479,103.007498 C16.7900602,109.87326 18.2159822,115.087969 16.8798709,118.382103 C15.8593689,120.898315 13.8913244,122.477879 11.3442172,123.252257 C11.1621405,123.307613 10.979473,123.35834 10.7964663,123.404648 C16.2411746,125.831835 23.830599,126.69694 33.884657,125.030795 C46.1232574,123.003 56.8616391,116.701095 64.7524351,109.658791 C65.8998521,108.634202 67.5874202,108.5317 68.8516937,109.406091 L70.5918017,110.610086 L81.880372,92.5566003 L77.9418538,87.2700871 C77.702199,87.1020173 77.4798812,86.922769 77.2741189,86.7346368 C76.3105415,88.080765 75.1231703,89.6218623 73.7268091,91.2803835 C70.8203871,94.7324722 67.5887534,97.9849971 64.0682501,100.825919 C54.2989287,108.709416 43.8262828,112.281559 33.0286582,109.668737 C23.1785271,107.285041 15.9808061,100.476263 11.0240522,90.8926064 C9.53157181,88.006964 8.33647621,85.0389149 7.40430818,82.1099564 L5.57391162,88.6852178 Z M77.2216358,84.502173 L76.9489727,84.6624272 L76.8106873,85.9329846 L77.2385674,85.9795544 L77.3873757,84.6123141 L77.2216358,84.502173 Z M9.09303941,75.9700963 C9.14025618,76.2127598 9.19915012,76.4953902 9.27044408,76.8150116 C9.47411062,77.7280791 9.73609464,78.7538114 10.0620847,79.8683538 C10.9906911,83.0432083 12.2436415,86.2921599 13.8634739,89.4240318 C18.4315445,98.2561871 24.9533139,104.42554 33.7805278,106.561694 C43.4651105,108.90518 52.9934759,105.655125 62.0607272,98.3381732 C65.4091017,95.6361532 68.4990119,92.5262681 71.2813918,89.2215098 C73.1491431,87.0030972 74.6211662,85.0111654 75.6524085,83.4593559 C75.982883,82.9620591 76.5629854,82.6904256 77.1565708,82.7550305 L77.584451,82.8016004 C78.0866824,82.8562624 78.5335069,83.1451448 78.7894908,83.5806864 C79.0422092,84.0106717 79.4159352,84.4281569 79.9154597,84.7449703 C80.0802697,84.8494978 80.2245432,84.9833247 80.3411404,85.1398284 L84.6114912,90.8717472 C85.2969606,91.791817 85.3475185,93.042104 84.7391238,94.0142668 L73.0566236,112.697753 C72.2230014,114.031245 70.4531565,114.401366 69.159366,113.506291 L67.0330581,112.035082 C58.5796581,119.452498 47.3563302,126.038998 34.4072392,128.184512 C23.6409088,129.968694 15.3575317,128.993553 9.3087998,126.240572 C7.91584476,125.606591 6.75071548,124.92096 5.80199783,124.227192 C5.20648645,123.791713 4.80280239,123.434608 4.57845789,123.199113 C3.5238168,122.092053 4.47623404,120.278319 5.98632866,120.518038 C6.03629423,120.52597 6.15828356,120.541484 6.34105374,120.558115 C7.6284671,120.67526 9.08402684,120.598213 10.4143655,120.19376 C12.0992234,119.681526 13.2912593,118.724791 13.9175311,117.180617 C15.5310814,113.202467 10.2346279,102.381664 3.21699294,91.7302019 C2.52007789,90.6717113 2.23757214,89.3930679 2.42158187,88.1364345 L2.46326603,87.9393672 L5.92243598,75.5131274 C6.38045723,73.8677957 8.75306563,73.9910195 9.0381786,75.6749465 C9.04663765,75.7249465 9.06478067,75.8248648 9.09303941,75.9700963 Z" id="Combined-Shape" fill="#4C3A30" fill-rule="nonzero"></path>
                <path d="M3.89239177,64.019765 C3.03034146,66.9402967 3.68910699,73.1348563 5.14494523,74.4784786 C5.23935483,74.5656061 5.33090528,74.6296267 5.42119705,74.6756863 C5.70816135,74.8220726 6.05998436,74.806833 6.43436136,74.6646598 C7.58211442,73.9820918 8.8508676,74.5531875 9.03956986,75.6759946 C9.04804868,75.7264449 9.06816755,75.8372103 9.10092174,76.0042283 C9.15712482,76.2908154 9.22796178,76.6256043 9.31441961,77.0045269 C9.56341336,78.0958031 9.88679013,79.3153798 10.2922942,80.6306408 C11.451248,84.3897324 13.0315456,88.147853 15.0900634,91.6440077 C19.6100173,99.3206269 25.7518526,104.61849 33.7817424,106.561694 C44.8194666,109.232615 55.5899869,104.65875 65.5572838,95.286697 C68.3893366,92.6237736 70.9353985,89.7662381 73.1520968,86.9096322 C73.9268611,85.911212 74.6042632,84.9854907 75.1791616,84.1569171 C75.5202023,83.6653913 75.7488149,83.3195228 75.8599518,83.143737 C76.5571048,82.0410465 78.2103431,82.1929068 78.6949468,83.404149 C78.763678,83.5759391 78.9824493,83.9354802 79.3613199,84.3050219 C80.0900353,85.015794 81.0728381,85.3980516 82.46591,85.2825046 C87.3027609,84.8821436 90.0175872,81.4368637 91.6114817,76.0624067 C92.705039,72.3722488 92.0642915,66.5852406 89.8794561,65.5998317 C89.7341475,65.5342641 89.5898229,65.4758842 89.4464686,65.4244096 C88.7111206,65.9427607 87.9377645,66.4469271 87.1248567,66.9386013 C82.2391769,69.8938982 76.1978854,70.1498713 71.0788483,67.62166 C59.3747295,61.8417741 50.419546,56.5322124 43.8513378,51.8056504 C41.5350366,50.138812 39.6802188,48.6601221 38.2417874,47.3836599 C38.0037553,47.1724305 37.7893972,46.97792 37.5978349,46.800405 C36.8783161,47.3425627 36.0417046,47.9367528 35.0899371,48.570673 C32.1306234,50.54171 28.6512021,52.5088294 24.6720184,54.3426593 C21.3859689,55.8570542 17.8951308,57.2144377 14.2056509,58.3766482 C13.781901,59.0597929 12.9002055,59.3023011 12.1930116,58.9852979 C12.1058377,59.0105708 12.018576,59.0357287 11.9312266,59.0607713 C11.3500125,59.2274023 10.7245218,59.0518079 10.3149483,58.6070324 C10.0077997,58.273485 9.70924503,57.9408718 9.41913905,57.6089696 C7.09018624,58.1279285 4.71067797,61.2490231 3.89239177,64.019765 Z M3.96857186,77.5233006 C3.61648577,77.3436945 3.28456722,77.1115863 2.97690498,76.8276547 C0.44491389,74.4908294 -0.343400251,67.0780873 0.826509098,63.1145631 C1.93832321,59.3499267 5.010684,55.3200483 8.52950136,54.5260879 C9.13165214,54.3902422 9.72235252,54.3528609 10.2948169,54.4077442 C10.7098052,54.44753 11.0928268,54.6478792 11.3621922,54.9660623 C11.5710878,55.2128164 11.7852278,55.4602253 12.0046872,55.7083892 C12.1799522,55.6558274 12.2434862,55.6409552 12.3072656,55.6300316 C16.3283239,54.3903614 19.9454513,53.0010634 23.3340403,51.4394125 C27.1574599,49.6773674 30.4926972,47.7917636 33.3178599,45.9100773 C34.3011693,45.2551487 35.1489231,44.6489854 35.8583776,44.1075849 C36.2757786,43.789057 36.5495229,43.5672236 36.6768768,43.4581094 C37.3375854,42.8920276 38.3297127,42.958386 38.9091487,43.6074148 C38.9462807,43.6490065 39.0470476,43.7552024 39.2171566,43.9242039 C39.5166485,44.2217459 39.8968909,44.5784908 40.3635824,44.9926322 C41.7192271,46.1956297 43.4890492,47.6065597 45.7185342,49.2109241 C52.1382869,53.8306556 60.9426441,59.0507919 72.4943666,64.7554194 C76.6351539,66.8004886 81.5188523,66.5935634 85.4703895,64.2033197 C86.4415273,63.6159426 87.3468006,63.0123078 88.1897242,62.3893784 C88.5611851,62.1148648 89.0332373,62.0144636 89.484264,62.1140415 C90.0544395,62.239925 90.6254943,62.4293725 91.1940057,62.685902 C95.3621489,64.5658264 96.1755399,71.9120911 94.6763583,76.9710089 C92.7486083,83.4711948 89.2352678,87.9298377 82.7298812,88.4683084 C80.4646276,88.6561978 78.6326517,87.9810105 77.2748708,86.7314276 C76.7955799,87.3998968 76.2625834,88.1155896 75.6776221,88.8694152 C73.3645019,91.8502776 70.7093841,94.8302105 67.7470968,97.6155908 C57.0736368,107.651635 45.3204184,112.642818 33.0298728,109.668737 C24.0637458,107.498967 17.2603426,101.630445 12.3353738,93.2659548 C10.1399028,89.5372009 8.46510494,85.5543482 7.23746326,81.5724663 C6.83801782,80.2768565 6.51293879,79.0657532 6.25535903,77.9647563 C5.50198663,78.0337977 4.72793099,77.910665 3.96857186,77.5233006 Z" id="Combined-Shape" fill="#4C3A30" fill-rule="nonzero"></path>
                <path d="M35.0899371,48.570673 C32.1306234,50.54171 28.6512021,52.5088294 24.6720184,54.3426593 C20.7123632,56.1674893 16.4619374,57.7618407 11.9312266,59.0607713 L10.9830882,59.3325976 L10.3149483,58.6070324 C3.13820295,50.8134609 0.371181327,43.1728651 1.54103848,33.7338559 C4.12466057,12.8831674 28.5174317,-0.95909729 55.8651123,2.53225775 L55.6626996,4.11775007 L55.8651123,2.53225775 C83.2090677,6.02313722 103.45693,25.5574778 100.874023,46.4023937 C99.7389825,55.5606178 95.3292327,61.9763162 87.1248567,66.9386013 C82.2391769,69.8938982 76.1978854,70.1498713 71.0788483,67.62166 C59.3747295,61.8417741 50.419546,56.5322124 43.8513378,51.8056504 C41.5350366,50.138812 39.6802188,48.6601221 38.2417874,47.3836599 C38.0037553,47.1724305 37.7893972,46.97792 37.5978349,46.800405 C36.8783161,47.3425627 36.0417046,47.9367528 35.0899371,48.570673 Z M55.6626996,4.11775007 L55.460287,5.70324239 C29.7003899,2.41459252 7.05033423,15.2679114 4.71349243,34.1270009 C3.70086849,42.2973717 5.93617776,48.846245 12.0047045,55.708414 C16.0188003,54.5087781 19.7980575,53.0689907 23.3340403,51.4394125 C27.1574599,49.6773674 30.4926972,47.7917636 33.3178599,45.9100773 C34.3011693,45.2551487 35.1489231,44.6489854 35.8583776,44.1075849 C36.2757786,43.789057 36.5495229,43.5672236 36.6768768,43.4581094 L37.8661585,42.4391568 L38.9091487,43.6074148 C38.9462807,43.6490065 39.0470476,43.7552024 39.2171566,43.9242039 C39.5166485,44.2217459 39.8968909,44.5784908 40.3635824,44.9926322 C41.7192271,46.1956297 43.4890492,47.6065597 45.7185342,49.2109241 C52.1382869,53.8306556 60.9426441,59.0507919 72.4943666,64.7554194 C76.6351539,66.8004886 81.5188523,66.5935634 85.4703895,64.2033197 C92.8624116,59.7323739 96.6911447,54.1619904 97.7015684,46.0092515 C100.039117,27.1444619 81.2240022,8.99237972 55.460287,5.70324239 L55.6626996,4.11775007 Z" id="Fill-44" fill="#4C3A30" fill-rule="nonzero"></path>
                <path d="M44.8675594,40.8756192 C44.8675594,45.2520348 42.2746627,48.7993287 39.076689,48.7993287 C35.8780385,48.7993287 33.2858186,45.2520348 33.2858186,40.8756192 C33.2858186,36.4992037 35.8780385,32.9512228 39.076689,32.9512228 C42.2746627,32.9512228 44.8675594,36.4992037 44.8675594,40.8756192" id="Fill-48" fill="#F26D31"></path>
                <path d="M43.512424,43.5962331 L45.1107846,43.5962331 C45.1107846,48.7663203 41.930068,53.1183033 37.7215536,53.1183033 C33.5125603,53.1183033 30.3323225,48.7666242 30.3323225,43.5962331 C30.3323225,38.4257346 33.5126029,34.073476 37.7215536,34.073476 C41.9300254,34.073476 45.1107846,38.4260385 45.1107846,43.5962331 L43.512424,43.5962331 Z M43.512424,43.5962331 L41.9140633,43.5962331 C41.9140633,40.013745 39.9091376,37.2701973 37.7215536,37.2701973 C35.5335623,37.2701973 33.5290438,40.0134092 33.5290438,43.5962331 C33.5290438,47.1789024 35.5334134,49.921582 37.7215536,49.921582 C39.9092865,49.921582 41.9140633,47.1785666 41.9140633,43.5962331 L43.512424,43.5962331 Z" id="Fill-48" fill="#4C3A30" fill-rule="nonzero"></path>
            </g>
            <g id="Group-13" transform="translate(34.098361, 5.327869)">
                <path d="M60.8720594,52.5828934 C58.8150459,50.4880098 56.4543556,49.8004612 53.7523961,50.7840132 C52.9465073,51.0770859 52.2375367,51.5770679 51.5643963,52.1063572 C48.3778462,54.6121287 46.2861771,57.8886814 44.8535512,61.628289 C43.5595476,65.0033141 43.0109323,68.4662611 43.6617521,72.0546431 C43.8978799,73.3552997 44.357213,74.5856189 45.2429858,75.6119595 C45.3440156,75.7192241 45.4462202,75.8264887 45.5484247,75.9331671 C46.1622394,76.9401649 47.1948579,77.4706265 48.171675,78.1400045 C47.6500793,78.4254573 47.2071929,78.6939119 46.7425733,78.9178194 C45.2500344,79.6381921 43.7633693,80.3749769 42.2490972,81.0466995 C33.3408542,84.9979055 23.9227632,87.015418 14.32787,88.3623801 C13.2835039,88.5089164 12.3384055,88.374103 11.448521,87.7656841 C10.1897603,86.9052226 8.79120252,86.5552938 7.25226037,86.6590416 C5.28687852,86.7915104 3.34029291,87.0388638 1.40486756,87.3876203 C1.00838437,87.45913 0.576658235,87.4304089 0.250660947,87.7387214 C-0.126438619,87.9684904 0.0392032461,88.3342451 0.0204070061,88.6536943 C0.267695039,90.2403899 1.11881228,91.4367126 2.41457808,92.3469964 C2.9479214,92.6752378 3.55762443,92.724474 4.14559432,92.6992698 C6.95680697,92.5779377 9.79034016,92.5902467 12.4646927,91.4982579 C12.7460489,91.3833734 13.0620607,91.3429293 13.3674996,91.2948654 C20.8014125,90.1284361 28.2112428,88.8529837 35.3902317,86.5084022 C38.6396317,85.4474791 41.8297061,84.2470533 44.8958428,82.7295229 C44.994523,82.7693808 45.0608972,82.7330398 45.1055383,82.6427734 C45.3099474,82.548404 45.5143565,82.4534484 45.7187656,82.359079 C48.1787236,81.3157402 50.4495443,79.9336094 52.68336,78.4864164 C53.1567903,78.1792763 59.1880338,76.7203604 61.1099493,75.6289577 C61.5311026,75.3903965 61.8935176,75.0310894 62.241248,74.6858498 C62.8991164,74.0317115 63.4982466,73.316028 64.1743239,72.6824048 C65.7402856,71.2146968 66.6107865,69.4316425 66.7582195,67.2951426 C66.8034479,66.6509688 67.010794,62.3597984 66.4157755,60.9764953 C65.9770008,59.9583608 65.8095967,58.9818426 66.0786179,57.9320562 C66.8416278,54.9556099 67.1617513,51.9328581 67.1288578,48.8638009 C67.0419252,40.7855452 65.7156155,32.927094 62.9572673,25.3224437 C61.7102543,21.8852872 60.1207972,18.6075622 58.2905133,15.4447217 C58.1295705,15.1668888 57.9651034,14.7132122 57.6056253,14.7776882 C56.8737467,14.9101571 56.6746241,14.3972799 56.3685978,13.9647046 C55.9351095,13.3521826 55.5051455,12.7361438 55.045225,12.144137 C50.9253241,6.85358873 45.9431458,2.76405237 39.3074856,1.03316504 C38.021118,0.697303735 36.1379697,-0.169019147 34.7681937,0.029097994 C46.9193755,3.21655661 52.7285884,11.8440306 54.1318452,14.0608324 C54.5065953,14.6534254 54.3015988,14.76069 53.7535709,14.7765159 C53.7059929,14.9611517 53.4193502,14.8321997 53.3952676,15.0473151 C53.2078925,15.4576169 53.3189078,15.8216131 53.5344772,16.1932293 C59.5387012,26.5246279 62.1079122,37.7305554 62.0515235,49.5994133 C62.0450623,50.8889332 61.9316975,51.5635865 61.0165555,52.6356464" id="Fill-52" stroke="#F26D31" stroke-width="2" fill="#F26D31"></path>
                <path d="M46.9760564,74.3475085 C45.9831826,72.4185523 45.8359798,70.1520873 46.0868801,68.0168756 C46.2042848,66.9387227 46.4480335,65.8787343 46.7483987,64.8374963 C47.0672387,63.8003601 47.4695135,62.7913496 47.9206573,61.8046052 C48.867046,59.8533828 50.0404965,58.0017723 51.4904737,56.3763395 C52.9321075,54.7526646 54.6180859,53.311221 56.5549646,52.3186171 C55.6580407,52.9250781 54.8010464,53.5795873 54.0286788,54.3243332 C53.242604,55.0515005 52.507782,55.8314035 51.8426877,56.6646282 C50.5041555,58.3240462 49.3742103,60.1393277 48.4600035,62.0518773 C47.5547362,63.9673566 46.8812984,65.9912372 46.5392158,68.0766428 C46.3622149,69.1178808 46.2912953,70.1784551 46.3526795,71.2337559 C46.3955888,72.2908146 46.5940444,73.3437716 46.9760564,74.3475085" id="Fill-54" stroke="#FFFFFF" stroke-width="2" fill="#FEFEFE" stroke-linecap="round" stroke-linejoin="round"></path>
                <path d="M63.4635018,69.2077381 C61.374669,73.1100433 57.9676055,75.2076694 55.8540786,73.8909743 C53.741278,72.5758457 53.7216679,68.3453459 55.811227,64.4430407 C57.9000598,60.5407355 61.306397,58.4431094 63.419924,59.7590213 C65.5334509,61.0749331 65.5530609,65.3054329 63.4635018,69.2077381 Z" id="Stroke-56" stroke="#FEFEFE"></path>
                <path d="M62.6634893,68.7916023 C61.5198419,70.8578855 59.7768059,72.0415915 58.7692232,71.4350493 C57.7628135,70.827895 57.8730728,68.6606235 59.0161337,66.5943403 C60.1591947,64.5274451 61.9028171,63.3443512 62.9098133,63.9508934 C63.917396,64.5580477 63.8065502,66.7253192 62.6634893,68.7916023" id="Fill-58" fill="#FEFEFE"></path>
                <path d="M62.6634893,68.7916023 C61.5198419,70.8578855 59.7768059,72.0415915 58.7692232,71.4350493 C57.7628135,70.827895 57.8730728,68.6606235 59.0161337,66.5943403 C60.1591947,64.5274451 61.9028171,63.3443512 62.9098133,63.9508934 C63.917396,64.5580477 63.8065502,66.7253192 62.6634893,68.7916023 Z" id="Stroke-60" stroke="#FEFEFE"></path>
            </g>
            <g id="Group-13-Copy" transform="translate(30.901639, 6.393443)" fill="#4C3A30" fill-rule="nonzero">
                <path d="M60.6130151,49.592579 C60.6702459,37.5464831 57.9734039,26.6941447 52.2901551,16.9150433 C51.8522809,16.1601998 51.7090202,15.3978664 52.0275093,14.5890224 C52.0960247,14.366311 52.2115959,14.1631549 52.3670061,13.9924028 C51.1336287,12.1769949 49.6065426,10.3580458 47.5180839,8.47813172 C43.9262473,5.24496073 39.583065,2.77931322 34.4031935,1.42054612 L27.5420569,-0.379244984 L34.5622758,-1.39461223 C35.3719936,-1.51172553 36.2277264,-1.39626024 37.2721411,-1.10689288 C37.5873389,-1.01956359 37.8999743,-0.922464303 38.315429,-0.786079145 C38.3068695,-0.788889064 38.9061494,-0.590609279 39.0621784,-0.540373665 C39.3132673,-0.45953225 39.5061676,-0.401708548 39.6705704,-0.358784112 C46.1809703,1.33942954 51.4842503,5.23001216 56.1812196,11.2616013 C56.5345909,11.7164586 56.8098014,12.0964442 57.3775066,12.8998601 C57.4748714,13.0376495 57.4748714,13.0376495 57.542957,13.1339017 C58.1534921,13.3319085 58.5848063,13.5216225 58.9208453,13.8368585 C59.1402436,14.0426747 59.2773038,14.2458975 59.4286143,14.5246086 C61.4927901,18.1063693 63.0816845,21.4474676 64.3095814,24.8319342 C67.0762317,32.4594729 68.4770271,40.4597467 68.5672998,48.848384 C68.6024749,52.1303316 68.2470769,55.2660836 67.4721141,58.2891574 C67.3037575,58.9461263 67.3845016,59.5895937 67.737235,60.4080784 C68.102869,61.2581069 68.24255,62.5924713 68.2654981,64.3946768 C68.2795642,65.4993488 68.2402004,66.7266471 68.1933312,67.394175 C68.0216432,69.8821618 66.9975237,72.0079343 65.1580253,73.7320164 C64.8703415,74.0016351 64.6401364,74.2408802 64.1273343,74.7926602 C63.7024111,75.2498815 63.5086454,75.4542603 63.2547758,75.7066898 C62.6360657,76.3209681 62.3191784,76.5972719 61.8203014,76.8798586 C61.2938177,77.1788341 60.5613933,77.4845445 59.6094453,77.820513 C59.0216135,78.0279751 58.3573773,78.2441447 57.5971823,78.4781515 C57.1195851,78.6251677 56.6238769,78.7733099 56.0257987,78.9488077 C55.7850212,79.0194605 54.8576602,79.2898585 54.6455423,79.352223 C54.1860743,79.4873105 53.8755631,79.5813602 53.6469705,79.6554877 C50.5965886,81.5523757 48.5225023,82.7324954 46.321732,83.6651359 C46.1697107,83.7353921 46.1697107,83.7353921 46.0166606,83.8062699 C45.7485088,84.0025396 45.5041795,84.1162834 45.2411373,84.1626088 C42.4354209,85.5304376 39.4084599,86.7097155 35.836825,87.8758478 C29.6046909,89.9111966 23.650461,91.1375268 13.5911144,92.7159036 C13.437225,92.7397363 13.437225,92.7397363 13.3781537,92.7490303 C13.1719797,92.7818307 13.0667865,92.8062338 13.0084846,92.8300399 C10.8399593,93.7154899 9.026067,93.9514677 5.23816989,94.0957496 C4.65849945,94.1177763 4.45728472,94.125681 4.20720235,94.1364745 C3.22944007,94.1783878 2.42018038,94.0395734 1.5876595,93.524094 C-0.0697139352,92.3597785 -1.09976009,90.8078242 -1.400959,88.8752156 L-1.41563388,88.5691984 C-1.49158457,87.7073611 -1.3584548,87.0935946 -0.627145558,86.5936578 C-0.172376577,86.2026665 0.253987973,86.0824873 0.931400548,86.0010506 C1.06769729,85.9847226 1.11102954,85.9788822 1.14975942,85.9718968 C3.1695847,85.6079318 5.16736622,85.3577773 7.15550191,85.2237748 C9.0325383,85.0972344 10.7468732,85.5435494 12.2604241,86.5781798 C12.78858,86.9392829 13.3509155,87.0468419 14.1278862,86.9378242 C25.1375224,85.3922559 33.7667336,83.2353313 41.6657906,79.7317446 C42.6549667,79.2929516 43.4535641,78.9139661 45.2130988,78.0602543 C45.3589138,77.9895078 45.3873838,77.9756963 45.4149694,77.9623152 C45.0037084,77.612349 44.6930126,77.262296 44.408086,76.8220158 C44.3297113,76.7397117 44.2508787,76.6561275 44.153956,76.5518356 C43.1488178,75.3871868 42.5494017,73.9808199 42.2463192,72.3113582 C41.5793774,68.6340853 42.0418215,64.9435702 43.5102276,61.1136681 C45.1325394,56.8789203 47.4465511,53.5144449 50.6752364,50.9755399 C51.6299034,50.2248866 52.3823849,49.7515416 53.2603391,49.4322614 C55.9055878,48.469353 58.3874812,48.8348217 60.5731534,50.4242009 C60.6020828,50.2019995 60.6112903,49.9368196 60.6130151,49.592579 Z M59.8456337,53.590764 C58.1258576,51.8393265 56.3432084,51.371788 54.2440349,52.1359171 C53.7141378,52.3286216 53.1886114,52.6592016 52.4535983,53.2371413 C49.6616794,55.4325912 47.6433451,58.3671641 46.1967355,62.1432734 C44.9069069,65.5074092 44.5103135,68.6724057 45.0771412,71.7976862 C45.2946239,72.995641 45.6941258,73.9329636 46.2901546,74.625658 C46.380461,74.7215375 46.4765096,74.8224937 46.5871634,74.9379913 L46.6953501,75.0509138 L46.7767445,75.1844458 C47.032827,75.6045637 47.3971832,75.9114737 48.2932458,76.4961454 C48.4505961,76.5986186 48.5381223,76.6556468 48.6147382,76.7059165 C48.7546349,76.7977064 48.8715715,76.8757452 48.9848383,76.9533629 L50.6370509,78.0855654 C51.0402028,77.83295 51.4600846,77.5648941 51.9004375,77.2796085 C52.2074886,77.0804076 52.5443259,76.9711788 53.8340131,76.5919997 C54.0500367,76.528487 54.9783767,76.2578035 55.215724,76.1881572 C55.8026651,76.0159275 56.2870268,75.8711762 56.7507503,75.7284306 C57.4765674,75.5050062 58.1054709,75.3003352 58.6519386,75.1074718 C59.4560509,74.8236785 60.0554257,74.5735023 60.4009464,74.3772917 C60.6012637,74.2638225 60.7927882,74.0968263 61.2269536,73.6657714 C61.4443843,73.4495736 61.6205933,73.2637132 62.0116665,72.8429147 C62.5776065,72.2339579 62.838648,71.9626655 63.1905937,71.6328202 C64.5039978,70.4018234 65.2018508,68.9532848 65.3232276,67.1943895 C65.3648593,66.6014425 65.4016923,65.4530515 65.3886821,64.4313081 C65.3707122,63.0200524 65.2555271,61.919697 65.0947077,61.545822 C64.5062016,60.1802503 64.3455553,58.900026 64.6851507,57.5748418 C65.3959058,54.8022376 65.7229686,51.9164926 65.6904165,48.8792804 C65.6035718,40.8091903 64.2590088,33.1300731 61.6049901,25.8130549 C60.4438181,22.6125031 58.9372147,19.4404061 57.0756666,16.2175204 C56.7228475,16.1715207 56.3929997,16.0451693 56.0976769,15.8385775 C55.8710305,15.6800279 55.7150351,15.5272867 55.5569878,15.32217 C55.5283113,15.3700216 55.4968138,15.4182109 55.4623861,15.4667856 C55.3336805,15.6483788 55.1854408,15.7876643 55.0223298,15.894155 C60.8047311,26.0204461 63.5488002,37.2365131 63.49003,49.6066211 C63.4811973,51.3694426 63.1925541,52.3022054 62.110662,53.569608 L60.9105182,52.5451298 L59.8456337,53.590764 Z M50.9170219,78.2774196 L48.8622789,79.4019154 C48.7796527,79.4471341 47.9598568,79.9091773 47.7117609,80.0396644 C47.5930444,80.1021039 47.4794067,80.1595826 47.3678556,80.2133406 C47.1445798,80.3211045 46.933705,80.4232541 46.5853071,80.5922837 L46.4689987,80.6487147 C44.6800846,81.5166813 43.8614613,81.9051702 42.8323495,82.3616785 C34.6536994,85.9892773 25.7799079,88.2073362 14.5277532,89.7869501 C14.1068271,89.8460107 13.7000258,89.8672635 13.3062913,89.8483189 C23.1261844,88.3043989 28.9287817,87.105345 34.9437512,85.1409198 C38.5183827,83.9738091 41.507375,82.8015129 44.2577471,81.4402646 L44.8361696,81.1539845 L45.4345896,81.395692 C44.7972826,81.1382777 44.0884587,81.4543192 43.8160831,82.0050758 L44.0413031,81.5496702 L44.502572,81.3367165 C44.6038622,81.2899217 44.6038622,81.2899217 44.70561,81.242829 C44.7565696,81.2192349 44.7565696,81.2192349 44.8076433,81.1955824 C44.9612069,81.1244666 44.9612069,81.1244666 45.1570777,81.0347453 C46.8826856,80.3028655 48.531753,79.4047475 50.6370509,78.0855654 L50.9170219,78.2774196 Z M10.6367208,88.9532587 C9.66614121,88.2897916 8.59311756,88.0104375 7.34899899,88.0943097 C5.46882042,88.2210358 3.57664977,88.4579661 1.66020024,88.8033032 C1.61133916,88.8121158 1.56851301,88.8191531 1.52217543,88.8259153 C1.76234685,89.7674939 2.31600473,90.5201217 3.16855535,91.1218959 C3.35097972,91.2341673 3.62765609,91.2816264 4.08356526,91.2620832 C4.3398166,91.2510233 4.54433236,91.242989 5.00198359,91.2256021 C5.06537017,91.223194 5.06537017,91.223194 5.12866182,91.2207853 C8.58900255,91.0889801 10.1631753,90.8841885 11.9208951,90.1664782 C12.2347394,90.038328 12.5176397,89.9726995 12.9261266,89.9077131 C12.9972175,89.896529 12.9972175,89.896529 13.0628783,89.8864125 C13.1046213,89.8799691 13.1046213,89.8799691 13.144514,89.8737284 C13.1985608,89.8652481 13.2524863,89.8567784 13.3062913,89.8483189 C12.3434511,89.8019919 11.4587509,89.5152852 10.6367208,88.9532587 Z" id="Fill-52"></path>
            </g>
            <g id="Group-2" transform="translate(13.852459, 55.409836)">
                <path d="M3.79670977,11.1696661 C4.05437132,10.1412562 4.78053904,8.6640664 6.20813084,7.19787648 C7.02071754,6.3633197 7.98841194,5.6332921 9.12244762,5.03760097 C11.4733551,3.80258679 12.9875953,3.1011187 13.7739778,2.93463971 C14.7339901,2.73140291 15.557076,3.39477218 14.9735473,4.41486263 C14.7421905,4.81930694 14.2080946,5.38085061 13.3089842,6.18778643 C12.2007251,7.18242953 11.1569671,7.88842229 10.0979044,8.40836425 C9.68460008,8.61127408 9.28339522,8.779715 8.83554666,8.94528315 C8.60658882,9.02992812 7.92876027,9.26549542 7.84430804,9.29614168 C7.27559699,9.50251713 6.99687828,9.65490665 6.78890728,9.87905993 C6.32665696,10.376873 5.93514184,10.8472849 5.61340086,11.2746632 C5.42444883,11.5256539 5.30309032,11.7025261 5.24830187,11.7895793 C4.76405185,12.5590027 3.5757631,12.0515351 3.79670977,11.1696661 Z" id="Stroke-1" fill="#4C3A30" fill-rule="nonzero" transform="translate(9.469009, 7.532542) rotate(32.000000) translate(-9.469009, -7.532542) "></path>
                <path d="M28.3049065,11.1696661 C28.562568,10.1412562 29.2887358,8.6640664 30.7163276,7.19787648 C31.5289143,6.3633197 32.4966087,5.6332921 33.6306443,5.03760097 C35.9815519,3.80258679 37.495792,3.1011187 38.2821746,2.93463971 C39.2421868,2.73140291 40.0652728,3.39477218 39.481744,4.41486263 C39.2503872,4.81930694 38.7162913,5.38085061 37.8171809,6.18778643 C36.7089218,7.18242953 35.6651638,7.88842229 34.6061011,8.40836425 C34.1927968,8.61127408 33.7915919,8.779715 33.3437434,8.94528315 C33.1147855,9.02992812 32.436957,9.26549542 32.3525048,9.29614168 C31.7837937,9.50251713 31.505075,9.65490665 31.297104,9.87905993 C30.8348537,10.376873 30.4433386,10.8472849 30.1215976,11.2746632 C29.9326456,11.5256539 29.811287,11.7025261 29.7564986,11.7895793 C29.2722486,12.5590027 28.0839598,12.0515351 28.3049065,11.1696661 Z" id="Stroke-1" fill="#4C3A30" fill-rule="nonzero" transform="translate(33.977206, 7.532542) scale(-1, 1) rotate(36.000000) translate(-33.977206, -7.532542) "></path>
                <g id="Stroke-3-+-Stroke-5-Mask" transform="translate(2.131148, 9.590164)">
                    <mask id="mask-4" fill="white">
                        <use xlink:href="#path-3"></use>
                    </mask>
                    <use id="Mask" fill="#FFFFFF" transform="translate(9.097456, 7.855070) rotate(25.000000) translate(-9.097456, -7.855070) " xlink:href="#path-3"></use>
                    <path d="M14.5691281,8.42086174 C14.5691281,10.2959243 13.0494424,11.81561 11.1743798,11.81561 C9.2993172,11.81561 7.77963151,10.2959243 7.77963151,8.42086174 C7.77963151,6.54649054 9.2993172,5.02611345 11.1743798,5.02611345 C13.0494424,5.02611345 14.5691281,6.54649054 14.5691281,8.42086174 Z" id="Stroke-5" fill="#4C3A30" mask="url(#mask-4)" transform="translate(11.174380, 8.420862) rotate(24.000000) translate(-11.174380, -8.420862) "></path>
                </g>
                <path d="M18.598036,19.2313724 C18.6041202,19.2328914 18.6097098,19.2342626 18.6147719,19.2355238 C18.6092171,19.2341611 18.6036388,19.232777 18.598036,19.2313724 Z M18.5801281,19.2766679 C18.3947807,19.3367684 18.1315728,19.4472648 17.5865794,19.6921489 C17.5481004,19.7094388 16.9425073,19.9826199 16.7307459,20.0774828 C16.3438652,20.2507941 15.9826308,20.4103577 15.5989038,20.5767171 C14.6058828,21.0072274 13.5476542,21.4457143 12.3416238,21.9211401 C9.29336646,23.1227848 6.50436832,22.312967 4.15903545,20.2866374 C3.23680827,19.489848 2.58586887,18.6929611 2.22410163,18.1334391 L1.28814896,16.6858618 L3.00143934,16.4957994 C3.14603243,16.4797591 3.42485756,16.4355167 3.79096741,16.35412 C4.40372296,16.217887 5.01510915,16.0274743 5.57654723,15.7775686 C5.85839972,15.6522409 6.2744661,15.4511492 6.8745608,15.1518878 C7.23946306,14.9699146 8.7134937,14.2271442 8.65105676,14.2585231 C8.72372957,14.222008 8.72372957,14.222008 8.79647077,14.1854941 C10.7888343,13.1856562 11.8546271,12.6860843 12.4616305,12.5125834 C14.0618928,12.0561239 16.3795965,13.4205614 17.2923926,15.0179057 C17.3772267,15.1664267 17.5574644,15.3856152 17.8162943,15.6491799 C17.9587883,15.7942807 18.1215417,15.9496307 18.3082421,16.1198796 C18.5394591,16.3307223 19.2958335,16.9880102 19.4067418,17.0893993 C19.6297751,17.2932897 19.7513447,17.4189916 19.8565412,17.5919233 C19.9415521,17.7339071 19.9415521,17.7339071 20.0197783,18.0623108 C19.9997694,18.6117996 19.9997694,18.6117996 19.5236976,19.1016007 C19.1775122,19.3217084 18.9351527,19.314119 18.6147719,19.2355238 C18.6644825,19.2479089 18.6633294,19.2496891 18.5801281,19.2766679 Z M5.55231673,18.6740131 C7.35217692,20.2290631 9.35079687,20.8093855 11.5600465,19.9384836 C12.7435234,19.4719485 13.7797373,19.0425836 14.7512102,18.6214152 C15.1264585,18.4587316 15.4799872,18.3025718 15.8594815,18.1325694 C16.0681587,18.0390881 16.67222,17.766598 16.7131085,17.7482254 C16.7631336,17.7257474 16.8118335,17.7039236 16.8592685,17.6827435 C16.6508902,17.492403 16.4648973,17.3146512 16.2957491,17.1424088 C15.9197094,16.75949 15.6353355,16.4136607 15.4419514,16.0750988 C14.9673249,15.2445278 13.5593149,14.4156291 13.0467645,14.561829 C12.6326446,14.6801978 11.5637393,15.1812286 9.75234424,16.0902502 C9.68019843,16.1264652 9.68019843,16.1264652 9.60804793,16.1627179 C9.67425534,16.1294441 8.19522135,16.8747357 7.82564014,17.0590422 C7.19878272,17.3716499 6.76120639,17.5831377 6.44280808,17.7247157 C5.99724867,17.9230419 5.5356436,18.0886468 5.06850231,18.2253451 C5.22212664,18.3780496 5.38352684,18.5281813 5.55231673,18.6740131 Z M19.0803952,17.1554494 C19.0919297,17.1581869 19.1035485,17.1610182 19.1152597,17.1639421 C19.1079424,17.1621076 19.1003374,17.1603372 19.0923611,17.1586529 L19.0803952,17.1554494 Z" id="Stroke-3" fill="#4C3A30" fill-rule="nonzero" transform="translate(10.653964, 17.453102) rotate(27.000000) translate(-10.653964, -17.453102) "></path>
                <path d="M12.609015,33.1006892 C12.1236285,33.6534499 11.2820439,33.7080675 10.7292832,33.222681 C10.1765226,32.7372945 10.121905,31.89571 10.6072914,31.3429493 C13.3374096,28.2338763 16.9098789,26.6645054 21.2266067,26.6645054 C25.5433345,26.6645054 29.1158038,28.2338763 31.845922,31.3429493 C32.3313084,31.89571 32.2766908,32.7372945 31.7239302,33.222681 C31.1711695,33.7080675 30.3295849,33.6534499 29.8441984,33.1006892 C27.6272062,30.5759667 24.7873732,29.3284398 21.2266067,29.3284398 C17.6658402,29.3284398 14.8260072,30.5759667 12.609015,33.1006892 Z" id="Line-2" fill="#4C3A30" fill-rule="nonzero" transform="translate(21.226607, 30.109155) scale(1, -1) translate(-21.226607, -30.109155) "></path>
                <g id="Group-3" transform="translate(23.442623, 9.590164)">
                    <mask id="mask-6" fill="white">
                        <use xlink:href="#path-5"></use>
                    </mask>
                    <use id="Stroke-3" fill="#FFFFFF" transform="translate(9.097456, 7.855070) scale(-1, 1) rotate(25.000000) translate(-9.097456, -7.855070) " xlink:href="#path-5"></use>
                    <path d="M16.0115726,8.27800389 C16.0115726,10.503838 14.2075964,12.3078141 11.9817623,12.3078141 C9.7559282,12.3078141 7.95195204,10.503838 7.95195204,8.27800389 C7.95195204,6.05299052 9.7559282,4.24819363 11.9817623,4.24819363 C14.2075964,4.24819363 16.0115726,6.05299052 16.0115726,8.27800389 Z" id="Stroke-5" fill="#4C3A30" mask="url(#mask-6)" transform="translate(11.981762, 8.278004) scale(-1, 1) rotate(13.000000) translate(-11.981762, -8.278004) "></path>
                </g>
                <path d="M40.0981086,19.2313724 C40.1041927,19.2328914 40.1097823,19.2342626 40.1148445,19.2355238 C40.1092896,19.2341611 40.1037113,19.232777 40.0981086,19.2313724 Z M40.0802007,19.2766679 C39.8948532,19.3367684 39.6316453,19.4472648 39.0866519,19.6921489 C39.0481729,19.7094388 38.4425799,19.9826199 38.2308185,20.0774828 C37.8439378,20.2507941 37.4827033,20.4103577 37.0989763,20.5767171 C36.1059553,21.0072274 35.0477268,21.4457143 33.8416963,21.9211401 C30.793439,23.1227848 28.0044409,22.312967 25.659108,20.2866374 C24.7368808,19.489848 24.0859414,18.6929611 23.7241742,18.1334391 L22.7882215,16.6858618 L24.5015119,16.4957994 C24.646105,16.4797591 24.9249301,16.4355167 25.2910399,16.35412 C25.9037955,16.217887 26.5151817,16.0274743 27.0766198,15.7775686 C27.3584723,15.6522409 27.7745386,15.4511492 28.3746333,15.1518878 C28.7395356,14.9699146 30.2135662,14.2271442 30.1511293,14.2585231 C30.2238021,14.222008 30.2238021,14.222008 30.2965433,14.1854941 C32.2889068,13.1856562 33.3546997,12.6860843 33.961703,12.5125834 C35.5619653,12.0561239 37.879669,13.4205614 38.7924651,15.0179057 C38.8772992,15.1664267 39.057537,15.3856152 39.3163668,15.6491799 C39.4588609,15.7942807 39.6216142,15.9496307 39.8083146,16.1198796 C40.0395317,16.3307223 40.795906,16.9880102 40.9068143,17.0893993 C41.1298476,17.2932897 41.2514172,17.4189916 41.3566138,17.5919233 C41.4416247,17.7339071 41.4416247,17.7339071 41.5198509,18.0623108 C41.4998419,18.6117996 41.4998419,18.6117996 41.0237701,19.1016007 C40.6775848,19.3217084 40.4352253,19.314119 40.1148445,19.2355238 C40.164555,19.2479089 40.1634019,19.2496891 40.0802007,19.2766679 Z M27.0523893,18.6740131 C28.8522495,20.2290631 30.8508694,20.8093855 33.060119,19.9384836 C34.243596,19.4719485 35.2798098,19.0425836 36.2512828,18.6214152 C36.6265311,18.4587316 36.9800598,18.3025718 37.3595541,18.1325694 C37.5682312,18.0390881 38.1722926,17.766598 38.2131811,17.7482254 C38.2632062,17.7257474 38.311906,17.7039236 38.359341,17.6827435 C38.1509627,17.492403 37.9649698,17.3146512 37.7958217,17.1424088 C37.4197819,16.75949 37.135408,16.4136607 36.9420239,16.0750988 C36.4673974,15.2445278 35.0593874,14.4156291 34.546837,14.561829 C34.1327171,14.6801978 33.0638118,15.1812286 31.2524168,16.0902502 C31.180271,16.1264652 31.180271,16.1264652 31.1081205,16.1627179 C31.1743279,16.1294441 29.6952939,16.8747357 29.3257127,17.0590422 C28.6988553,17.3716499 28.2612789,17.5831377 27.9428806,17.7247157 C27.4973212,17.9230419 27.0357161,18.0886468 26.5685748,18.2253451 C26.7221992,18.3780496 26.8835994,18.5281813 27.0523893,18.6740131 Z M40.5804677,17.1554494 C40.5920022,17.1581869 40.6036211,17.1610182 40.6153323,17.1639421 C40.608015,17.1621076 40.6004099,17.1603372 40.5924337,17.1586529 L40.5804677,17.1554494 Z" id="Stroke-3" fill="#4C3A30" fill-rule="nonzero" transform="translate(32.154036, 17.453102) scale(-1, 1) rotate(27.000000) translate(-32.154036, -17.453102) "></path>
            </g>
        </g>
        <g id="Group" transform="translate(29.000000, 9.000000)">
            <path d="M18.8896347,9.44481734 C18.8896347,14.6604183 14.6604183,18.8896347 9.44481734,18.8896347 C4.2292164,18.8896347 0,14.6604183 0,9.44481734 C0,4.2292164 4.2292164,0 9.44481734,0 C14.6604183,0 18.8896347,4.2292164 18.8896347,9.44481734 Z" id="Stroke-35" stroke="#64D136" stroke-width="1.5"></path>
            <path d="M12.8524724,6.08650627 C12.8524724,6.6853826 12.7078521,7.18413719 12.3425932,7.7199739 C11.1262995,9.53514393 10.2900976,11.0777604 9.62447341,13.1691922 C9.38900191,13.9275217 8.98295264,14.281656 8.27653815,14.281656 C7.48112656,14.281656 7.03428695,13.6790714 7.37544251,12.7779758 C8.25243477,10.4510724 9.4149594,8.51723959 10.5255691,7.01355941 L7.19188598,7.01355941 C6.61711304,7.01355941 6.25,6.55559516 6.25,5.99380096 C6.25,5.4431314 6.65604927,5 7.24565507,5 L11.5453275,5 C12.3945082,5 12.8524724,5.32817681 12.8524724,6.08650627" id="Fill-37" fill="#4C3A2E"></path>
        </g>
        <path d="M14.3002112,42.8863937 C14.3002112,42.2875355 14.5071664,41.785559 14.921083,41.3804491 C15.3349997,40.9753392 15.8369762,40.7727873 16.4270276,40.7727873 C17.017079,40.7727873 17.5190554,40.9753392 17.9329721,41.3804491 C18.3468887,41.785559 18.5538439,42.2875355 18.5538439,42.8863937 C18.5538439,43.4852518 18.3468887,43.9872283 17.9329721,44.3923382 C17.5190554,44.7974481 17.017079,45 16.4270276,45 C15.8369762,45 15.3349997,44.7974481 14.921083,44.3923382 C14.5071664,43.9872283 14.3002112,43.4852518 14.3002112,42.8863937 Z M13.573659,26.5587847 C14.6568877,25.5195897 16.1275907,25 17.9858122,25 C19.8440338,25 21.3367533,25.5019765 22.4640157,26.5059445 C23.591278,27.5099125 24.1549007,28.9145661 24.1549007,30.7199472 C24.1549007,32.5253283 23.6441177,33.8331091 22.6225362,34.6433289 C21.6009546,35.4535487 20.0862186,35.8762658 18.0782825,35.9114927 L18.0782825,38.7912814 L14.5908321,38.7912814 L14.5908321,33.4544254 L16.0967766,33.4544254 C17.6115354,33.4544254 18.7343775,33.2606801 19.4653367,32.8731836 C20.1962959,32.4856872 20.56177,31.7283192 20.56177,30.6010568 C20.56177,29.8260639 20.3372015,29.2096016 19.8880579,28.7516513 C19.4389144,28.2937009 18.822452,28.0647292 18.0386524,28.0647292 C17.2548528,28.0647292 16.6383904,28.2892976 16.1892469,28.7384412 C15.7401033,29.1875848 15.5155348,29.7996439 15.5155348,30.5746367 L12.0016643,30.5746367 C11.9664373,28.9365836 12.4904303,27.5979797 13.573659,26.5587847 Z" id="?" fill="#F08B5C"></path>
        <path d="M27.7251584,51.4147952 C27.7251584,50.9656517 27.8803748,50.5891693 28.1908123,50.2853369 C28.5012498,49.9815044 28.8777321,49.8295905 29.3202707,49.8295905 C29.7628092,49.8295905 30.1392916,49.9815044 30.4497291,50.2853369 C30.7601665,50.5891693 30.915383,50.9656517 30.915383,51.4147952 C30.915383,51.8639388 30.7601665,52.2404212 30.4497291,52.5442536 C30.1392916,52.8480861 29.7628092,53 29.3202707,53 C28.8777321,53 28.5012498,52.8480861 28.1908123,52.5442536 C27.8803748,52.2404212 27.7251584,51.8639388 27.7251584,51.4147952 Z M27.1802443,39.1690885 C27.9926658,38.3896923 29.095693,38 30.4893592,38 C31.8830253,38 33.002565,38.3764824 33.8480118,39.1294584 C34.6934585,39.8824344 35.1161756,40.9359245 35.1161756,42.2899604 C35.1161756,43.6439962 34.7330882,44.6248318 33.9669021,45.2324967 C33.200716,45.8401616 32.0646639,46.1571993 30.5587119,46.1836196 L30.5587119,48.343461 L27.943124,48.343461 L27.943124,44.340819 L29.0725824,44.340819 C30.2086515,44.340819 31.0507831,44.19551 31.5990025,43.9048877 C32.1472219,43.6142654 32.4213275,43.0462394 32.4213275,42.2007926 C32.4213275,41.619548 32.2529012,41.1572012 31.9160435,40.8137384 C31.5791858,40.4702757 31.116839,40.2985469 30.5289893,40.2985469 C29.9411396,40.2985469 29.4787928,40.4669732 29.1419351,40.8038309 C28.8050774,41.1406886 28.6366511,41.5997329 28.6366511,42.1809775 L26.0012482,42.1809775 C25.974828,40.9524377 26.3678228,39.9484847 27.1802443,39.1690885 Z" id="?" fill="#F08B5C"></path>
        <path d="M173.711316,130.812677 L170.268971,130.812677 C169.018209,130.812677 168.004029,129.828184 168.004029,128.61106 C168.004029,127.393936 169.018209,126.409442 170.268971,126.409442 L176.328379,126.409442 C177.153662,126.409442 177.828559,125.752493 177.828559,124.950382 C177.828559,124.148271 177.153662,123.489461 176.328379,123.489461 L173.485739,123.489461 L173.485739,121.460921 C173.485739,120.656949 172.810841,120 171.985559,120 C171.156608,120 170.48171,120.656949 170.48171,121.460921 L170.48171,123.489461 L170.268971,123.489461 C167.36581,123.489461 165,125.789714 165,128.61106 C165,131.432405 167.36581,133.730797 170.268971,133.730797 L173.711316,133.730797 C174.963912,133.730797 175.976258,134.717151 175.976258,135.932414 C175.976258,137.147677 174.963912,138.134032 173.711316,138.134032 L167.54187,138.134032 C166.716588,138.134032 166.038022,138.78912 166.038022,139.593092 C166.038022,140.393342 166.716588,141.052152 167.54187,141.052152 L170.494548,141.052152 L170.494548,143.13094 C170.494548,143.934912 171.169446,144.59 171.996562,144.59 C172.823679,144.59 173.498577,143.934912 173.498577,143.13094 L173.498577,141.052152 L173.749829,141.052152 C176.663994,141.014931 178.980287,138.729566 178.980287,135.932414 C178.980287,133.109208 176.614477,130.812677 173.711316,130.812677" id="Fill-50" fill="#F08B5C"></path>
    </g>
</svg>