<?xml version="1.0" encoding="UTF-8"?>
<svg width="23px" height="19px" viewBox="0 0 23 19" version="1.1" xmlns="http://www.w3.org/2000/svg" xmlns:xlink="http://www.w3.org/1999/xlink">
    <!-- Generator: Sketch 49.1 (51147) - http://www.bohemiancoding.com/sketch -->
    <title>envelope</title>
    <desc>Created with Sketch.</desc>
    <defs></defs>
    <g id="my-account" stroke="none" stroke-width="1" fill="none" fill-rule="evenodd">
        <g id="my-account---account-details" transform="translate(-956.000000, -614.000000)" fill="#AFB6D2">
            <g id="general-info" transform="translate(683.000000, 331.000000)">
                <path d="M273.038006,301.362352 C273.038006,301.381341 273.057008,301.419319 273.057008,301.438308 C273.057008,301.457297 273.076011,301.476286 273.076011,301.514264 C273.095014,301.533253 273.095014,301.552242 273.114017,301.59022 C273.133019,301.609209 273.133019,301.628198 273.152022,301.647187 C273.171025,301.666176 273.190028,301.685164 273.190028,301.704153 C273.20903,301.723142 273.228033,301.742131 273.247036,301.76112 C273.34205,301.856065 273.418061,301.894043 273.494072,301.913032 C273.608088,301.95101 273.684099,301.969999 273.760111,301.969999 L294.264091,301.969999 C294.340103,301.969999 294.416114,301.95101 294.492125,301.932021 C294.606141,301.875054 294.682152,301.837076 294.739161,301.799098 C294.796169,301.742131 294.815172,301.723142 294.834174,301.704153 C294.853177,301.685164 294.87218,301.666176 294.87218,301.647187 C294.891183,301.628198 294.891183,301.609209 294.910185,301.59022 C294.929188,301.571231 294.929188,301.552242 294.948191,301.514264 C294.967194,301.495275 294.967194,301.476286 294.967194,301.438308 C294.967194,301.419319 294.986196,301.381341 294.986196,301.362352 C294.986196,301.343363 295.005199,301.324374 295.005199,301.286396 L295.005199,301.21044 L295.005199,283.778549 C295.005199,283.341802 294.663149,283 294.226086,283 L273.779113,283 C273.34205,283 273,283.341802 273,283.778549 L273,301.172462 C273.019003,301.229429 273.019003,301.248418 273.019003,301.286396 C273.019003,301.305385 273.019003,301.324374 273.038006,301.362352 Z M275.451356,300.393913 L281.209193,293.5199 L283.603542,295.19093 C283.736561,295.285875 283.888583,295.323853 284.040605,295.323853 C284.192627,295.323853 284.344649,295.285875 284.477669,295.19093 L286.872017,293.5199 L292.629854,300.393913 L275.451356,300.393913 L275.451356,300.393913 Z M293.522984,299.026706 L288.145202,292.627417 L293.503981,288.886586 L293.503981,299.026706 L293.522984,299.026706 Z M274.577229,284.557097 L293.522984,284.557097 L293.522984,287.006677 L284.059608,293.595855 L274.577229,287.006677 L274.577229,284.557097 L274.577229,284.557097 Z M274.577229,288.886586 L279.936008,292.627417 L274.577229,299.026706 L274.577229,288.886586 L274.577229,288.886586 Z" id="envelope"></path>
            </g>
        </g>
    </g>
</svg>