<?xml version="1.0" encoding="UTF-8" standalone="no"?>
<svg width="60px" height="47px" viewBox="0 0 60 47" version="1.1" xmlns="http://www.w3.org/2000/svg" xmlns:xlink="http://www.w3.org/1999/xlink">
    <!-- Generator: Sketch 49.1 (51147) - http://www.bohemiancoding.com/sketch -->
    <title>Page 1 Copy 2</title>
    <desc>Created with Sketch.</desc>
    <defs></defs>
    <g id="symbols" stroke="none" stroke-width="1" fill="none" fill-rule="evenodd">
        <g id="footer" transform="translate(-636.000000, -417.000000)" fill="#2978BB">
            <g id="Payments">
                <g transform="translate(390.000000, 313.000000)">
                    <g id="Group-5" transform="translate(0.000000, 77.000000)">
                        <g id="diners" transform="translate(195.000000, 0.000000)">
                            <g id="Page-1-Copy-2" transform="translate(51.000000, 27.000000)">
                                <path d="M2.16151078,23.0843662 C1.9784722,35.041863 12.4273073,44.4367672 23.9835717,44.4631719 C35.0337207,44.4882339 45.9826925,35.9517041 46.0006285,23.1313575 C46.0174147,11.166924 36.3044131,1.73666434 24.0277217,1.76732057 C11.0211755,1.79999071 2.00997507,12.1414341 2.16151078,23.0843662 Z M37.0216207,0 C38.6586202,0.326253911 40.3305718,0.537043475 41.9264106,0.997558254 C51.4736198,3.75303882 57.7406213,9.68714544 59.5880232,19.3315512 C61.1512094,27.4921505 58.2603037,34.3844322 51.9857139,39.8978548 C47.991058,43.4076577 43.2706864,45.4913864 37.8786368,46.0465551 C37.5863729,46.0767638 37.3069861,46.2260171 37.0216207,46.3199997 L22.0750037,46.3199997 C21.2246561,46.1463556 20.3789076,45.9467545 19.5232712,45.8026478 C10.0590733,44.2098664 2.19439333,36.6093586 0.51945243,27.4359847 C0.374125323,26.6400416 0.17430055,25.8530491 0,25.0620288 L0,21.481739 C0.116353665,20.8712996 0.250183375,20.2637691 0.346761516,19.6504207 C1.85774953,10.0646423 8.68927332,2.89712578 18.411013,0.722099705 C19.6249082,0.450445214 20.8532902,0.239208114 22.0750037,0 L37.0216207,0 Z" id="Fill-1"></path>
                                <path d="M18.9490908,35.792727 C15.005408,35.0315802 10.7636057,29.4473073 10.5423022,24.7465004 C10.2620149,18.7979484 13.9331835,12.9958223 18.9490908,11.5799999 L18.9490908,35.792727 Z" id="Fill-4"></path>
                                <path d="M29.4763634,35.792727 L29.4763634,11.5799999 C33.0851715,12.0938959 37.4585026,17.5679082 37.8446978,22.0275753 C38.3762079,28.1678818 34.8999882,34.0036159 29.4763634,35.792727" id="Fill-6"></path>
                            </g>
                        </g>
                    </g>
                </g>
            </g>
        </g>
    </g>
</svg>