<?xml version="1.0" encoding="UTF-8" standalone="no"?>
<svg width="95px" height="30px" viewBox="0 0 95 30" version="1.1" xmlns="http://www.w3.org/2000/svg" xmlns:xlink="http://www.w3.org/1999/xlink">
    <!-- Generator: Sketch 49.1 (51147) - http://www.bohemiancoding.com/sketch -->
    <title>sofort</title>
    <desc>Created with Sketch.</desc>
    <defs></defs>
    <g id="symbols" stroke="none" stroke-width="1" fill="none" fill-rule="evenodd">
        <g id="footer" transform="translate(-1010.000000, -425.000000)">
            <g id="Payments">
                <g transform="translate(390.000000, 313.000000)">
                    <g id="Group-5" transform="translate(0.000000, 77.000000)">
                        <g id="sofort" transform="translate(586.000000, 0.000000)">
                            <g transform="translate(34.000000, 35.000000)">
                                <path d="M57.870037,3.73109198 L57.8719198,3.73109198 C59.4565652,3.73295218 59.8203064,4.64131007 58.4271223,8.40449046 C56.9975758,12.272772 55.9587187,13.2462369 54.3969027,13.2462369 L54.3932547,13.2462369 C52.8698016,13.2453068 52.3382523,12.2934667 53.7621502,8.44308957 C54.8250135,5.56908378 56.2039587,3.73109198 57.870037,3.73109198 Z M30.2008755,3.73109198 L30.2018169,3.73109198 C31.7875215,3.73295218 32.1505566,4.64131007 30.7581962,8.40449046 L30.7579609,8.40449046 C29.327473,12.272772 28.2895573,13.2462369 26.7269176,13.2462369 L26.7238579,13.2462369 C25.2014639,13.2453068 24.6673257,12.2934667 26.0920474,8.44308957 C27.1559698,5.56908378 28.5338558,3.73109198 30.2008755,3.73109198 Z M71.1815999,3.64935953 L72.0338205,3.64935953 C73.5918708,3.65040589 74.1728447,4.10057379 73.6452964,5.50548827 C73.1502271,6.82413607 72.2596437,7.63878649 70.5668526,7.63878649 L70.560145,7.63878649 L69.6840359,7.63797266 L71.1815999,3.64935953 Z M78.3686366,0.244848551 C78.6951917,0.500276978 78.9766763,0.791514215 79.2113253,1.12448964 C79.8115983,1.97971564 80.0414225,2.99596501 79.9044459,4.16044891 L82.9783003,4.16044891 L78.3456895,16.7398048 L82.9744169,16.7398048 L87.609852,4.16044891 L93.557156,4.16044891 L95,0.244848551 L78.3686366,0.244848551 Z M67.7804844,0.244616026 L61.7027937,16.7356194 L66.865071,16.7356194 L69.0739956,10.930988 C69.1822589,11.170256 70.4854198,16.7356194 70.4854198,16.7356194 L75.9128245,16.7356194 C75.9128245,16.7356194 74.9257455,12.6460905 74.1999106,10.994351 C74.0131563,10.5695283 73.8185177,10.0937827 73.5580974,9.69546782 C75.0912001,9.13252542 77.3127162,7.92444314 78.2328367,5.47619015 C78.7978065,3.97105751 78.7653275,2.75437181 78.1372826,1.86229064 C77.3760267,0.779074141 75.8266846,0.247406323 73.3993504,0.244616026 L67.7804844,0.244616026 Z M44.2365083,0.235547562 C41.5093318,0.235547562 39.479277,1.59860759 38.5207936,4.15010156 L33.8881828,16.7255045 L38.9632611,16.7255045 L41.3437596,10.2613168 L45.8288027,10.2642233 L47.1050154,6.80181369 L42.6344466,6.79890713 L43.3545153,4.79431135 C43.5039657,4.4348281 43.8629998,4.14917146 44.3877239,4.14917146 C44.6797995,4.14917146 47.9726517,4.15010156 49.6760338,4.1509154 C49.7200452,4.0884825 49.7593495,4.02151538 49.8024194,3.96001258 C50.921768,2.39523735 52.5066488,1.12948892 53.9907976,0.235547562 L44.2365083,0.235547562 Z M16.6918497,0.235547562 C15.1827532,0.235547562 13.7168444,0.235431299 12.4030926,0.8938251 C11.0902822,1.5522189 9.93068794,2.87005287 9.03822166,5.50572079 C8.8448775,6.07238358 8.74249806,6.56056928 8.72908282,6.98434561 C8.71566758,7.40916831 8.79039281,7.77051176 8.95314081,8.08453642 C9.15425169,8.46773719 9.47986538,8.82815054 9.88679423,9.13182785 C10.2946645,9.43643526 10.7819671,9.6834928 11.3076326,9.84149336 C11.3277554,9.84707395 11.6035915,9.92462095 11.9388548,10.0192585 C12.2719998,10.1137798 12.6617477,10.2272519 12.9087529,10.3010785 C13.0532608,10.3445606 13.2121255,10.4014129 13.3558097,10.4874471 C13.5003177,10.571621 13.629763,10.6850931 13.7110782,10.8421636 C13.7647391,10.9462184 13.7934524,11.0607368 13.7963944,11.1828123 C13.80016,11.3057016 13.7789781,11.438357 13.7301419,11.5783369 C13.6076396,11.93596 13.4218268,12.1667408 13.0674998,12.307767 C12.7151733,12.448677 12.1952741,12.4939031 11.4062463,12.4995999 L1.55699122,12.4995999 L0,16.7255045 L10.5424934,16.7255045 C11.5345148,16.7255045 13.3481607,16.7256208 15.090847,15.9934004 C16.8335334,15.2621101 18.5056132,13.8004596 19.2132081,10.8743683 C19.4793947,9.77510754 19.3969027,8.87918972 18.9612606,8.17545359 C18.5237356,7.47253131 17.7327073,6.96179071 16.5808798,6.63532598 C16.5808798,6.63532598 16.3234014,6.56138311 16.0197934,6.47534896 C15.7181859,6.38919854 15.3686837,6.29095684 15.1905199,6.2398014 C14.89562,6.15655754 14.6686201,5.98820963 14.5345854,5.77335677 C14.4014922,5.55966653 14.3612464,5.29947135 14.4369131,5.03357931 C14.5163454,4.75733992 14.7079244,4.53690646 14.9837605,4.38460276 C15.2613618,4.23322915 15.6252206,4.15010156 16.0503895,4.15010156 L22.1785639,4.15010156 C22.2216338,4.08859876 22.2609381,4.02151538 22.3041258,3.96001258 C23.4234743,2.39523735 24.7784132,1.12948892 26.2625621,0.235547562 L16.6918497,0.235547562 Z M59.0879992,0 C57.7894279,0 56.5285133,0.295073895 55.3459719,0.845692479 C53.654946,1.63650912 52.1229024,2.95538944 50.871402,4.7054869 C50.0575443,5.84160278 49.3621879,7.15862291 48.817341,8.63155087 C47.7889571,11.4119654 47.8013133,13.6672229 48.8527619,15.1534048 C49.4473864,15.9935167 50.6845301,16.9970934 53.2038881,17 L53.2116548,17 C57.7983713,17 61.2221987,14.0304265 63.3882887,8.1735934 C63.9626727,6.62404853 64.7163972,3.73190581 63.3365106,1.78032567 C62.501471,0.600611403 61.0747488,0.00186019792 59.0879992,0 Z M31.4188378,0 C30.1194427,0 28.8593518,0.295073895 27.675869,0.845692479 C25.9857846,1.63650912 24.4526819,2.95538944 23.2011815,4.7054869 C22.3881475,5.84160278 21.692085,7.15862291 21.1473558,8.63155087 C20.1199134,11.4119654 20.1313281,13.6672229 21.1817176,15.1534048 C21.7774012,15.9935167 23.0154864,16.9970934 25.5328438,17 L25.5424934,17 C30.1281508,17 33.5511544,14.0304265 35.7191273,8.1735934 C36.2916284,6.62404853 37.0472358,3.73190581 35.6664078,1.78032567 C34.8324272,0.600611403 33.405705,0.00186019792 31.4188378,0 Z" id="Fill-1" fill="#EE7F00"></path>
                                <path d="M11.3055358,26.1221722 L12.3038368,26.1221722 C12.6110425,26.1221722 12.8501501,26.1504635 13.0224535,26.2072868 C13.1936983,26.2642304 13.3240137,26.3445294 13.4110475,26.4492673 C13.4961995,26.5541255 13.5439504,26.6843856 13.5525362,26.8390846 C13.5621805,26.993904 13.5317187,27.1694301 13.4618564,27.366265 C13.3949345,27.5552746 13.302961,27.7218921 13.1852302,27.8678027 C13.0656175,28.0138337 12.9305976,28.1361482 12.7784061,28.2341443 C12.6262146,28.3331035 12.4607328,28.4066608 12.282784,28.4574646 C12.1047176,28.5085093 11.8990121,28.5318646 11.6655499,28.5318646 L10.449194,28.5318646 L11.3055358,26.1221722 Z M27.447008,22.6880958 L28.2020848,22.6880958 C28.3945,22.6880958 28.5430455,22.6960414 28.6472508,22.7086822 C28.7515737,22.7215637 28.8415479,22.7388997 28.919055,22.7594861 C29.172629,22.8399054 29.3275256,22.9741384 29.3830391,23.1670005 C29.4385525,23.3590198 29.4157355,23.5952217 29.3171757,23.8742818 C29.2510771,24.0575128 29.1631024,24.2241302 29.0501937,24.3720874 C28.9382259,24.5210078 28.8021474,24.6493417 28.6452514,24.7560057 C28.4872969,24.8629106 28.3093481,24.9451358 28.1083471,25.0048484 C27.9084046,25.0635979 27.6892912,25.0929726 27.450066,25.0929726 L26.592548,25.0929726 L27.447008,22.6880958 Z M12.5363581,22.6622123 L13.387172,22.6622123 C13.6475677,22.6622123 13.8465692,22.6866511 13.9853528,22.7345657 C14.1241364,22.782721 14.2283417,22.8512219 14.2991449,22.9412724 C14.369948,23.0304801 14.4062905,23.1430432 14.4092308,23.2782393 C14.4120536,23.4145188 14.3842968,23.5664489 14.3239613,23.7367983 C14.2693887,23.8905342 14.193881,24.034639 14.0981439,24.1727244 C14.0014658,24.3098467 13.8877339,24.430235 13.7547133,24.533167 C13.6226337,24.6359786 13.4732649,24.7162776 13.3076655,24.7751475 C13.1411252,24.833897 12.9373015,24.8642348 12.6932541,24.8642348 L11.7535245,24.8642348 L12.5363581,22.6622123 Z M11.8425577,21.3720108 C11.7018923,21.3720108 11.5678133,21.4142671 11.4414967,21.499502 C11.3151801,21.584737 11.2185021,21.722702 11.1495807,21.9156844 L8.52163114,29.3056002 C8.45365071,29.4976196 8.45165128,29.6359458 8.51774991,29.7211807 C8.58373092,29.8064156 8.68711293,29.8495146 8.82789594,29.8495146 L11.0300857,29.8495146 C11.3622254,29.8495146 11.6722538,29.8289282 11.9574659,29.7866719 C12.2436188,29.7456195 12.5209507,29.680971 12.7908731,29.5936895 C13.0606778,29.5065283 13.3193092,29.3950488 13.5661793,29.2597323 C13.8130495,29.1245362 14.0399254,28.9630955 14.250453,28.7758917 C14.4600397,28.5878452 14.6484561,28.3701831 14.8168782,28.126156 C14.9854179,27.8812862 15.1232606,27.609329 15.2304063,27.3075155 C15.3328474,27.0195467 15.3825978,26.7587856 15.379775,26.5275197 C15.3758938,26.2963741 15.3316712,26.0947237 15.2455784,25.9223277 C15.1594855,25.7499316 15.0369325,25.6088365 14.8770962,25.4990424 C14.7172598,25.3903317 14.5288435,25.312922 14.3097301,25.269823 C14.517435,25.200359 14.7136138,25.1081415 14.8973257,24.994495 C15.0811551,24.8808484 15.2475778,24.7497455 15.3988284,24.6017883 C15.5490205,24.4529884 15.682041,24.2884176 15.7977724,24.1071128 C15.9136214,23.9259284 16.0073591,23.7329459 16.0811026,23.5272023 C16.2121237,23.1608607 16.2610508,22.8413501 16.2294129,22.570958 C16.1978925,22.2996027 16.0925111,22.0753193 15.9145623,21.8989504 C15.7364959,21.7216185 15.4866855,21.5895525 15.1651309,21.502271 C14.8445173,21.4151098 14.4302836,21.3720108 13.9231354,21.3720108 L11.8425577,21.3720108 Z M46.9540998,21.3715293 C46.8133168,21.3715293 46.6793554,21.4137856 46.5529212,21.4990205 C46.4266046,21.5852185 46.3289856,21.7231835 46.2610052,21.9152029 L43.6330556,29.3051187 C43.5651928,29.4982215 43.5631934,29.6363069 43.6282335,29.7215418 C43.695273,29.8067768 43.798655,29.8499962 43.9393204,29.8499962 L48.0994173,29.8499962 C48.1387001,29.8499962 48.1779829,29.8371146 48.2182066,29.8125554 C48.2592536,29.7890797 48.2985364,29.7518797 48.3378193,29.6990292 C48.3800424,29.6460584 48.4200309,29.5775574 48.4602546,29.4923225 C48.5014192,29.4070876 48.5443481,29.3012663 48.5893939,29.1748585 L48.5896291,29.1748585 C48.634675,29.0485712 48.666901,28.9417868 48.6870129,28.857515 C48.7051253,28.77228 48.7148872,28.702816 48.7111236,28.6498451 C48.7091242,28.5979578 48.6957163,28.5599151 48.6718408,28.5353559 C48.6489062,28.5128432 48.6172682,28.5000821 48.5790439,28.5000821 L45.596961,28.5000821 L46.4468341,26.1088091 L48.9492903,26.1088091 C48.9885731,26.1088091 49.0267974,26.098215 49.0669035,26.075582 C49.1071273,26.0541528 49.1465277,26.0176752 49.1856929,25.967714 C49.2249757,25.9177529 49.2642585,25.8512986 49.3044822,25.7681102 C49.3447059,25.6848015 49.3877524,25.5798229 49.4326806,25.4534152 C49.4757271,25.3311007 49.5072474,25.2270852 49.5264184,25.1418503 C49.5465302,25.0576988 49.5549984,24.9902814 49.5512347,24.9392367 C49.5482944,24.8892756 49.5341808,24.8509921 49.5112463,24.8275164 C49.4873708,24.8040407 49.4564385,24.7912795 49.4182142,24.7912795 L46.9156403,24.7912795 L47.6516638,22.7214433 L50.6078718,22.7214433 C50.6460961,22.7214433 50.6853789,22.7096453 50.7245441,22.6852065 C50.7619451,22.6607676 50.8020512,22.6234473 50.8412164,22.5704764 C50.8814402,22.518589 50.9227224,22.4490046 50.9618876,22.3637697 C51.0039931,22.2796183 51.0463339,22.1757232 51.0903212,22.0522047 C51.1371313,21.9219446 51.1687692,21.8141971 51.1887635,21.727999 C51.2088753,21.6438476 51.2174611,21.5734205 51.2154617,21.5185234 C51.2134622,21.4645894 51.2012305,21.4265467 51.1791192,21.4048768 C51.1571255,21.3834477 51.127487,21.3715293 51.0882042,21.3715293 L46.9540998,21.3715293 Z M26.731214,21.3715293 C26.5905486,21.3715293 26.4567048,21.4137856 26.3303882,21.4990205 C26.2040716,21.5852185 26.106335,21.7231835 26.0384722,21.9152029 L23.3013776,29.6139147 C23.2860879,29.6579768 23.2840884,29.6972234 23.2974964,29.7314137 C23.3109043,29.7666875 23.3452473,29.7950991 23.4026426,29.8165282 C23.4582736,29.8381981 23.538721,29.8567379 23.6429264,29.8694991 C23.7463084,29.8822602 23.8793289,29.889002 24.041988,29.889002 C24.2075874,29.889002 24.3474295,29.8822602 24.4584564,29.8694991 C24.5704241,29.8567379 24.6621624,29.8381981 24.7329656,29.8165282 C24.8047096,29.7950991 24.861164,29.7666875 24.9013877,29.7314137 C24.9405529,29.6972234 24.9693681,29.6579768 24.9847755,29.6139147 L26.1330332,26.3831741 L26.6586467,26.3831741 C26.8367131,26.3831741 26.9847881,26.4114653 27.101578,26.4692517 C27.2173094,26.526075 27.3084597,26.6093837 27.3734998,26.7211041 C27.4385399,26.832704 27.4833505,26.9710302 27.5101663,27.1375272 C27.5369821,27.3030611 27.5562707,27.4929135 27.5706195,27.7074455 L27.6395408,29.60007 C27.637659,29.6529205 27.6431869,29.6980661 27.654713,29.734303 C27.6681209,29.771503 27.7008173,29.8029243 27.7543313,29.8265204 C27.8070221,29.8510797 27.8853525,29.8666098 27.9887345,29.8753981 C28.0929398,29.8841864 28.2337228,29.889002 28.413671,29.889002 C28.6270214,29.889002 28.7975605,29.8841864 28.9238771,29.8753981 C29.0511346,29.8666098 29.1495769,29.851802 29.2213209,29.8302525 C29.2941235,29.8077399 29.3439915,29.7802913 29.3726891,29.7479069 C29.4013867,29.7156428 29.4244389,29.6745904 29.4416105,29.6265555 C29.4570178,29.5835768 29.4673677,29.5226604 29.4731308,29.4462138 C29.4788938,29.3698876 29.4797171,29.2485362 29.474895,29.0830023 L29.3706897,27.4126145 C29.3610454,27.2118068 29.3419921,27.0317059 29.3131768,26.872071 C29.2855377,26.7132788 29.2442555,26.5701371 29.1926233,26.445776 C29.1409911,26.3212945 29.0770095,26.215714 28.9985615,26.1285528 C28.9209368,26.0403082 28.8320212,25.9668713 28.7286392,25.9060752 C29.0147921,25.8228869 29.2816565,25.7130928 29.530526,25.5778967 C29.7793956,25.4425802 30.0041544,25.2830657 30.2060963,25.0988716 C30.4080382,24.915761 30.5851637,24.7080912 30.739237,24.4739359 C30.8923694,24.2407438 31.0196269,23.9821497 31.1210095,23.6979129 C31.2407397,23.360946 31.2971941,23.0634665 31.2923719,22.8028258 C31.285668,22.5431483 31.2236858,22.3187445 31.105955,22.1286513 C30.9882242,21.9386786 30.8167441,21.7849427 30.5909267,21.6673233 C30.3668736,21.5488612 30.0969513,21.4655525 29.7802189,21.417638 C29.6702505,21.4048768 29.5468743,21.3940419 29.4080907,21.3851331 C29.270248,21.3763448 29.0931225,21.3715293 28.8758909,21.3715293 L26.731214,21.3715293 Z M19.7859187,21.3715293 C19.6441948,21.3715293 19.5111743,21.4137856 19.3839168,21.4990205 C19.2574826,21.5852185 19.1610398,21.7231835 19.0921184,21.9152029 L16.4641688,29.3051187 C16.396306,29.4982215 16.3951299,29.6363069 16.4612285,29.7215418 C16.5272095,29.8067768 16.6307091,29.8499962 16.7704336,29.8499962 L20.9305305,29.8499962 C20.9696957,29.8499962 21.0089785,29.8371146 21.0502607,29.8125554 C21.0894259,29.7890797 21.1307082,29.7518797 21.1698734,29.6990292 C21.211038,29.6460584 21.2502032,29.5775574 21.2923087,29.4923225 C21.3325325,29.4070876 21.3755789,29.3012663 21.4205071,29.1748585 C21.4654354,29.0485712 21.4970733,28.9417868 21.5181261,28.857515 C21.537297,28.77228 21.5457652,28.702816 21.5429425,28.6498451 C21.5410607,28.5979578 21.5265942,28.5599151 21.5036597,28.5353559 C21.4807251,28.5128432 21.4492048,28.5000821 21.4108628,28.5000821 L18.4288975,28.5000821 L19.278653,26.1088091 L21.7813445,26.1088091 C21.8196864,26.1088091 21.8588516,26.098215 21.8989577,26.075582 C21.9382405,26.0541528 21.9776409,26.0176752 22.0168061,25.967714 C22.0560889,25.9177529 22.096195,25.8512986 22.1353602,25.7681102 C22.1765248,25.6848015 22.2186304,25.5798229 22.2635586,25.4534152 C22.307546,25.3311007 22.3393015,25.2270852 22.3584725,25.1418503 C22.3784667,25.0576988 22.3861116,24.9902814 22.382348,24.9392367 C22.3794076,24.8892756 22.3661173,24.8509921 22.3421242,24.8275164 C22.3181312,24.8040407 22.2884926,24.7912795 22.2493274,24.7912795 L19.7476944,24.7912795 L20.4825418,22.7214433 L23.439926,22.7214433 C23.4790911,22.7214433 23.5174331,22.7096453 23.5556573,22.6852065 C23.5939993,22.6607676 23.6330468,22.6234473 23.6732706,22.5704764 C23.7134943,22.518589 23.7527771,22.4490046 23.7939417,22.3637697 C23.8351063,22.2796183 23.8772119,22.1757232 23.9211992,22.0522047 C23.9681269,21.9219446 24.0004705,21.8141971 24.0205824,21.727999 C24.0397533,21.6438476 24.0493976,21.5734205 24.0475158,21.5185234 C24.0445755,21.4645894 24.0332846,21.4265467 24.0102324,21.4048768 C23.9891796,21.3834477 23.9586002,21.3715293 23.9202583,21.3715293 L19.7859187,21.3715293 Z M79.5443675,21.3451642 C79.3904118,21.3451642 79.2630367,21.3511836 79.1596547,21.3618982 C79.0581545,21.3727331 78.9731202,21.3911526 78.9032579,21.417638 C78.8343366,21.4441234 78.780705,21.474702 78.7434216,21.5088923 C78.7051973,21.5441661 78.6782639,21.5832923 78.6629741,21.6273544 L77.2474992,25.6043821 C77.1412944,25.9061956 77.0323846,26.2225761 76.9204168,26.5536439 C76.808449,26.8857953 76.7041261,27.2050651 76.6093299,27.5106106 L76.6025083,27.5106106 C76.5872186,27.3353252 76.5720465,27.1611233 76.5519346,26.9868011 C76.5327637,26.8115157 76.5134751,26.6340633 76.4924223,26.4527585 C76.4713696,26.2704906 76.4465532,26.0903897 76.419855,25.9090849 C76.3920983,25.7269374 76.3652825,25.5428637 76.3384667,25.3546968 L75.8274373,22.2561425 C75.8073254,22.0856727 75.7785102,21.9428922 75.7431086,21.827199 C75.7066485,21.7116262 75.6570157,21.6215758 75.5937398,21.5558438 C75.5286997,21.4902321 75.4463705,21.4420768 75.3459288,21.4136652 C75.2454871,21.3852535 75.1134075,21.3715293 74.9516893,21.3715293 L74.0492431,21.3715293 C73.8788216,21.3715293 73.7163977,21.423537 73.5622068,21.5252651 C73.4081335,21.6281971 73.2951072,21.7820534 73.2224223,21.987797 L70.5129667,29.6070526 C70.4967361,29.650272 70.4937958,29.6903613 70.5015583,29.725635 C70.5120258,29.7599457 70.5399002,29.7893205 70.5857693,29.8127962 C70.6337555,29.8373554 70.7035001,29.856136 70.7973555,29.8697399 C70.8912108,29.882501 71.0116468,29.8892428 71.1610155,29.8892428 C71.3141479,29.8892428 71.4424639,29.882501 71.5466692,29.8697399 C71.6491104,29.856136 71.7333214,29.8373554 71.79942,29.8127962 C71.865401,29.7893205 71.9159747,29.7599457 71.9532581,29.725635 C71.9877188,29.6903613 72.0138289,29.650272 72.0291186,29.6070526 L73.6072527,25.1715862 C73.7249835,24.8395552 73.8358928,24.5171553 73.9372754,24.2055904 C74.0406574,23.8930624 74.1390996,23.5795712 74.2338959,23.2651169 L74.2462453,23.2651169 C74.2520083,23.5227479 74.2694151,23.7884449 74.2961133,24.0617264 C74.3219882,24.3340447 74.3535085,24.588666 74.3889101,24.8247475 L75.0406049,28.7881713 C75.0702434,29.0065557 75.1029399,29.1849712 75.1382238,29.3220934 C75.1756248,29.4593361 75.2253752,29.5688895 75.2875926,29.6491885 C75.3516918,29.730571 75.4311984,29.7864311 75.5288173,29.816769 C75.6273772,29.8481903 75.7508711,29.8626369 75.9011807,29.8626369 L76.6169747,29.8626369 C76.6982455,29.8626369 76.7824565,29.8510797 76.8705488,29.8265204 C76.9575826,29.8029243 77.0399118,29.7639185 77.1165957,29.7119108 C77.1921033,29.6590603 77.2610247,29.5935691 77.3232421,29.516039 C77.3855771,29.4367031 77.4342689,29.3476158 77.4696705,29.24661 L80.1798317,21.6273544 C80.1950038,21.5832923 80.1990027,21.5441661 80.189476,21.5088923 C80.1807726,21.474702 80.1539568,21.4441234 80.1099695,21.417638 C80.0659821,21.3911526 79.9970608,21.3727331 79.9022645,21.3618982 C79.8084092,21.3511836 79.6889142,21.3451642 79.5443675,21.3451642 Z M65.1523918,21.3325234 C64.9858515,21.3325234 64.8471856,21.3392652 64.7352178,21.3520264 C64.6243085,21.3647875 64.5315117,21.3824846 64.4577682,21.4040341 C64.3840247,21.4265467 64.3273352,21.4550787 64.2891109,21.4893894 C64.2508866,21.5246632 64.2250117,21.5637894 64.2087811,21.6078515 L62.376132,26.7633604 C62.1837168,27.3051077 62.09092,27.7783542 62.0995058,28.1818958 C62.1062097,28.5865209 62.2047696,28.9234878 62.3942445,29.1937595 C62.5846602,29.4651148 62.862345,29.6668856 63.2298863,29.8001554 C63.5955458,29.9333049 64.0393004,30 64.5599741,30 C65.1140499,30 65.63096,29.9254796 66.11141,29.7775224 C66.590919,29.6287225 67.0252646,29.4132274 67.4166814,29.129111 C67.8080981,28.8449946 68.1507054,28.4983966 68.4465026,28.0869094 C68.7422999,27.6765057 68.9815251,27.2110845 69.1671188,26.6918497 L70.9749514,21.6078515 C70.9912997,21.5637894 70.9911821,21.5246632 70.9776565,21.4893894 C70.9642486,21.4550787 70.9310817,21.4265467 70.8745098,21.4040341 C70.8180554,21.3824846 70.7405483,21.3647875 70.639989,21.3520264 C70.5404882,21.3392652 70.4085262,21.3325234 70.246808,21.3325234 C70.0850899,21.3325234 69.9472472,21.3392652 69.83328,21.3520264 C69.7203713,21.3647875 69.6285154,21.3824846 69.5558304,21.4040341 C69.4839688,21.4265467 69.4284553,21.4550787 69.3910543,21.4893894 C69.35283,21.5246632 69.3269551,21.5637894 69.3107245,21.6078515 L67.4961879,26.711473 C67.3898656,27.0082302 67.2559041,27.2736864 67.0951269,27.5078417 C66.9323502,27.7419969 66.7507554,27.9369056 66.5488135,28.0965405 C66.3468716,28.2562958 66.1266997,28.3769248 65.8874744,28.4601132 C65.64919,28.5433015 65.3964393,28.5854374 65.1333385,28.5854374 C64.8730605,28.5854374 64.6519476,28.544385 64.4691767,28.464086 C64.2874643,28.3828239 64.1486807,28.2621948 64.0538845,28.1006337 C63.9600291,27.9389522 63.9159242,27.7342921 63.9236866,27.4873756 C63.9294497,27.2415427 63.9935489,26.9497215 64.1131615,26.6126342 L65.8922966,21.6078515 C65.9086448,21.5637894 65.9075863,21.5246632 65.8922966,21.4893894 C65.8779477,21.4550787 65.84137,21.4265467 65.7859742,21.4040341 C65.7294023,21.3824846 65.650131,21.3647875 65.5486308,21.3520264 C65.4461896,21.3392652 65.31411,21.3325234 65.1523918,21.3325234 Z M3.05426346,21.3322827 C2.88772315,21.3322827 2.74905718,21.3392652 2.6370894,21.3520264 C2.52606253,21.3657506 2.43303048,21.3834477 2.35940461,21.4048768 C2.28566113,21.4265467 2.22920679,21.4547176 2.1919234,21.4899914 C2.15358149,21.5244224 2.12676568,21.5635486 2.11053506,21.6076107 L0.277886016,26.7640827 C0.0855884175,27.3058301 -0.00720840531,27.7781134 0.000436453348,28.181655 C0.00902221769,28.5862801 0.106523569,28.9231266 0.296939356,29.1935187 C0.486531851,29.464874 0.765039933,29.6666448 1.1315227,29.7999146 C1.49706455,29.9330641 1.94117203,29.9997592 2.46184572,29.9997592 C3.01686245,29.9997592 3.53353729,29.9252389 4.01304635,29.7772816 C4.4925554,29.6284817 4.92807712,29.4132274 5.31855298,29.129111 C5.70996974,28.8459577 6.05351793,28.4981559 6.34837425,28.0866686 C6.64405386,27.6762649 6.88422003,27.2119272 7.06899039,26.6916089 L8.87682304,21.6076107 C8.89305366,21.5635486 8.89293605,21.5244224 8.87952814,21.4899914 C8.86706114,21.4547176 8.83260047,21.4264263 8.77614613,21.4048768 C8.71969179,21.3834477 8.6423023,21.3657506 8.54186062,21.3520264 C8.44235984,21.3392652 8.3111035,21.3322827 8.14832682,21.3322827 C7.98660865,21.3322827 7.8490012,21.3392652 7.73515161,21.3520264 C7.62224293,21.3657506 7.53015178,21.3834477 7.45734921,21.4048768 C7.38560515,21.4264263 7.33115023,21.4547176 7.29292594,21.4899914 C7.25458403,21.5244224 7.22870912,21.5635486 7.2124785,21.6076107 L5.3979419,26.711473 C5.29267807,27.0082302 5.15777572,27.2736864 4.99688085,27.5078417 C4.83422178,27.7419969 4.65239176,27.9376279 4.45044987,28.0962997 C4.24850799,28.256055 4.02857129,28.3766841 3.78934602,28.4608355 C3.55200256,28.5430607 3.30019268,28.5851966 3.03603341,28.5851966 C2.77481447,28.5851966 2.55358402,28.5452277 2.37081309,28.4638452 C2.18898307,28.3825831 2.05114039,28.261954 1.95646175,28.1003929 C1.86260641,27.9387114 1.81873668,27.734894 1.82544064,27.4871349 C1.8322622,27.2413019 1.8954205,26.9493603 2.01503313,26.6123934 L3.79510907,21.6076107 C3.81039878,21.5635486 3.81039878,21.5244224 3.79510907,21.4899914 C3.77970174,21.4547176 3.74418255,21.4264263 3.68772821,21.4048768 C3.63127386,21.3834477 3.55188495,21.3657506 3.45050236,21.3520264 C3.34806125,21.3392652 3.21598162,21.3322827 3.05426346,21.3322827 Z M54.2605853,21.3320419 C54.0979262,21.3320419 53.9609068,21.338904 53.8497623,21.3515448 C53.7388531,21.3652691 53.6460563,21.3829661 53.5723128,21.4043953 C53.4985693,21.4259448 53.4414093,21.4545972 53.4011856,21.4897506 C53.3609618,21.5250244 53.3332051,21.5643913 53.3168569,21.60737 L50.4707348,29.6134331 C50.4554451,29.6574953 50.4543866,29.6968622 50.4707348,29.732136 C50.4850836,29.7664467 50.5203676,29.7948583 50.5768219,29.8164078 C50.6343348,29.8389204 50.7137237,29.8566175 50.8180466,29.8692583 C50.9214286,29.8818991 51.0553901,29.8887612 51.2171083,29.8887612 C51.3836486,29.8887612 51.5224321,29.8818991 51.6345175,29.8692583 C51.7455444,29.8566175 51.8371651,29.8389204 51.9080859,29.8164078 C51.9807708,29.7948583 52.0364019,29.7664467 52.0775665,29.732136 C52.1168493,29.6968622 52.1444884,29.6574953 52.1597781,29.6134331 L55.0068411,21.60737 C55.0231893,21.5642709 55.0230717,21.5250244 55.007782,21.4897506 C54.9924923,21.4545972 54.956385,21.4259448 54.8998131,21.4043953 C54.8444173,21.3829661 54.7649107,21.3652691 54.6634105,21.3515448 C54.561087,21.338904 54.4261847,21.3320419 54.2605853,21.3320419 Z M34.286569,21.3315603 C34.0683965,21.3315603 33.8970341,21.3374594 33.771776,21.3492574 C33.6464003,21.359972 33.5487814,21.3893467 33.4779782,21.4373817 C33.4070574,21.4852962 33.3583656,21.5539175 33.3315498,21.6440884 C33.3039107,21.7331757 33.2817994,21.8566941 33.2635693,22.0144028 L32.5151965,29.4102177 C32.5028471,29.516039 32.5055522,29.5993477 32.5209595,29.6630331 C32.5371901,29.7257554 32.5821184,29.77367 32.6557443,29.8068972 C32.7294877,29.8392816 32.8376919,29.8616738 32.9812976,29.8725088 C33.1249034,29.8833437 33.3201413,29.8882797 33.5670114,29.8882797 C33.8024731,29.8882797 33.9927712,29.8833437 34.1393173,29.8725088 C34.2857457,29.8616738 34.4081811,29.8384389 34.5038006,29.8031651 C34.5985969,29.7688545 34.6770449,29.7199768 34.7383214,29.656171 C34.798657,29.5935691 34.8580516,29.5111031 34.9154469,29.4102177 L38.0801831,24.0381303 L38.0926501,24.0381303 L37.5079949,29.4102177 C37.4917642,29.516039 37.4917642,29.5993477 37.5079949,29.6630331 C37.5234022,29.7257554 37.5682128,29.77367 37.6419563,29.8068972 C37.7155822,29.8392816 37.8236687,29.8616738 37.9671568,29.8725088 C38.1107626,29.8833437 38.3041187,29.8882797 38.5472252,29.8882797 C38.7644568,29.8882797 38.9462868,29.8833437 39.0907158,29.8725088 C39.2352625,29.8616738 39.3587563,29.8392816 39.459198,29.8068972 C39.5605806,29.77367 39.6458502,29.7257554 39.7118312,29.6630331 C39.7798116,29.5993477 39.8459103,29.516039 39.90801,29.4102177 L44.4320022,22.0339057 C44.5277393,21.8722242 44.5956021,21.7440107 44.6358259,21.6508301 C44.674991,21.5558438 44.6796956,21.4852962 44.650057,21.4373817 C44.6194776,21.3893467 44.555496,21.359972 44.4550543,21.3492574 C44.3535541,21.3374594 44.2091251,21.3315603 44.022473,21.3315603 C43.821472,21.3315603 43.6633998,21.3374594 43.5486093,21.3492574 C43.4337012,21.359972 43.3409044,21.3794749 43.2710422,21.4080069 C43.2021208,21.4364186 43.146725,21.4755448 43.1083831,21.5255059 C43.0692179,21.5764302 43.0299351,21.6360224 42.9926517,21.7056068 L39.2382028,28.1788861 L39.2258534,28.1788861 L39.9561138,21.7312495 C39.9694041,21.6451719 39.9711683,21.5745039 39.9607007,21.5215331 C39.9491747,21.4706088 39.9157725,21.4295564 39.8593182,21.4011448 C39.8028638,21.3727331 39.7165357,21.354073 39.5979816,21.3451642 C39.478369,21.3363759 39.3175917,21.3315603 39.1128271,21.3315603 C38.9204119,21.3315603 38.7644568,21.3374594 38.6457851,21.3492574 C38.5261724,21.359972 38.4285535,21.3794749 38.3529282,21.4080069 C38.276362,21.4364186 38.2150855,21.4763875 38.1690987,21.5283952 C38.1222887,21.5812457 38.0764195,21.6499874 38.0294918,21.7312495 L34.227292,28.1788861 L34.220588,28.1788861 L35.0762241,21.6861039 C35.0935133,21.6029156 35.0990411,21.5392302 35.093278,21.4931214 C35.0884559,21.4470127 35.0609344,21.4119797 35.0091846,21.388504 C34.9575524,21.3640652 34.8752232,21.3492574 34.7604327,21.3423953 C34.6445836,21.3355332 34.48757,21.3315603 34.286569,21.3315603 Z M86.6112749,21.2269429 C85.9585216,21.2269429 85.3308199,21.3296341 84.7260527,21.5353777 C84.121168,21.7411214 83.5632109,22.0359523 83.0493588,22.42276 C82.5373885,22.809688 82.0789322,23.279082 81.6779888,23.8315439 C81.2770454,24.384969 80.9534914,25.0080988 80.7055628,25.7027394 C80.4672784,26.3747469 80.3486067,26.97717 80.3534288,27.5071193 C80.3554282,28.0380318 80.4731591,28.4886452 80.7037986,28.8570334 C80.9352614,29.2262644 81.2778686,29.507371 81.7324437,29.7022797 C82.1850193,29.8963457 82.7429764,29.9931379 83.4043155,29.9931379 C83.6310738,29.9931379 83.8600667,29.9824233 84.0915295,29.9609942 C84.3231099,29.9383612 84.5564545,29.9060971 84.7919161,29.8628777 C85.0283187,29.8188156 85.2581349,29.7668078 85.4850108,29.705169 C85.7118867,29.6434098 85.9041843,29.5858642 86.0629621,29.5290409 C86.2218575,29.4711342 86.3413526,29.3937245 86.4218,29.2957284 C86.500248,29.1978527 86.5644648,29.0833634 86.610334,28.9520198 L87.8104592,25.5782579 C87.8410386,25.4901336 87.8583278,25.4126036 87.8602096,25.3450657 C87.8631499,25.2774075 87.8536232,25.2197415 87.8297477,25.1717066 C87.8057546,25.123792 87.7722349,25.0873144 87.727189,25.0638386 C87.6822608,25.0393998 87.6256888,25.0266386 87.5577084,25.0266386 L84.7605134,25.0266386 C84.7222891,25.0266386 84.6839472,25.0393998 84.6456053,25.0638386 C84.607381,25.0873144 84.5691567,25.1246347 84.528933,25.175559 C84.4907087,25.2255201 84.4503674,25.2911318 84.4101437,25.3754036 C84.3700376,25.4576288 84.3278144,25.5605608 84.284768,25.6820326 C84.2005569,25.9190772 84.162215,26.0855742 84.1698599,26.1835703 C84.1785632,26.2825295 84.2205512,26.3314071 84.2971174,26.3314071 L85.8658424,26.3314071 L85.1661614,28.2966258 C84.977745,28.3839074 84.7833304,28.4493986 84.5843288,28.4934607 C84.3861506,28.5366801 84.1920888,28.5590724 84.0044957,28.5590724 C83.6197829,28.5590724 83.2914068,28.4955073 83.0185442,28.3690996 C82.7457991,28.2417288 82.5403288,28.0546453 82.4034271,27.8048396 C82.2655844,27.5569601 82.1993681,27.2474417 82.2041903,26.8790535 C82.2099533,26.5098226 82.2988689,26.0817218 82.4711723,25.5978812 C82.6281859,25.1560561 82.8338914,24.7534776 83.0874655,24.3890622 C83.3402163,24.0245264 83.628251,23.7119983 83.9507465,23.451478 C84.2741828,23.1919209 84.6236116,22.9911132 84.9977393,22.8491753 C85.3729254,22.7080802 85.7605785,22.6365696 86.161522,22.6365696 C86.5365905,22.6365696 86.852382,22.6756958 87.1088964,22.7540686 C87.3634114,22.8325618 87.5779379,22.9186394 87.7511821,23.009653 C87.922427,23.10175 88.056506,23.1868645 88.1522432,23.2653577 C88.2478627,23.3437305 88.3233704,23.3828567 88.3798247,23.3828567 C88.4172257,23.3828567 88.4545091,23.3721421 88.4899107,23.350713 C88.5262532,23.32808 88.5627133,23.2897965 88.6019961,23.2358626 C88.6402204,23.1809655 88.6804441,23.107649 88.7234905,23.015552 C88.7674779,22.924418 88.8114652,22.815587 88.8565111,22.6883366 C88.9340182,22.4698318 88.9800049,22.3055017 88.9934128,22.1937814 C89.0087026,22.0830242 88.9970589,21.9968261 88.9617749,21.9351873 C88.9253148,21.8734281 88.8498071,21.8017971 88.7350166,21.7186087 C88.6191676,21.6362631 88.4630949,21.5580107 88.2689155,21.4865001 C88.0755594,21.4140263 87.8399801,21.3533506 87.5634714,21.3033895 C87.2868452,21.2524652 86.9691719,21.2269429 86.6112749,21.2269429 Z M60.0313951,21.2212847 C59.6505635,21.2212847 59.2736132,21.2713662 58.898427,21.3712885 C58.5233585,21.4721739 58.1748705,21.6239835 57.853316,21.8267174 C57.530703,22.0305349 57.2427859,22.2852765 56.9854481,22.5928686 C56.7289337,22.9014239 56.5287561,23.2589771 56.3842094,23.6645653 C56.2578928,24.0191089 56.2016737,24.3217651 56.2140231,24.5754233 C56.2255492,24.8282387 56.2808274,25.0486697 56.3793873,25.2338269 C56.4770062,25.4199472 56.6073217,25.578619 56.7699807,25.7118889 C56.9316989,25.8450384 57.1038846,25.9644636 57.288655,26.0683587 C57.4733077,26.1732169 57.653256,26.2741023 57.8302638,26.3671624 C58.0053899,26.4611857 58.1567581,26.561108 58.2821338,26.6688555 C58.4093913,26.77564 58.4981893,26.8980749 58.5518209,27.0351972 C58.6054525,27.1732826 58.5980429,27.3379738 58.5299448,27.5298727 C58.4706678,27.6954066 58.3873976,27.8463736 58.2791935,27.9815696 C58.1709893,28.1177288 58.0437318,28.2314958 57.8991852,28.3225093 C57.7527567,28.4146064 57.5910386,28.486117 57.4101494,28.5360782 C57.2303189,28.5860393 57.0379036,28.6115617 56.833139,28.6115617 C56.5211112,28.6115617 56.2598923,28.5752044 56.0493646,28.5026102 C55.838837,28.43122 55.6628876,28.3510414 55.5230455,28.2637598 C55.3842619,28.1764783 55.2722941,28.0971424 55.1899649,28.0246687 C55.1057538,27.953158 55.0338921,27.9169211 54.9735566,27.9169211 C54.931451,27.9169211 54.890404,27.9287192 54.849357,27.953158 C54.8091333,27.9766337 54.7689096,28.016723 54.7296268,28.0735463 C54.690344,28.1303696 54.6501202,28.20489 54.6090732,28.2968666 C54.5679086,28.3880006 54.5219218,28.5027306 54.4751118,28.6369636 C54.4033677,28.838614 54.3600861,28.9924703 54.3457373,29.0992547 C54.3304475,29.2059187 54.3420912,29.2883847 54.3774928,29.3450876 C54.4110126,29.4019109 54.4798163,29.4675225 54.5794347,29.5419225 C54.677877,29.6154797 54.8099566,29.68687 54.9735566,29.7545282 C55.1372742,29.8220661 55.333453,29.8800932 55.5611522,29.9280078 C55.7899099,29.9760427 56.0473652,29.9995184 56.3335181,29.9995184 C56.7556319,29.9995184 57.1729236,29.9425748 57.5844522,29.8300117 C57.9959808,29.7162448 58.3806937,29.5468584 58.7376498,29.3216119 C59.0955468,29.0973285 59.4141609,28.8170645 59.6964326,28.4800976 C59.9778811,28.1440939 60.198053,27.753193 60.3569484,27.3075155 C60.477502,26.9665758 60.5320745,26.6709021 60.5186666,26.4201333 C60.5051411,26.1693645 60.4486867,25.9498966 60.3481274,25.7647394 C60.2476858,25.578619 60.1147828,25.4200676 59.9482425,25.2858347 C59.7827607,25.1535279 59.6064585,25.0339823 59.4216882,24.9291241 C59.2379763,24.8242659 59.055323,24.7254271 58.8754924,24.6314038 C58.6956618,24.5373806 58.5404124,24.4362544 58.4103322,24.32947 C58.2793111,24.2228059 58.1881608,24.100371 58.1365286,23.9631283 C58.0857197,23.8261265 58.0934822,23.6623984 58.1604041,23.4743518 C58.20545,23.3479441 58.2706077,23.2285189 58.3568182,23.1139092 C58.4410292,23.0002627 58.5433527,22.9033501 58.6639063,22.8230511 C58.7844598,22.7427521 58.9204207,22.6790667 59.0735531,22.6330783 C59.2265679,22.5869696 59.3951076,22.5643366 59.5788194,22.5643366 C59.8133402,22.5643366 60.0191633,22.5928686 60.1942894,22.6525812 C60.3694154,22.7113307 60.518549,22.7758589 60.6419252,22.8492957 C60.7654191,22.9208064 60.8677426,22.9875015 60.94819,23.0492607 C61.0294608,23.1108995 61.0937952,23.1403947 61.139782,23.1403947 C61.1876505,23.1403947 61.2288152,23.1276335 61.2660985,23.1011481 C61.3033819,23.074783 61.339842,23.0336102 61.3752436,22.9767869 C61.4097043,22.9199637 61.4449882,22.8474899 61.4832125,22.7602084 C61.5204959,22.6740104 61.5627191,22.5663832 61.6076473,22.4399755 C61.647871,22.3264493 61.6793914,22.2304998 61.701385,22.1550164 C61.7252605,22.0776067 61.7396093,22.014764 61.7473718,21.9648028 C61.7540758,21.9148417 61.7559576,21.8737893 61.7521939,21.8434514 C61.7473718,21.8131136 61.7320821,21.7749505 61.7052663,21.7317311 C61.6785681,21.6886321 61.61047,21.633735 61.501325,21.5681234 C61.3913566,21.5025117 61.2611588,21.4437622 61.1089673,21.3907914 C60.9577167,21.338904 60.7885889,21.2977312 60.6038186,21.2673934 C60.4171664,21.235972 60.226633,21.2212847 60.0313951,21.2212847 Z M7.81348201,19 C7.48416502,19 7.24023522,19.0606757 7.08039887,19.1791378 C6.91962161,19.3006096 6.78471926,19.515262 6.6747509,19.8257434 C6.56948708,20.1235841 6.55219794,20.3301704 6.62300109,20.4476694 C6.69486276,20.5662519 6.89386432,20.6250014 7.22306369,20.6250014 C7.55132216,20.6250014 7.79631048,20.5643257 7.96002807,20.4409276 C8.12268714,20.3183724 8.25841278,20.1049239 8.36755784,19.799258 C8.47470347,19.4975649 8.49105171,19.289895 8.41730823,19.1732388 C8.34274145,19.057666 8.14174048,19 7.81348201,19 Z M5.01616941,19 C4.69179218,19 4.44868568,19.0606757 4.28590899,19.1791378 C4.12419083,19.3006096 3.98822996,19.515262 3.87826161,19.8257434 C3.77193926,20.1235841 3.75582625,20.3301704 3.82956974,20.4476694 C3.90319561,20.5662519 4.10302045,20.6250014 4.43233744,20.6250014 C4.76059591,20.6250014 5.00570184,20.5643257 5.1664791,20.4409276 C5.32725636,20.3183724 5.46215871,20.1049239 5.57024525,19.799258 C5.67739088,19.4975649 5.69562093,19.289895 5.62293597,19.1732388 C5.55213281,19.057666 5.34925003,19 5.01616941,19 Z" id="Fill-4" fill="#383A41"></path>
                            </g>
                        </g>
                    </g>
                </g>
            </g>
        </g>
    </g>
</svg>