<?xml version="1.0" encoding="UTF-8" standalone="no"?>
<svg width="90px" height="27px" viewBox="0 0 90 27" version="1.1" xmlns="http://www.w3.org/2000/svg" xmlns:xlink="http://www.w3.org/1999/xlink">
    <!-- Generator: Sketch 49.1 (51147) - http://www.bohemiancoding.com/sketch -->
    <title>VISA</title>
    <desc>Created with Sketch.</desc>
    <defs></defs>
    <g id="symbols" stroke="none" stroke-width="1" fill="none" fill-rule="evenodd">
        <g id="footer" transform="translate(-426.000000, -427.000000)">
            <g id="Payments">
                <g transform="translate(390.000000, 313.000000)">
                    <g id="Group-5" transform="translate(0.000000, 77.000000)">
                        <g id="visa">
                            <g id="VISA" transform="translate(36.000000, 37.000000)">
                                <polyline id="Fill-1" fill="#072197" points="38.0811592 26.7600002 31.2200003 26.7600002 35.5081365 0 42.3700004 0 38.0811592 26.7600002"></polyline>
                                <path d="M25.5337572,0 L18.5206081,18.4050162 L17.6915753,14.4415527 L17.692331,14.4429843 L15.2165685,2.41014661 C15.2165685,2.41014661 14.9180562,0 11.7273757,0 L0.135275181,0 L0,0.452394611 C0,0.452394611 3.54587234,1.15102933 7.69330358,3.51250057 L14.0837333,26.7600002 L21.7475636,26.7600002 L33.4500003,0 L25.5337572,0" id="Fill-2" fill="#072197"></path>
                                <path d="M74.0157777,17.2940725 L77.9689156,7.27911519 L80.1924108,17.2940725 L74.0157777,17.2940725 Z M82.2930225,26.7600002 L89.2000008,26.7600002 L83.177938,0 L77.1303712,0 C74.3372841,0 73.6579472,1.99425852 73.6579472,1.99425852 L62.4400005,26.7600002 L70.2798111,26.7600002 L71.8487007,22.7857995 L81.4111984,22.7857995 L82.2930225,26.7600002 Z" id="Fill-3" fill="#072197"></path>
                                <path d="M63.6062711,6.67945428 L64.6700006,1.12718816 C64.6700006,1.12718816 61.3853143,0 57.9611477,0 C54.259553,0 45.4699901,1.46050393 45.4699901,8.55833173 C45.4699901,15.237786 55.7861734,15.3207692 55.7861734,18.8275 C55.7861734,22.3342308 46.5329532,21.7077078 43.4797124,19.4955145 L42.3700004,25.2994963 C42.3700004,25.2994963 45.6999028,26.7600002 50.7901702,26.7600002 C55.8796712,26.7600002 63.5595222,24.3804576 63.5595222,17.9091528 C63.5595222,11.1875154 53.149841,10.5616839 53.149841,7.63929303 C53.149841,4.71690213 60.4143163,5.092401 63.6062711,6.67945428" id="Fill-4" fill="#072197"></path>
                                <path d="M17.8400002,13.3800001 L15.3435737,2.23276307 C15.3435737,2.23276307 15.0425699,0 11.8252583,0 L0.136404256,0 L0,0.419098978 C0,0.419098978 5.61848367,1.43302673 11.0083568,5.22879025 C16.1597131,8.85744469 17.8400002,13.3800001 17.8400002,13.3800001" id="Fill-5" fill="#EE9F3F"></path>
                            </g>
                        </g>
                    </g>
                </g>
            </g>
        </g>
    </g>
</svg>