<?xml version="1.0" encoding="UTF-8"?>
<svg width="58px" height="49px" viewBox="0 0 58 49" version="1.1" xmlns="http://www.w3.org/2000/svg" xmlns:xlink="http://www.w3.org/1999/xlink">
    <!-- Generator: Sketch 49.1 (51147) - http://www.bohemiancoding.com/sketch -->
    <title>speech-bubble</title>
    <desc>Created with Sketch.</desc>
    <defs></defs>
    <g id=":::elements" stroke="none" stroke-width="1" fill="none" fill-rule="evenodd">
        <g id="100-Basic-Element-Icons-Dark" transform="translate(-237.000000, -1262.000000)" fill="#AFB6D2">
            <path d="M239.046472,1302.25355 C237.948365,1302.25355 237,1301.35903 237,1300.21602 L237,1264.03753 C237,1262.89452 237.898451,1262 239.046472,1262 L292.953528,1262 C294.101549,1262 295,1262.89452 295,1264.03753 L295,1300.26572 C295,1301.40872 294.101549,1302.30325 292.953528,1302.30325 L259.910499,1302.30325 L248.929432,1310.60243 C248.580034,1310.85091 248.130809,1311 247.681583,1311 C247.3821,1311 247.082616,1310.9503 246.783133,1310.80122 C246.084337,1310.45335 245.635112,1309.75761 245.635112,1308.96247 L245.635112,1302.25355 L239.046472,1302.25355 Z M251.275387,1279.24442 C250.127367,1279.24442 249.228916,1278.3499 249.228916,1277.2069 C249.228916,1276.06389 250.127367,1275.16937 251.275387,1275.16937 L280.724613,1275.16937 C281.872633,1275.16937 282.771084,1276.06389 282.771084,1277.2069 C282.771084,1278.3499 281.872633,1279.24442 280.724613,1279.24442 L251.275387,1279.24442 Z M251.275387,1289.08418 C250.127367,1289.08418 249.228916,1288.18966 249.228916,1287.04665 C249.228916,1285.90365 250.127367,1285.00913 251.275387,1285.00913 L280.724613,1285.00913 C281.872633,1285.00913 282.771084,1285.90365 282.771084,1287.04665 C282.771084,1288.18966 281.872633,1289.08418 280.724613,1289.08418 L251.275387,1289.08418 Z M241.092943,1266.07505 L241.092943,1298.1785 L247.681583,1298.1785 C248.829604,1298.1785 249.728055,1299.07302 249.728055,1300.21602 L249.728055,1304.83773 L257.963855,1298.57606 C258.313253,1298.32759 258.762478,1298.1785 259.211704,1298.1785 L290.857143,1298.1785 L290.857143,1266.07505 L241.092943,1266.07505 Z" id="speech-bubble"></path>
        </g>
    </g>
</svg>