<?xml version="1.0" encoding="UTF-8" standalone="no"?>
<svg width="141px" height="141px" viewBox="0 0 141 141" version="1.1" xmlns="http://www.w3.org/2000/svg" xmlns:xlink="http://www.w3.org/1999/xlink">
    <!-- Generator: Sketch 49.1 (51147) - http://www.bohemiancoding.com/sketch -->
    <title>ic_message</title>
    <desc>Created with Sketch.</desc>
    <defs>
        <path d="M71.180882,141 C110.116957,141 141.680882,109.436075 141.680882,70.5 C141.680882,31.5639251 110.116957,0 71.180882,0 C32.2448072,0 0.680882024,31.5639251 0.680882024,70.5 C0.680882024,109.436075 32.2448072,141 71.180882,141 Z" id="path-1"></path>
        <filter x="-63.8%" y="-63.8%" width="227.7%" height="227.7%" filterUnits="objectBoundingBox" id="filter-2">
            <feOffset dx="0" dy="0" in="SourceAlpha" result="shadowOffsetOuter1"></feOffset>
            <feGaussianBlur stdDeviation="30" in="shadowOffsetOuter1" result="shadowBlurOuter1"></feGaussianBlur>
            <feColorMatrix values="0 0 0 0 0.965882242   0 0 0 0 0.937006787   0 0 0 0 1  0 0 0 1 0" type="matrix" in="shadowBlurOuter1"></feColorMatrix>
        </filter>
        <path d="M5.19639004,0.474342624 L0.49438527,5.14027063 C-0.156332639,5.79232471 -0.165685874,6.85592113 0.4756788,7.51331992 C0.796361137,7.8487002 1.22527376,8.01705843 1.65685874,8.01705843 C2.07508196,8.01705843 2.4973137,7.85805344 2.82200457,7.54137963 L7.52267316,2.87277927 C8.17472724,2.22339754 8.1827443,1.15846494 7.54137963,0.501066152 C7.22069729,0.167022051 6.79178467,0 6.36019969,0 C5.9406403,0 5.51974473,0.159004992 5.19639004,0.474342624 Z" id="path-3"></path>
        <path d="M15.7161069,0.847931968 L0.513091739,16.0589642 C-0.17103058,16.7404141 -0.17103058,17.8494405 0.513091739,18.5322267 C0.855152899,18.8716155 1.30410817,19.0426461 1.75306344,19.0426461 C2.20068254,19.0426461 2.64830163,18.8716155 2.99036279,18.5322267 L18.1933779,3.32119449 C18.8775002,2.63974453 18.8775002,1.52938193 18.1933779,0.847931968 C17.8526529,0.505870808 17.4036977,0.334840228 16.9560786,0.334840228 C16.5071233,0.334840228 16.058168,0.505870808 15.7161069,0.847931968 Z" id="path-5"></path>
        <path d="M4.82092447,0.54649615 L0.551840855,4.80622653 C-0.183056167,5.53577884 -0.183056167,6.73165673 0.543823797,7.4638814 C0.908599955,7.83266608 1.39229581,8.01705843 1.87064697,8.01705843 C2.35167047,8.01705843 2.82734927,7.83266608 3.19479778,7.47189846 L7.46521757,3.2108319 C8.2001146,2.48395194 8.2001146,1.28673788 7.47323463,0.553177032 C7.10578612,0.183056167 6.62609879,0 6.14641146,0 C5.66672413,0 5.1870368,0.183056167 4.82092447,0.54649615 Z" id="path-7"></path>
        <path d="M7.56676698,0.533134386 L0.539815268,7.55073286 C-0.179047638,8.26825959 -0.179047638,9.43340542 0.531798209,10.1482598 C0.888557309,10.5090274 1.3588914,10.6894112 1.8292255,10.6894112 C2.29688724,10.6894112 2.76321281,10.5090274 3.12264426,10.157613 L10.149596,3.1373422 C10.8684589,2.42248782 10.8684589,1.25867817 10.157613,0.541151444 C9.79951775,0.179047638 9.33051983,0 8.86152192,0 C8.39386017,0 7.92486226,0.179047638 7.56676698,0.533134386 Z" id="path-9"></path>
        <path d="M0,4.00852921 C0,1.79448491 1.79448491,0 4.00852921,0 C6.22257352,0 8.01705843,1.79448491 8.01705843,4.00852921 C8.01705843,6.22257352 6.22257352,8.01705843 4.00852921,8.01705843 C1.79448491,8.01705843 0,6.22257352 0,4.00852921 Z M1.14510318,4.00852921 C1.14510318,5.59056208 2.42783253,6.87195525 4.00852921,6.87195525 C5.59056208,6.87195525 6.87195525,5.59056208 6.87195525,4.00852921 C6.87195525,2.42649635 5.59056208,1.14510318 4.00852921,1.14510318 C2.42783253,1.14510318 1.14510318,2.42649635 1.14510318,4.00852921 Z" id="path-11"></path>
    </defs>
    <g id="ic_message" stroke="none" stroke-width="1" fill="none" fill-rule="evenodd">
        <g id="Group">
            <g id="Oval-6">
                <use fill="black" fill-opacity="1" filter="url(#filter-2)" xlink:href="#path-1"></use>
                <use fill="#CDDFF2" fill-rule="evenodd" xlink:href="#path-1"></use>
            </g>
            <path d="M35.4214685,69.5975348 L35.4538327,50.3346024 L119.600582,49.438527 L119.600582,97.8265976 C119.600582,101.981699 114.242006,105.557936 109.955145,105.557936 L45.49966,105.557936 C41.2127992,105.557936 36.3785222,104.995201 35.4538327,99.6187483 L35.4538327,93.3462207 L35.4214685,83.0386656" id="Fill-1" fill="#67AEDC"></path>
            <path d="M119.600704,49.4459484 L84.3249083,14.4378151 C80.9114915,11.0493545 75.376021,11.3154167 71.9626042,14.7038773 L35.4214685,50.7747034" id="Fill-3" fill="#67AEDC"></path>
            <path d="M108.882107,56.7629313 L74.1363113,20.7193727 C72.6150207,19.1690405 71.1674289,18.3870307 69.7334851,18.3505308 C68.1512337,18.293956 66.4152155,19.2101029 64.5727433,21.0305342 L30.5302262,56.2072896 C29.828722,56.9318122 28.6786554,56.9473246 27.9571342,56.246527 C27.235613,55.5439044 27.2183256,54.3886833 27.9180101,53.6659858 L61.9896428,18.4600304 C64.5927603,15.8877017 67.207706,14.6220685 69.8262911,14.7014557 C72.2155909,14.762593 74.5457495,15.9333265 76.7521669,18.1808064 L111.518889,54.2462649 C112.211295,54.9771749 112.183089,56.132396 111.455199,56.8268061 C111.102172,57.162605 110.65088,57.3295919 110.200498,57.3295919 C109.72009,57.3295919 109.239683,57.1397925 108.882107,56.7629313 Z" id="Fill-8" fill="#4C3A30"></path>
            <g id="Group-12" transform="translate(27.404410, 53.447056)" fill="#4C3A30">
                <path d="M75.4961162,61.4045484 L9.56014965,61.4045484 C4.28946533,61.4045484 -9.19519246e-05,57.1929064 -9.19519246e-05,52.0168489 L-9.19519246e-05,42.4413233 C-9.19519246e-05,41.4443994 0.823797293,40.6353018 1.83894654,40.6353018 C2.85501531,40.6353018 3.67798503,41.4443994 3.67798503,42.4413233 L3.67798503,52.0168489 C3.67798503,55.2017678 6.31700527,57.7925055 9.56014965,57.7925055 L75.4961162,57.7925055 C78.8486834,57.7925055 80.9221993,54.5109646 80.9221993,51.4714305 L80.9221993,5.39801749 L3.68258263,4.53473924 L3.67798503,23.3417435 C3.67798503,24.3386674 2.85501531,25.147765 1.83894654,25.147765 C0.822877774,25.147765 -9.19519246e-05,24.3386674 -9.19519246e-05,23.3417435 L0.00450564431,0.882963883 L84.6002763,1.82570707 L84.6002763,51.4714305 C84.6002763,56.9481905 80.5166913,61.4045484 75.4961162,61.4045484" id="Fill-10"></path>
            </g>
            <path d="M43.6780965,63.1679066 L60.466383,79.0040188 L61.4648947,78.9139939 L67.6719096,76.4125881 C70.9812101,73.1184122 73.5909987,75.8742761 76.9002993,79.168452 L81.5144941,82.8429371 L87.0515279,78.2498307 L100.894112,65.2788983 L100.894112,40.6396383 L100.894112,27.8937681 C100.894112,25.8011488 98.8832463,24.0511753 96.7819419,24.0511753 L44.4818892,24.0511753 C42.7727915,24.0511753 43.6780965,25.7340895 43.6780965,27.794557 L43.6780965,63.1679066 Z" id="Fill-13" fill="#F8F9FB"></path>
            <path d="M97.1760568,67.3829585 L97.1760568,32.699462 C97.1760568,31.9845144 95.8403454,31.5430059 95.8273322,31.5430059 L40.5249741,31.5430059 C40.4803574,32.4138313 40.4757099,32.6010587 40.4757099,33.3499685 L40.4757099,65.9379949 C40.4757099,66.8993861 39.6428654,65.9379949 38.6166821,65.9379949 C37.5895692,65.9379949 36.7576543,65.1577354 36.7576543,64.1963442 L36.7576543,33.3499685 C36.7576543,31.896561 36.7251213,28.0597045 40.4952296,28.0597045 L95.8273322,28.0597045 C98.6976711,28.0597045 100.894112,30.301209 100.894112,32.699462 L100.894112,65.0671695 C100.894112,66.0285607 100.061268,66.8088202 99.0350846,66.8088202 C98.0089013,66.8088202 97.1760568,68.3443497 97.1760568,67.3829585 Z" id="Fill-15" fill="#4C3A30"></path>
            <path d="M92.3542023,50.7747034 L53.3146134,50.7747034 C52.2875005,50.7747034 51.4555854,50.1760964 51.4555854,49.438527 C51.4555854,48.7009576 52.2875005,48.1023506 53.3146134,48.1023506 L92.3542023,48.1023506 C93.3803858,48.1023506 94.2132304,48.7009576 94.2132304,49.438527 C94.2132304,50.1760964 93.3803858,50.7747034 92.3542023,50.7747034" id="Fill-17" fill="#C7DCF1"></path>
            <path d="M83.0543517,61.4641146 L53.2612292,61.4641146 C52.263611,61.4641146 51.4555854,60.8655076 51.4555854,60.1279382 C51.4555854,59.3903688 52.263611,58.7917618 53.2612292,58.7917618 L83.0543517,58.7917618 C84.0510671,58.7917618 84.8599955,59.3903688 84.8599955,60.1279382 C84.8599955,60.8655076 84.0510671,61.4641146 83.0543517,61.4641146" id="Fill-19" fill="#C7DCF1"></path>
            <path d="M73.7251922,40.0852921 L53.2371539,40.0852921 C52.2528373,40.0852921 51.4555854,39.4866851 51.4555854,38.7491157 C51.4555854,38.0115464 52.2528373,37.4129393 53.2371539,37.4129393 L73.7251922,37.4129393 C74.708618,37.4129393 75.5067607,38.0115464 75.5067607,38.7491157 C75.5067607,39.4866851 74.708618,40.0852921 73.7251922,40.0852921" id="Fill-21" fill="#C7DCF1"></path>
            <path d="M30.5795265,110.902642 C30.1004931,110.902642 29.6223792,110.719234 29.2619548,110.354233 C28.5539784,109.635129 28.5686896,108.48565 29.2959745,107.785613 L63.3772247,75.0154986 C67.3161482,71.1248874 73.8396454,71.2084198 77.9008557,75.2206977 L104.332283,100.094279 C105.067843,100.786145 105.095426,101.935623 104.394805,102.661991 C103.693265,103.389268 102.53108,103.41469 101.794601,102.723732 L75.3319126,77.819281 C72.671944,75.192551 68.4829301,75.1081106 65.9599595,77.5995545 L31.8630786,110.387828 C31.5054126,110.731945 31.0420099,110.902642 30.5795265,110.902642" id="Fill-23" fill="#4C3A30"></path>
            <path d="M57.6894296,84.1791135 C57.2812533,84.1791135 56.8712946,84.0328111 56.5353067,83.7317656 L29.3684114,59.4239897 C28.6188999,58.7543746 28.5271048,57.5698875 29.1652144,56.7802295 C29.8024329,55.9905714 30.9262545,55.8949121 31.6775485,56.5673406 L58.845335,80.8751166 C59.5948465,81.5447317 59.6857504,82.7292188 59.0476407,83.5188768 C58.6956109,83.9549707 58.1938571,84.1791135 57.6894296,84.1791135" id="Fill-25" fill="#4C3A30"></path>
            <path d="M82.1618717,83.3710791 C81.6458412,83.3710791 81.1325218,83.1466295 80.7755479,82.7097378 C80.1348024,81.9283207 80.2351166,80.7635842 81.000577,80.1077849 L108.61525,56.5505668 C109.378903,55.8956912 110.520315,55.9982176 111.161965,56.7805584 C111.80271,57.5628992 111.701492,58.7267121 110.936935,59.3825113 L83.715175,82.6177672 C83.3771795,82.9077968 82.439145,83.8697802 82.0297547,83.8697802 L83.981254,84.4738487" id="Fill-27" fill="#4C3A30"></path>
            <path d="M29.2022051,91.1961719 C28.2098223,91.1961719 27.4044101,90.4343084 27.4044101,89.4955838 L27.4044101,83.5435252 C27.4044101,82.6048006 28.2098223,81.8429371 29.2022051,81.8429371 C30.1945879,81.8429371 31,82.6048006 31,83.5435252 L31,89.4955838 C31,90.4343084 30.1945879,91.1961719 29.2022051,91.1961719" id="Fill-29" fill="#4C3A30"></path>
            <g id="Group-9" transform="translate(117.902642, 20.042646)">
                <mask id="mask-4" fill="white">
                    <use xlink:href="#path-3"></use>
                </mask>
                <g id="Clip-8"></g>
                <polygon id="Fill-7" fill="#7AE66B" mask="url(#mask-4)" points="-6.68088202 14.6979405 14.6979405 14.6979405 14.6979405 -6.68088202 -6.68088202 -6.68088202"></polygon>
            </g>
            <g id="Group-12" transform="translate(104.540878, 1.000000)">
                <mask id="mask-6" fill="white">
                    <use xlink:href="#path-5"></use>
                </mask>
                <g id="Clip-11"></g>
                <polygon id="Fill-10" fill="#83E470" mask="url(#mask-6)" points="-6.68088202 25.7235281 25.3873517 25.7235281 25.3873517 -6.34470562 -6.68088202 -6.34470562"></polygon>
            </g>
            <g id="Group-15" transform="translate(5.370293, 128.238818)">
                <mask id="mask-8" fill="white">
                    <use xlink:href="#path-7"></use>
                </mask>
                <g id="Clip-14"></g>
                <polygon id="Fill-13" fill="#3693D1" mask="url(#mask-8)" points="-6.68088202 14.6979405 14.6979405 14.6979405 14.6979405 -6.68088202 -6.68088202 -6.68088202"></polygon>
            </g>
            <g id="Group-18" transform="translate(13.387352, 114.877054)">
                <mask id="mask-10" fill="white">
                    <use xlink:href="#path-9"></use>
                </mask>
                <g id="Clip-17"></g>
                <polygon id="Fill-16" fill="#67AEDC" mask="url(#mask-10)" points="-6.68088202 17.3702933 17.3702933 17.3702933 17.3702933 -6.68088202 -6.68088202 -6.68088202"></polygon>
            </g>
            <g id="Group-21" transform="translate(4.000000, 16.723528)">
                <mask id="mask-12" fill="white">
                    <use xlink:href="#path-11"></use>
                </mask>
                <g id="Clip-20"></g>
                <polygon id="Fill-19" fill="#67AEDC" mask="url(#mask-12)" points="-6.68088202 14.6979405 14.6979405 14.6979405 14.6979405 -6.68088202 -6.68088202 -6.68088202"></polygon>
            </g>
            <g id="Group-39" transform="translate(121.272935, 39.706470)">
                <path d="M13.2965586,86.8124053 L13.3045757,86.8124053 L13.2965586,86.8124053 Z M13.2965586,82.8038761 C13.2778522,82.8038761 13.2618181,82.8038761 13.2431116,82.8052123 L13.2417754,82.8052123 L13.2404392,82.8052123 C12.9117398,82.8145655 12.6004107,82.901417 12.3305031,83.0524049 L9.35350207,84.6170675 L6.34176045,83.0336985 C6.04913782,82.8800382 5.72845548,82.8038761 5.4104455,82.8038761 C4.99355846,82.8038761 4.58067995,82.9334852 4.23193791,83.1860226 C3.61462441,83.6349778 3.30463148,84.393926 3.4342406,85.1475295 L4.00879645,88.4999961 L1.57428304,90.8743816 C1.02645071,91.4061798 0.830032783,92.2025409 1.06653601,92.9294209 C1.30036688,93.6549647 1.92836979,94.1840906 2.68464563,94.293657 L6.050474,94.7826976 L7.5563448,97.8331883 C7.89306126,98.5173106 8.59054534,98.9502318 9.35350207,98.9502318 C10.1164588,98.9502318 10.8139429,98.5173106 11.1506593,97.8331883 L12.6565301,94.7826976 L16.0223585,94.293657 C16.7772982,94.1840906 17.4053011,93.6549647 17.6404681,92.9294209 C17.8769714,92.2025409 17.6792172,91.4061798 17.1327211,90.8743816 L14.6982077,88.4999961 L15.2527209,85.2637769 C15.2861253,85.1167975 15.3048318,84.9644734 15.3048318,84.8081407 C15.3048318,83.7017867 14.4109298,82.8038761 13.3045757,82.8038761 L13.3019033,82.8038761 L13.2965586,82.8038761 Z M13.2965586,84.8081407 L12.5442913,89.1988164 L15.7337444,92.3094351 L11.3243623,92.9507997 L9.35350207,96.9459672 L7.3813057,92.9507997 L2.97192356,92.3094351 L6.16271281,89.1988164 L5.4104455,84.8081407 L9.35350207,86.8818865 L13.2965586,84.8081407 Z M13.2965586,84.8081407 L13.3045757,84.8081407 L13.2965586,84.8081407 Z" id="Fill-33" fill="#EB6326"></path>
                <path d="M18.6129652,6.80648261 C18.6129652,10.5651468 15.5651468,13.6129652 11.8064826,13.6129652 C8.04781838,13.6129652 5,10.5651468 5,6.80648261 C5,3.04781838 8.04781838,0 11.8064826,0 C15.5651468,0 18.6129652,3.04781838 18.6129652,6.80648261 Z" id="Stroke-35" stroke="#64D136" stroke-width="1.5"></path>
                <path d="M13.7581242,4.78299937 C13.7581242,5.21458435 13.6539024,5.5740158 13.3906757,5.96017079 C12.5141439,7.26828749 11.9115284,8.37998625 11.4318411,9.88719324 C11.2621467,10.4336894 10.969524,10.6888991 10.4604408,10.6888991 C9.88722113,10.6888991 9.56520262,10.2546418 9.81105908,9.60526002 C10.4430705,7.92835863 11.2808531,6.53472664 12.0812228,5.45108758 L9.67877761,5.45108758 C9.26456293,5.45108758 9,5.121052 9,4.71619055 C9,4.31934616 9.29262263,4 9.71752673,4 L12.8161198,4 C13.4280886,4 13.7581242,4.23650322 13.7581242,4.78299937" id="Fill-37" fill="#4C3A2E"></path>
            </g>
        </g>
    </g>
</svg>