<?xml version="1.0" encoding="UTF-8" standalone="no"?>
<svg width="141px" height="141px" viewBox="0 0 141 141" version="1.1" xmlns="http://www.w3.org/2000/svg" xmlns:xlink="http://www.w3.org/1999/xlink">
    <!-- Generator: Sketch 49.1 (51147) - http://www.bohemiancoding.com/sketch -->
    <title>ic_websites</title>
    <desc>Created with Sketch.</desc>
    <defs>
        <path d="M7.55100421,0.548625 L0.539004206,7.770125 C-0.178329128,8.5085 -0.178329128,9.7075 0.531004206,10.443125 C0.887004206,10.814375 1.35633754,11 1.82567087,11 C2.29233754,11 2.75767087,10.814375 3.11633754,10.45275 L10.1283375,3.2285 C10.8456709,2.492875 10.8456709,1.29525 10.1363375,0.556875 C9.77900421,0.18425 9.31100421,0 8.84300421,0 C8.37633754,0 7.90833754,0.18425 7.55100421,0.548625 Z" id="path-1"></path>
        <path d="M16.8028571,0.98301 L0.548571429,17.71749 C-0.182857143,18.46719 -0.182857143,19.68729 0.548571429,20.43846 C0.914285714,20.81184 1.39428571,21 1.87428571,21 C2.35285714,21 2.83142857,20.81184 3.19714286,20.43846 L19.4514286,3.70398 C20.1828571,2.95428 20.1828571,1.73271 19.4514286,0.98301 C19.0871429,0.60669 18.6071429,0.41853 18.1285714,0.41853 C17.6485714,0.41853 17.1685714,0.60669 16.8028571,0.98301 Z" id="path-3"></path>
        <path d="M0,4 C0,1.79066667 1.79066667,0 4,0 C6.20933333,0 8,1.79066667 8,4 C8,6.20933333 6.20933333,8 4,8 C1.79066667,8 0,6.20933333 0,4 Z M1.14266667,4 C1.14266667,5.57866667 2.42266667,6.85733333 4,6.85733333 C5.57866667,6.85733333 6.85733333,5.57866667 6.85733333,4 C6.85733333,2.42133333 5.57866667,1.14266667 4,1.14266667 C2.42266667,1.14266667 1.14266667,2.42133333 1.14266667,4 Z" id="path-5"></path>
        <path d="M0,4 C0,1.79066667 1.79066667,0 4,0 C6.20933333,0 8,1.79066667 8,4 C8,6.20933333 6.20933333,8 4,8 C1.79066667,8 0,6.20933333 0,4 Z M1.14266667,4 C1.14266667,5.57866667 2.42266667,6.85733333 4,6.85733333 C5.57866667,6.85733333 6.85733333,5.57866667 6.85733333,4 C6.85733333,2.42133333 5.57866667,1.14266667 4,1.14266667 C2.42266667,1.14266667 1.14266667,2.42133333 1.14266667,4 Z" id="path-7"></path>
    </defs>
    <g id="ic_websites" stroke="none" stroke-width="1" fill="none" fill-rule="evenodd">
        <g id="Group" fill="#FBD292">
            <path d="M70.5,141 C109.436075,141 141,109.436075 141,70.5 C141,31.5639251 109.436075,0 70.5,0 C31.5639251,0 0,31.5639251 0,70.5 C0,109.436075 31.5639251,141 70.5,141 Z" id="Oval-6"></path>
        </g>
        <g id="Group-2" transform="translate(18.000000, 31.000000)">
            <path d="M4,59.9538059 L4,64.6340308 C4,70.0844085 8.43439496,74.5188035 13.8847726,74.5188035 L97.4033656,74.5188035 C102.853743,74.5188035 107.288138,70.0844085 107.288138,64.6340308 L107.288138,59.9538059 L4,59.9538059 Z" id="Combined-Shape" fill="#8DB8E2"></path>
            <polygon id="Fill-15-Copy" fill="#8DB8E2" points="13.0948504 63.1869049 98.6540042 63.1869049 98.6540042 0 13.0948504 0"></polygon>
            <polygon id="Fill-15-Copy-2" fill="#FFFFFF" points="20 59 90 59 90 9 20 9"></polygon>
            <polygon id="Fill-15-Copy-2" fill="#908E9C" points="20 22 90 22 90 9 20 9"></polygon>
            <polygon id="Fill-15-Copy-2" fill="#8DB8E2" points="23 54 43 54 43 26 23 26"></polygon>
            <polygon id="Fill-15-Copy-2" fill="#E2E2E2" points="46 30 82 30 82 26 46 26"></polygon>
            <polygon id="Fill-15-Copy-2" fill="#ADE79B" points="46 54 57 54 57 50 46 50"></polygon>
            <polygon id="Fill-15-Copy-2" fill="#E2E2E2" points="46 47 82 47 82 33 46 33"></polygon>
            <path d="M18.1128232,59.2124459 L15.5491771,59.2124459 L15.5491771,9.21244585 L87.5491771,9.21244585 L87.5491771,59.2124459 L84.9855311,59.2124459 L84.9855311,11.8192374 L18.1128232,11.8192374 L18.1128232,59.2124459 Z M11.6734867,62.6082686 L92.0753679,62.6082686 L92.0753679,4.57863634 L11.6734867,4.57863634 L11.6734867,62.6082686 Z M9.09485038,65.1869049 L94.6540042,65.1869049 L94.6540042,2 L9.09485038,2 L9.09485038,65.1869049 Z" id="Fill-15" fill="#4C3A30"></path>
            <path d="M0,63 L103.288138,63 L103.288138,67.680225 C103.288138,73.1306026 98.8537433,77.5649976 93.4033656,77.5649976 L9.88477265,77.5649976 C4.43439496,77.5649976 0,73.1306026 0,67.680225 L0,63 Z M100.709502,67.680225 L100.709502,65.5786363 L73.1413008,65.5786363 L73.1413008,71.2645295 L29.3792634,71.2645295 L29.3792634,65.5786363 L2.57863634,65.5786363 L2.57863634,67.680225 C2.57863634,71.7089145 5.85694268,74.9863613 9.88477265,74.9863613 L93.4033656,74.9863613 C97.4320551,74.9863613 100.709502,71.7089145 100.709502,67.680225 Z M31.9578997,68.6858931 L70.5626644,68.6858931 L70.5626644,65.5786363 L31.9578997,65.5786363 L31.9578997,68.6858931 Z" id="Combined-Shape-Copy" fill="#4C3A30"></path>
        </g>
        <g id="Group-4" transform="translate(0.000000, 4.000000)">
            <path d="M13.1363983,65.2433155 L13.1449406,65.2433155 L13.1363983,65.2433155 Z M13.1363983,61 C13.1164662,61 13.0993816,61 13.0794495,61.0014144 L13.0780258,61.0014144 L13.0766021,61.0014144 C12.726367,61.0113155 12.3946403,61.103254 12.1070489,61.2630856 L8.93500127,62.919393 L5.72593691,61.2432834 C5.41414228,61.080623 5.07244953,61 4.73360423,61 C4.28940366,61 3.84947425,61.1372005 3.47788339,61.4045294 C2.82012485,61.8797807 2.48982187,62.6831818 2.62792268,63.4809251 L3.24012219,67.0297513 L0.64610476,69.5432086 C0.0623796533,70.1061551 -0.146907153,70.9491604 0.105091246,71.718615 C0.354242207,72.4866551 1.0233905,73.0467727 1.82921589,73.1627567 L5.415566,73.6804412 L7.02009818,76.9096043 C7.37887556,77.6337968 8.12205728,78.0920749 8.93500127,78.0920749 C9.74794526,78.0920749 10.491127,77.6337968 10.8499044,76.9096043 L12.4544366,73.6804412 L16.0407867,73.1627567 C16.8451883,73.0467727 17.5143366,72.4866551 17.7649113,71.718615 C18.0169097,70.9491604 17.8061992,70.1061551 17.2238978,69.5432086 L14.6298804,67.0297513 L15.2207241,63.6039813 C15.2563171,63.448393 15.2762491,63.2871471 15.2762491,63.1216578 C15.2762491,61.9505027 14.3237806,61 13.1449406,61 L13.1420932,61 L13.1363983,61 Z M13.1363983,63.1216578 L12.3348441,67.7695027 L15.7332632,71.0623155 L11.0349879,71.741246 L8.93500127,75.9704171 L6.83359089,71.741246 L2.13531564,71.0623155 L5.53515846,67.7695027 L4.73360423,63.1216578 L8.93500127,65.3168663 L13.1363983,63.1216578 Z M13.1363983,63.1216578 L13.1449406,63.1216578 L13.1363983,63.1216578 Z" id="Fill-33" fill="#F08B5C"></path>
            <g id="Group-6" transform="translate(129.000000, 5.000000)">
                <mask id="mask-2" fill="white">
                    <use xlink:href="#path-1"></use>
                </mask>
                <use id="Clip-5" fill="#67AEDC" xlink:href="#path-1"></use>
            </g>
            <g id="Group-12" transform="translate(111.000000, 0.000000)">
                <mask id="mask-4" fill="white">
                    <use xlink:href="#path-3"></use>
                </mask>
                <g id="Clip-11"></g>
                <polygon id="Fill-10" fill="#ADE79B" mask="url(#mask-4)" points="-7.14285714 28.35 27.1428571 28.35 27.1428571 -6.93 -7.14285714 -6.93"></polygon>
            </g>
            <path d="M44.1542857,120.545333 L39.59,124.796 C38.8042857,125.524 38.8042857,126.717333 39.5814286,127.448 C39.9714286,127.816 40.4885714,128 41,128 C41.5142857,128 42.0228571,127.816 42.4157143,127.456 L46.9814286,123.204 C47.7671429,122.478667 47.7671429,121.284 46.99,120.552 C46.5971429,120.182667 46.0842857,120 45.5714286,120 C45.0585714,120 44.5457143,120.182667 44.1542857,120.545333 Z" id="Clip-14" fill="#FBD292"></path>
            <path d="M29.5506667,124.548625 L22.5386667,131.770125 C21.8213333,132.5085 21.8213333,133.7075 22.5306667,134.443125 C22.8866667,134.814375 23.356,135 23.8253333,135 C24.292,135 24.7573333,134.814375 25.116,134.45275 L32.128,127.2285 C32.8453333,126.492875 32.8453333,125.29525 32.136,124.556875 C31.7786667,124.18425 31.3106667,124 30.8426667,124 C30.376,124 29.908,124.18425 29.5506667,124.548625 Z" id="Clip-17" fill="#67AEDC"></path>
            <g id="Group-21" transform="translate(7.000000, 25.000000)">
                <mask id="mask-6" fill="white">
                    <use xlink:href="#path-5"></use>
                </mask>
                <g id="Clip-20"></g>
                <polygon id="Fill-19" fill="#3693D1" mask="url(#mask-6)" points="-6.66666667 14.6666667 14.6666667 14.6666667 14.6666667 -6.66666667 -6.66666667 -6.66666667"></polygon>
            </g>
            <g id="Group-21" transform="translate(7.000000, 25.000000)">
                <mask id="mask-8" fill="white">
                    <use xlink:href="#path-7"></use>
                </mask>
                <use id="Clip-20" fill="#64D136" xlink:href="#path-7"></use>
            </g>
            <path d="M128.731568,109.812677 L125.289223,109.812677 C124.038461,109.812677 123.02428,108.828184 123.02428,107.61106 C123.02428,106.393936 124.038461,105.409442 125.289223,105.409442 L131.348631,105.409442 C132.173913,105.409442 132.848811,104.752493 132.848811,103.950382 C132.848811,103.148271 132.173913,102.489461 131.348631,102.489461 L128.505991,102.489461 L128.505991,100.460921 C128.505991,99.6569492 127.831093,99 127.00581,99 C126.17686,99 125.501962,99.6569492 125.501962,100.460921 L125.501962,102.489461 L125.289223,102.489461 C122.386062,102.489461 120.020252,104.789714 120.020252,107.61106 C120.020252,110.432405 122.386062,112.730797 125.289223,112.730797 L128.731568,112.730797 C129.984164,112.730797 130.99651,113.717151 130.99651,114.932414 C130.99651,116.147677 129.984164,117.134032 128.731568,117.134032 L122.562122,117.134032 C121.73684,117.134032 121.058274,117.78912 121.058274,118.593092 C121.058274,119.393342 121.73684,120.052152 122.562122,120.052152 L125.5148,120.052152 L125.5148,122.13094 C125.5148,122.934912 126.189698,123.59 127.016814,123.59 C127.843931,123.59 128.518828,122.934912 128.518828,122.13094 L128.518828,120.052152 L128.770081,120.052152 C131.684246,120.014931 134.000539,117.729566 134.000539,114.932414 C134.000539,112.109208 131.634729,109.812677 128.731568,109.812677" id="Fill-50" fill="#F08B5C"></path>
        </g>
        <circle id="Oval-8" fill="#EB6326" cx="43" cy="48" r="2"></circle>
        <circle id="Oval-8" fill="#FABA5B" cx="49" cy="48" r="2"></circle>
        <circle id="Oval-8" fill="#7AE66B" cx="55" cy="48" r="2"></circle>
        <rect id="Rectangle-13" fill="#FFFFFF" x="59" y="46" width="40" height="4" rx="2"></rect>
    </g>
</svg>